<svg width="3812" height="2881" viewBox="0 0 3812 2881" fill="none" xmlns="http://www.w3.org/2000/svg">
<path d="M3616.1 1812.91C3613.81 1728.91 3620.34 1585.65 3546.69 1526.67C3481.99 1474.88 3431.68 1545.17 3413.52 1601.86C3369.54 1739.4 3390.19 1891.07 3390.32 2033.04C3390.32 2035.2 3390.32 2037.35 3390.32 2039.77C3386.89 2144.29 3374.31 2257.34 3385.75 2361.66C3385.75 2361.66 3374.51 2257.14 3292.46 2301.94C3210.41 2346.73 3333.49 2581.79 3333.49 2581.79C3333.49 2581.79 3236.5 2510.9 3191.71 2570.62C3146.92 2630.35 3247.67 2697.47 3247.67 2697.47C3247.67 2697.47 3154.38 2671.37 3154.38 2697.47C3154.38 2723.57 3184.25 2745.96 3270.07 2757.19H3732.66C3732.66 2757.19 3807.31 2716.1 3792.38 2671.37C3777.45 2626.65 3699.03 2652.41 3699.03 2652.41C3699.03 2652.41 3818.47 2506.87 3811.01 2443.44C3803.54 2380.02 3650.53 2454.67 3650.53 2454.67C3650.53 2454.67 3769.92 2152.42 3747.52 2018.11C3729.9 1912.32 3647.78 1984.48 3603.05 2025.38C3613.58 1955.07 3617.95 1883.98 3616.1 1812.91Z" fill="#92E3A9" stroke="white" stroke-linecap="round" stroke-linejoin="round"/>
<path opacity="0.5" d="M3616.1 1812.91C3613.81 1728.91 3620.34 1585.65 3546.69 1526.67C3481.99 1474.88 3431.68 1545.17 3413.52 1601.86C3369.54 1739.4 3390.19 1891.07 3390.32 2033.04C3390.32 2035.2 3390.32 2037.35 3390.32 2039.77C3386.89 2144.29 3374.31 2257.34 3385.75 2361.66C3385.75 2361.66 3374.51 2257.14 3292.46 2301.94C3210.41 2346.73 3333.49 2581.79 3333.49 2581.79C3333.49 2581.79 3236.5 2510.9 3191.71 2570.62C3146.92 2630.35 3247.67 2697.47 3247.67 2697.47C3247.67 2697.47 3154.38 2671.37 3154.38 2697.47C3154.38 2723.57 3184.25 2745.96 3270.07 2757.19H3732.66C3732.66 2757.19 3807.31 2716.1 3792.38 2671.37C3777.45 2626.65 3699.03 2652.41 3699.03 2652.41C3699.03 2652.41 3818.47 2506.87 3811.01 2443.44C3803.54 2380.02 3650.53 2454.67 3650.53 2454.67C3650.53 2454.67 3769.92 2152.42 3747.52 2018.11C3729.9 1912.32 3647.78 1984.48 3603.05 2025.38C3613.58 1955.07 3617.95 1883.98 3616.1 1812.91Z" fill="white"/>
<path d="M3467.66 2753.16L3501.29 1727.03" stroke="white" stroke-linecap="round" stroke-linejoin="round"/>
<path d="M3486.36 2324.06L3661.7 2159.89" stroke="white" stroke-linecap="round" stroke-linejoin="round"/>
<path d="M3568.42 2249.41L3605.74 2144.96" stroke="white" stroke-linecap="round" stroke-linejoin="round"/>
<path d="M3340.82 2450.91L3475.13 2596.45" stroke="white" stroke-linecap="round" stroke-linejoin="round"/>
<path d="M3699.03 2533.03L3475.13 2648.71" stroke="white" stroke-linecap="round" stroke-linejoin="round"/>
<path d="M3579.65 2600.15L3661.7 2596.45" stroke="white" stroke-linecap="round" stroke-linejoin="round"/>
<path d="M3467.66 2753.16L3501.29 1727.03" stroke="#92E3A9" stroke-linecap="round" stroke-linejoin="round"/>
<path d="M3486.36 2324.06L3661.7 2159.89" stroke="#92E3A9" stroke-linecap="round" stroke-linejoin="round"/>
<path d="M3568.42 2249.41L3605.74 2144.96" stroke="#92E3A9" stroke-linecap="round" stroke-linejoin="round"/>
<path d="M3340.82 2450.91L3475.13 2596.45" stroke="#92E3A9" stroke-linecap="round" stroke-linejoin="round"/>
<path d="M3699.03 2533.03L3475.13 2648.71" stroke="#92E3A9" stroke-linecap="round" stroke-linejoin="round"/>
<path d="M3579.65 2600.15L3661.7 2596.45" stroke="#92E3A9" stroke-linecap="round" stroke-linejoin="round"/>
<g opacity="0.8">
<path d="M3467.66 2753.16L3501.29 1727.03" stroke="white" stroke-linecap="round" stroke-linejoin="round"/>
<path d="M3486.36 2324.06L3661.7 2159.89" stroke="white" stroke-linecap="round" stroke-linejoin="round"/>
<path d="M3568.42 2249.41L3605.74 2144.96" stroke="white" stroke-linecap="round" stroke-linejoin="round"/>
<path d="M3340.82 2450.91L3475.13 2596.45" stroke="white" stroke-linecap="round" stroke-linejoin="round"/>
<path d="M3699.03 2533.03L3475.13 2648.71" stroke="white" stroke-linecap="round" stroke-linejoin="round"/>
<path d="M3579.65 2600.15L3661.7 2596.45" stroke="white" stroke-linecap="round" stroke-linejoin="round"/>
</g>
<path d="M2826.71 2545.81C2826.71 2650.12 2909.37 2734.73 2909.37 2734.73C2909.37 2734.73 2992.03 2650.12 2992.03 2545.81C2992.03 2441.49 2909.37 2356.88 2909.37 2356.88C2909.37 2356.88 2826.71 2441.42 2826.71 2545.81Z" fill="#92E3A9"/>
<path d="M2769.41 2706.75C2809.76 2752.02 2877.96 2756.92 2877.96 2756.92C2877.96 2756.92 2881.26 2688.39 2841.17 2643.13C2801.09 2597.86 2732.62 2592.95 2732.62 2592.95C2732.62 2592.95 2729.26 2661.49 2769.41 2706.75Z" fill="#92E3A9"/>
<path d="M2980.06 2641.58C2937.89 2684.96 2938.16 2753.56 2938.16 2753.56C2938.16 2753.56 3006.69 2751.75 3048.79 2708.3C3090.89 2664.85 3090.76 2596.32 3090.76 2596.32C3090.76 2596.32 3022.16 2598.13 2980.06 2641.58Z" fill="#92E3A9"/>
<g opacity="0.5">
<path d="M2826.71 2545.81C2826.71 2650.12 2909.37 2734.73 2909.37 2734.73C2909.37 2734.73 2992.03 2650.12 2992.03 2545.81C2992.03 2441.49 2909.37 2356.88 2909.37 2356.88C2909.37 2356.88 2826.71 2441.43 2826.71 2545.81Z" fill="white"/>
<path d="M2909.37 2734.73V2356.88" stroke="white" stroke-linecap="round" stroke-linejoin="round"/>
<path d="M2909.37 2491.19L2863.1 2450.77" stroke="white" stroke-linecap="round" stroke-linejoin="round"/>
<path d="M2910.11 2553.61L2967.41 2470.61" stroke="white" stroke-linecap="round" stroke-linejoin="round"/>
<path d="M2909.37 2589.59L2841.04 2528.66" stroke="white" stroke-linecap="round" stroke-linejoin="round"/>
<path d="M2910.11 2638.08L2977.7 2577.89" stroke="white" stroke-linecap="round" stroke-linejoin="round"/>
<path d="M2910.11 2679.98L2857.18 2638.08" stroke="white" stroke-linecap="round" stroke-linejoin="round"/>
<path d="M2769.41 2706.75C2809.76 2752.02 2877.96 2756.93 2877.96 2756.93C2877.96 2756.93 2881.26 2688.39 2841.17 2643.13C2801.09 2597.86 2732.62 2592.95 2732.62 2592.95C2732.62 2592.95 2729.26 2661.49 2769.41 2706.75Z" fill="white"/>
<path d="M2877.96 2756.92L2732.62 2592.95" stroke="white" stroke-linecap="round" stroke-linejoin="round"/>
<path d="M2784.27 2651.27L2748.63 2651.53" stroke="white" stroke-linecap="round" stroke-linejoin="round"/>
<path d="M2808.62 2678.03L2801.56 2619.99" stroke="white" stroke-linecap="round" stroke-linejoin="round"/>
<path d="M2822.14 2693.97L2769.07 2693.77" stroke="white" stroke-linecap="round" stroke-linejoin="round"/>
<path d="M2841.1 2714.69L2847.22 2662.56" stroke="white" stroke-linecap="round" stroke-linejoin="round"/>
<path d="M2857.25 2732.85L2818.17 2735.07" stroke="white" stroke-linecap="round" stroke-linejoin="round"/>
<path d="M2980.06 2641.58C2937.89 2684.96 2938.15 2753.56 2938.15 2753.56C2938.15 2753.56 3006.69 2751.75 3048.79 2708.3C3090.89 2664.85 3090.76 2596.32 3090.76 2596.32C3090.76 2596.32 3022.16 2598.13 2980.06 2641.58Z" fill="white"/>
<path d="M2938.15 2753.56L3090.76 2596.32" stroke="white" stroke-linecap="round" stroke-linejoin="round"/>
<path d="M3036.48 2652.21L3033.59 2616.7" stroke="white" stroke-linecap="round" stroke-linejoin="round"/>
<path d="M3011.6 2678.5L3068.97 2667.07" stroke="white" stroke-linecap="round" stroke-linejoin="round"/>
<path d="M2996.74 2693.17L2992.97 2640.24" stroke="white" stroke-linecap="round" stroke-linejoin="round"/>
<path d="M2977.43 2713.61L3029.89 2715.9" stroke="white" stroke-linecap="round" stroke-linejoin="round"/>
<path d="M2960.55 2731.03L2955.44 2692.29" stroke="white" stroke-linecap="round" stroke-linejoin="round"/>
</g>
<path d="M2909.37 2734.73V2356.88" stroke="#92E3A9" stroke-linecap="round" stroke-linejoin="round"/>
<path d="M2909.37 2491.19L2863.1 2450.77" stroke="#92E3A9" stroke-linecap="round" stroke-linejoin="round"/>
<path d="M2910.11 2553.61L2967.41 2470.61" stroke="#92E3A9" stroke-linecap="round" stroke-linejoin="round"/>
<path d="M2909.37 2589.59L2841.04 2528.66" stroke="#92E3A9" stroke-linecap="round" stroke-linejoin="round"/>
<path d="M2910.11 2638.08L2977.7 2577.89" stroke="#92E3A9" stroke-linecap="round" stroke-linejoin="round"/>
<path d="M2910.11 2679.98L2857.18 2638.08" stroke="#92E3A9" stroke-linecap="round" stroke-linejoin="round"/>
<g opacity="0.7">
<path d="M2909.37 2734.73V2356.88" stroke="white" stroke-linecap="round" stroke-linejoin="round"/>
<path d="M2909.37 2491.19L2863.1 2450.77" stroke="white" stroke-linecap="round" stroke-linejoin="round"/>
<path d="M2910.11 2553.61L2967.41 2470.61" stroke="white" stroke-linecap="round" stroke-linejoin="round"/>
<path d="M2909.37 2589.59L2841.04 2528.66" stroke="white" stroke-linecap="round" stroke-linejoin="round"/>
<path d="M2910.11 2638.08L2977.7 2577.89" stroke="white" stroke-linecap="round" stroke-linejoin="round"/>
<path d="M2910.11 2679.98L2857.18 2638.08" stroke="white" stroke-linecap="round" stroke-linejoin="round"/>
</g>
<path d="M2877.96 2756.92L2732.62 2592.95" stroke="#92E3A9" stroke-linecap="round" stroke-linejoin="round"/>
<path d="M2784.27 2651.27L2748.63 2651.53" stroke="#92E3A9" stroke-linecap="round" stroke-linejoin="round"/>
<path d="M2808.62 2678.03L2801.56 2619.99" stroke="#92E3A9" stroke-linecap="round" stroke-linejoin="round"/>
<path d="M2822.14 2693.97L2769.07 2693.77" stroke="#92E3A9" stroke-linecap="round" stroke-linejoin="round"/>
<path d="M2841.1 2714.69L2847.22 2662.56" stroke="#92E3A9" stroke-linecap="round" stroke-linejoin="round"/>
<path d="M2857.25 2732.85L2818.17 2735.07" stroke="#92E3A9" stroke-linecap="round" stroke-linejoin="round"/>
<g opacity="0.7">
<path d="M2877.96 2756.92L2732.62 2592.95" stroke="white" stroke-linecap="round" stroke-linejoin="round"/>
<path d="M2784.27 2651.27L2748.63 2651.53" stroke="white" stroke-linecap="round" stroke-linejoin="round"/>
<path d="M2808.62 2678.03L2801.56 2619.99" stroke="white" stroke-linecap="round" stroke-linejoin="round"/>
<path d="M2822.14 2693.97L2769.07 2693.77" stroke="white" stroke-linecap="round" stroke-linejoin="round"/>
<path d="M2841.1 2714.69L2847.22 2662.56" stroke="white" stroke-linecap="round" stroke-linejoin="round"/>
<path d="M2857.25 2732.85L2818.17 2735.07" stroke="white" stroke-linecap="round" stroke-linejoin="round"/>
</g>
<path d="M2938.16 2753.56L3090.76 2596.32" stroke="#92E3A9" stroke-linecap="round" stroke-linejoin="round"/>
<path d="M3036.48 2652.21L3033.59 2616.7" stroke="#92E3A9" stroke-linecap="round" stroke-linejoin="round"/>
<path d="M3011.6 2678.5L3068.97 2667.07" stroke="#92E3A9" stroke-linecap="round" stroke-linejoin="round"/>
<path d="M2996.74 2693.17L2992.97 2640.23" stroke="#92E3A9" stroke-linecap="round" stroke-linejoin="round"/>
<path d="M2977.43 2713.61L3029.89 2715.9" stroke="#92E3A9" stroke-linecap="round" stroke-linejoin="round"/>
<path d="M2960.55 2731.03L2955.44 2692.29" stroke="#92E3A9" stroke-linecap="round" stroke-linejoin="round"/>
<g opacity="0.7">
<path d="M2938.16 2753.56L3090.76 2596.32" stroke="white" stroke-linecap="round" stroke-linejoin="round"/>
<path d="M3036.48 2652.21L3033.59 2616.7" stroke="white" stroke-linecap="round" stroke-linejoin="round"/>
<path d="M3011.6 2678.5L3068.97 2667.07" stroke="white" stroke-linecap="round" stroke-linejoin="round"/>
<path d="M2996.74 2693.17L2992.97 2640.24" stroke="white" stroke-linecap="round" stroke-linejoin="round"/>
<path d="M2977.43 2713.61L3029.89 2715.9" stroke="white" stroke-linecap="round" stroke-linejoin="round"/>
<path d="M2960.55 2731.03L2955.44 2692.29" stroke="white" stroke-linecap="round" stroke-linejoin="round"/>
</g>
<path d="M196.245 1812.91C198.465 1728.91 192.008 1585.65 265.654 1526.67C330.355 1474.88 380.662 1545.17 398.754 1601.86C442.807 1739.4 422.092 1891.07 422.025 2033.04C422.025 2035.2 422.025 2037.35 422.025 2039.77C425.522 2144.29 438.032 2257.34 426.666 2361.66C426.666 2361.66 437.83 2257.14 519.95 2301.94C602.07 2346.73 478.857 2581.79 478.857 2581.79C478.857 2581.79 575.908 2510.9 620.701 2570.62C665.493 2630.35 564.878 2697.2 564.878 2697.2C564.878 2697.2 658.162 2671.11 658.162 2697.2C658.162 2723.3 628.3 2745.69 542.481 2756.92H79.6898C79.6898 2756.92 5.03522 2715.83 19.9662 2671.11C34.8971 2626.38 113.251 2652.41 113.251 2652.41C113.251 2652.41 -6.12937 2506.87 1.33609 2443.44C8.80156 2380.02 161.81 2454.67 161.81 2454.67C161.81 2454.67 42.3625 2152.42 64.7589 2018.31C82.3801 1912.52 164.567 1984.69 209.226 2025.58C198.708 1955.2 194.365 1884.04 196.245 1812.91Z" fill="#92E3A9" stroke="white" stroke-linecap="round" stroke-linejoin="round"/>
<path opacity="0.5" d="M196.245 1812.91C198.465 1728.91 192.008 1585.65 265.654 1526.67C330.355 1474.88 380.662 1545.17 398.754 1601.86C442.807 1739.4 422.092 1891.07 422.025 2033.04C422.025 2035.2 422.025 2037.35 422.025 2039.77C425.522 2144.29 438.032 2257.34 426.666 2361.66C426.666 2361.66 437.83 2257.14 519.95 2301.94C602.07 2346.73 478.857 2581.79 478.857 2581.79C478.857 2581.79 575.908 2510.9 620.701 2570.62C665.493 2630.35 564.878 2697.2 564.878 2697.2C564.878 2697.2 658.162 2671.11 658.162 2697.2C658.162 2723.3 628.3 2745.69 542.481 2756.92H79.6898C79.6898 2756.92 5.03522 2715.83 19.9662 2671.11C34.8971 2626.38 113.251 2652.41 113.251 2652.41C113.251 2652.41 -6.12937 2506.87 1.33609 2443.44C8.80156 2380.02 161.81 2454.67 161.81 2454.67C161.81 2454.67 42.3625 2152.42 64.7589 2018.31C82.3801 1912.52 164.567 1984.69 209.226 2025.58C198.708 1955.2 194.365 1884.04 196.245 1812.91Z" fill="white"/>
<path d="M344.613 2753.16L311.052 1727.03" stroke="white" stroke-linecap="round" stroke-linejoin="round"/>
<path d="M325.982 2324.06L150.578 2159.89" stroke="white" stroke-linecap="round" stroke-linejoin="round"/>
<path d="M243.863 2249.41L206.536 2144.96" stroke="white" stroke-linecap="round" stroke-linejoin="round"/>
<path d="M471.459 2450.91L337.147 2596.45" stroke="white" stroke-linecap="round" stroke-linejoin="round"/>
<path d="M113.251 2533.03L337.148 2648.71" stroke="white" stroke-linecap="round" stroke-linejoin="round"/>
<path d="M232.698 2600.15L150.578 2596.45" stroke="white" stroke-linecap="round" stroke-linejoin="round"/>
<path d="M344.613 2753.16L311.052 1727.03" stroke="#92E3A9" stroke-linecap="round" stroke-linejoin="round"/>
<path d="M325.982 2324.06L150.578 2159.89" stroke="#92E3A9" stroke-linecap="round" stroke-linejoin="round"/>
<path d="M243.863 2249.41L206.536 2144.96" stroke="#92E3A9" stroke-linecap="round" stroke-linejoin="round"/>
<path d="M471.459 2450.91L337.147 2596.45" stroke="#92E3A9" stroke-linecap="round" stroke-linejoin="round"/>
<path d="M113.251 2533.03L337.148 2648.71" stroke="#92E3A9" stroke-linecap="round" stroke-linejoin="round"/>
<path d="M232.698 2600.15L150.578 2596.45" stroke="#92E3A9" stroke-linecap="round" stroke-linejoin="round"/>
<g opacity="0.8">
<path d="M344.613 2753.16L311.052 1727.03" stroke="white" stroke-linecap="round" stroke-linejoin="round"/>
<path d="M325.983 2324.06L150.578 2159.89" stroke="white" stroke-linecap="round" stroke-linejoin="round"/>
<path d="M243.863 2249.41L206.536 2144.96" stroke="white" stroke-linecap="round" stroke-linejoin="round"/>
<path d="M471.459 2450.91L337.147 2596.45" stroke="white" stroke-linecap="round" stroke-linejoin="round"/>
<path d="M113.251 2533.03L337.148 2648.71" stroke="white" stroke-linecap="round" stroke-linejoin="round"/>
<path d="M232.698 2600.15L150.578 2596.45" stroke="white" stroke-linecap="round" stroke-linejoin="round"/>
</g>
<path d="M999.085 2545.81C999.085 2650.12 916.427 2734.73 916.427 2734.73C916.427 2734.73 833.903 2650.12 833.903 2545.81C833.903 2441.49 916.561 2356.88 916.561 2356.88C916.561 2356.88 999.085 2441.42 999.085 2545.81Z" fill="#92E3A9"/>
<path d="M1056.32 2706.75C1015.97 2752.02 947.769 2756.92 947.769 2756.92C947.769 2756.92 944.473 2688.39 984.625 2643.13C1024.78 2597.86 1093.18 2592.95 1093.18 2592.95C1093.18 2592.95 1096.2 2661.49 1056.32 2706.75Z" fill="#92E3A9"/>
<path d="M845.741 2641.58C887.843 2684.96 887.641 2753.56 887.641 2753.56C887.641 2753.56 819.107 2751.75 776.937 2708.3C734.768 2664.85 735.037 2596.32 735.037 2596.32C735.037 2596.32 803.571 2598.13 845.741 2641.58Z" fill="#92E3A9"/>
<g opacity="0.5">
<path d="M999.085 2545.81C999.085 2650.12 916.427 2734.73 916.427 2734.73C916.427 2734.73 833.903 2650.12 833.903 2545.81C833.903 2441.49 916.561 2356.88 916.561 2356.88C916.561 2356.88 999.085 2441.43 999.085 2545.81Z" fill="white"/>
<path d="M916.427 2734.73V2356.88" stroke="white" stroke-linecap="round" stroke-linejoin="round"/>
<path d="M916.427 2491.19L962.699 2450.77" stroke="white" stroke-linecap="round" stroke-linejoin="round"/>
<path d="M915.687 2553.61L858.385 2470.61" stroke="white" stroke-linecap="round" stroke-linejoin="round"/>
<path d="M916.427 2589.59L984.759 2528.66" stroke="white" stroke-linecap="round" stroke-linejoin="round"/>
<path d="M915.687 2638.08L848.095 2577.89" stroke="white" stroke-linecap="round" stroke-linejoin="round"/>
<path d="M915.687 2679.98L968.551 2638.08" stroke="white" stroke-linecap="round" stroke-linejoin="round"/>
<path d="M1056.32 2706.75C1015.97 2752.02 947.768 2756.93 947.768 2756.93C947.768 2756.93 944.473 2688.39 984.625 2643.13C1024.78 2597.86 1093.18 2592.95 1093.18 2592.95C1093.18 2592.95 1096.2 2661.49 1056.32 2706.75Z" fill="white"/>
<path d="M947.769 2756.92L1093.18 2592.95" stroke="white" stroke-linecap="round" stroke-linejoin="round"/>
<path d="M1041.52 2651.27L1077.1 2651.53" stroke="white" stroke-linecap="round" stroke-linejoin="round"/>
<path d="M1017.18 2678.03L1024.24 2619.99" stroke="white" stroke-linecap="round" stroke-linejoin="round"/>
<path d="M1003.59 2693.97L1056.72 2693.77" stroke="white" stroke-linecap="round" stroke-linejoin="round"/>
<path d="M984.625 2714.69L978.505 2662.56" stroke="white" stroke-linecap="round" stroke-linejoin="round"/>
<path d="M968.551 2732.85L1007.63 2735.07" stroke="white" stroke-linecap="round" stroke-linejoin="round"/>
<path d="M845.741 2641.58C887.843 2684.96 887.641 2753.56 887.641 2753.56C887.641 2753.56 819.107 2751.75 776.937 2708.3C734.768 2664.85 735.037 2596.32 735.037 2596.32C735.037 2596.32 803.571 2598.13 845.741 2641.58Z" fill="white"/>
<path d="M887.641 2753.56L735.037 2596.32" stroke="white" stroke-linecap="round" stroke-linejoin="round"/>
<path d="M789.245 2652.21L792.204 2616.7" stroke="white" stroke-linecap="round" stroke-linejoin="round"/>
<path d="M814.197 2678.5L756.828 2667.07" stroke="white" stroke-linecap="round" stroke-linejoin="round"/>
<path d="M828.994 2693.17L832.827 2640.24" stroke="white" stroke-linecap="round" stroke-linejoin="round"/>
<path d="M848.296 2713.61L795.836 2715.9" stroke="white" stroke-linecap="round" stroke-linejoin="round"/>
<path d="M865.245 2731.03L870.289 2692.29" stroke="white" stroke-linecap="round" stroke-linejoin="round"/>
</g>
<path d="M916.427 2734.73V2356.88" stroke="#92E3A9" stroke-linecap="round" stroke-linejoin="round"/>
<path d="M916.427 2491.19L962.699 2450.77" stroke="#92E3A9" stroke-linecap="round" stroke-linejoin="round"/>
<path d="M915.687 2553.61L858.385 2470.61" stroke="#92E3A9" stroke-linecap="round" stroke-linejoin="round"/>
<path d="M916.427 2589.59L984.759 2528.66" stroke="#92E3A9" stroke-linecap="round" stroke-linejoin="round"/>
<path d="M915.687 2638.08L848.095 2577.89" stroke="#92E3A9" stroke-linecap="round" stroke-linejoin="round"/>
<path d="M915.687 2679.98L968.551 2638.08" stroke="#92E3A9" stroke-linecap="round" stroke-linejoin="round"/>
<g opacity="0.7">
<path d="M916.427 2734.73V2356.88" stroke="white" stroke-linecap="round" stroke-linejoin="round"/>
<path d="M916.427 2491.19L962.7 2450.77" stroke="white" stroke-linecap="round" stroke-linejoin="round"/>
<path d="M915.687 2553.61L858.385 2470.61" stroke="white" stroke-linecap="round" stroke-linejoin="round"/>
<path d="M916.427 2589.59L984.76 2528.66" stroke="white" stroke-linecap="round" stroke-linejoin="round"/>
<path d="M915.687 2638.08L848.095 2577.89" stroke="white" stroke-linecap="round" stroke-linejoin="round"/>
<path d="M915.687 2679.98L968.551 2638.08" stroke="white" stroke-linecap="round" stroke-linejoin="round"/>
</g>
<path d="M947.769 2756.92L1093.18 2592.95" stroke="#92E3A9" stroke-linecap="round" stroke-linejoin="round"/>
<path d="M1041.52 2651.27L1077.1 2651.53" stroke="#92E3A9" stroke-linecap="round" stroke-linejoin="round"/>
<path d="M1017.18 2678.03L1024.24 2619.99" stroke="#92E3A9" stroke-linecap="round" stroke-linejoin="round"/>
<path d="M1003.59 2693.97L1056.72 2693.77" stroke="#92E3A9" stroke-linecap="round" stroke-linejoin="round"/>
<path d="M984.625 2714.69L978.505 2662.56" stroke="#92E3A9" stroke-linecap="round" stroke-linejoin="round"/>
<path d="M968.551 2732.85L1007.63 2735.07" stroke="#92E3A9" stroke-linecap="round" stroke-linejoin="round"/>
<g opacity="0.7">
<path d="M947.769 2756.92L1093.18 2592.95" stroke="white" stroke-linecap="round" stroke-linejoin="round"/>
<path d="M1041.52 2651.27L1077.1 2651.53" stroke="white" stroke-linecap="round" stroke-linejoin="round"/>
<path d="M1017.18 2678.03L1024.24 2619.99" stroke="white" stroke-linecap="round" stroke-linejoin="round"/>
<path d="M1003.59 2693.97L1056.72 2693.77" stroke="white" stroke-linecap="round" stroke-linejoin="round"/>
<path d="M984.625 2714.69L978.505 2662.56" stroke="white" stroke-linecap="round" stroke-linejoin="round"/>
<path d="M968.551 2732.85L1007.63 2735.07" stroke="white" stroke-linecap="round" stroke-linejoin="round"/>
</g>
<path d="M887.641 2753.56L735.037 2596.32" stroke="#92E3A9" stroke-linecap="round" stroke-linejoin="round"/>
<path d="M789.245 2652.21L792.204 2616.7" stroke="#92E3A9" stroke-linecap="round" stroke-linejoin="round"/>
<path d="M814.197 2678.5L756.827 2667.07" stroke="#92E3A9" stroke-linecap="round" stroke-linejoin="round"/>
<path d="M828.994 2693.17L832.827 2640.23" stroke="#92E3A9" stroke-linecap="round" stroke-linejoin="round"/>
<path d="M848.296 2713.61L795.836 2715.9" stroke="#92E3A9" stroke-linecap="round" stroke-linejoin="round"/>
<path d="M865.245 2731.03L870.289 2692.29" stroke="#92E3A9" stroke-linecap="round" stroke-linejoin="round"/>
<g opacity="0.7">
<path d="M887.641 2753.56L735.037 2596.32" stroke="white" stroke-linecap="round" stroke-linejoin="round"/>
<path d="M789.245 2652.21L792.204 2616.7" stroke="white" stroke-linecap="round" stroke-linejoin="round"/>
<path d="M814.197 2678.5L756.828 2667.07" stroke="white" stroke-linecap="round" stroke-linejoin="round"/>
<path d="M828.994 2693.17L832.827 2640.24" stroke="white" stroke-linecap="round" stroke-linejoin="round"/>
<path d="M848.296 2713.61L795.836 2715.9" stroke="white" stroke-linecap="round" stroke-linejoin="round"/>
<path d="M865.245 2731.03L870.289 2692.29" stroke="white" stroke-linecap="round" stroke-linejoin="round"/>
</g>
<path d="M2860.88 758.064H1042.73C1042.19 758.073 1041.65 757.973 1041.14 757.771C1040.64 757.569 1040.18 757.268 1039.79 756.886C1039.4 756.504 1039.09 756.049 1038.88 755.547C1038.67 755.045 1038.56 754.506 1038.56 753.961C1038.56 752.855 1039 751.795 1039.79 751.013C1040.57 750.231 1041.63 749.791 1042.73 749.791H2860.88C2861.42 749.791 2861.96 749.9 2862.46 750.11C2862.97 750.32 2863.42 750.628 2863.8 751.017C2864.18 751.405 2864.49 751.865 2864.69 752.371C2864.89 752.876 2864.99 753.417 2864.98 753.961C2864.98 755.049 2864.55 756.093 2863.78 756.862C2863.01 757.632 2861.97 758.064 2860.88 758.064Z" fill="#92E3A9"/>
<g opacity="0.3">
<path d="M2860.88 758.064H1042.73C1042.19 758.073 1041.65 757.973 1041.14 757.771C1040.64 757.569 1040.18 757.268 1039.79 756.886C1039.4 756.504 1039.09 756.049 1038.88 755.547C1038.67 755.045 1038.56 754.506 1038.56 753.961C1038.56 752.855 1039 751.795 1039.79 751.013C1040.57 750.231 1041.63 749.791 1042.73 749.791H2860.88C2861.42 749.791 2861.96 749.9 2862.46 750.11C2862.97 750.32 2863.42 750.628 2863.8 751.017C2864.18 751.405 2864.49 751.865 2864.69 752.371C2864.89 752.876 2864.99 753.417 2864.98 753.961C2864.98 755.049 2864.55 756.093 2863.78 756.862C2863.01 757.632 2861.97 758.064 2860.88 758.064Z" fill="white"/>
</g>
<path d="M2857.25 1479.19H1039.1C1038.56 1479.2 1038.02 1479.1 1037.51 1478.89C1037.01 1478.69 1036.55 1478.39 1036.16 1478.01C1035.77 1477.63 1035.46 1477.17 1035.25 1476.67C1035.04 1476.17 1034.93 1475.63 1034.93 1475.08C1034.93 1473.98 1035.37 1472.92 1036.15 1472.14C1036.94 1471.35 1038 1470.91 1039.1 1470.91H2857.25C2857.79 1470.91 2858.33 1471.02 2858.83 1471.23C2859.33 1471.44 2859.79 1471.75 2860.17 1472.14C2860.55 1472.53 2860.85 1472.99 2861.06 1473.49C2861.26 1474 2861.36 1474.54 2861.35 1475.08C2861.35 1475.62 2861.24 1476.16 2861.04 1476.65C2860.83 1477.15 2860.53 1477.6 2860.15 1477.99C2859.77 1478.37 2859.31 1478.67 2858.82 1478.88C2858.32 1479.08 2857.78 1479.19 2857.25 1479.19Z" fill="#92E3A9"/>
<g opacity="0.3">
<path d="M2857.25 1479.19H1039.1C1038.56 1479.2 1038.02 1479.1 1037.51 1478.89C1037.01 1478.69 1036.55 1478.39 1036.16 1478.01C1035.77 1477.63 1035.46 1477.17 1035.25 1476.67C1035.04 1476.17 1034.93 1475.63 1034.93 1475.08C1034.93 1473.98 1035.37 1472.92 1036.15 1472.14C1036.94 1471.35 1038 1470.91 1039.1 1470.91H2857.25C2857.79 1470.91 2858.33 1471.02 2858.83 1471.23C2859.33 1471.44 2859.79 1471.75 2860.17 1472.14C2860.55 1472.53 2860.85 1472.99 2861.06 1473.49C2861.26 1474 2861.36 1474.54 2861.35 1475.08C2861.35 1475.62 2861.24 1476.16 2861.04 1476.65C2860.83 1477.15 2860.53 1477.6 2860.15 1477.99C2859.77 1478.37 2859.31 1478.67 2858.82 1478.88C2858.32 1479.08 2857.78 1479.19 2857.25 1479.19Z" fill="white"/>
</g>
<path d="M2857.25 2068.69H1039.1C1038 2068.69 1036.94 2068.25 1036.15 2067.47C1035.37 2066.69 1034.93 2065.63 1034.93 2064.52C1034.93 2063.98 1035.04 2063.44 1035.25 2062.93C1035.46 2062.43 1035.77 2061.98 1036.16 2061.59C1036.55 2061.21 1037.01 2060.91 1037.51 2060.71C1038.02 2060.51 1038.56 2060.41 1039.1 2060.42H2857.25C2857.78 2060.42 2858.32 2060.52 2858.82 2060.73C2859.31 2060.94 2859.77 2061.24 2860.15 2061.62C2860.53 2062 2860.83 2062.45 2861.04 2062.95C2861.24 2063.45 2861.35 2063.98 2861.35 2064.52C2861.36 2065.06 2861.26 2065.6 2861.06 2066.11C2860.85 2066.62 2860.55 2067.08 2860.17 2067.46C2859.79 2067.85 2859.33 2068.16 2858.83 2068.37C2858.33 2068.58 2857.79 2068.69 2857.25 2068.69Z" fill="#92E3A9"/>
<g opacity="0.3">
<path d="M2857.25 2068.69H1039.1C1038 2068.69 1036.94 2068.25 1036.15 2067.47C1035.37 2066.69 1034.93 2065.63 1034.93 2064.52C1034.93 2063.98 1035.04 2063.44 1035.25 2062.93C1035.46 2062.43 1035.77 2061.98 1036.16 2061.59C1036.55 2061.21 1037.01 2060.91 1037.51 2060.71C1038.02 2060.51 1038.56 2060.41 1039.1 2060.42H2857.25C2857.78 2060.42 2858.32 2060.52 2858.82 2060.73C2859.31 2060.94 2859.77 2061.24 2860.15 2061.62C2860.53 2062 2860.83 2062.45 2861.04 2062.95C2861.24 2063.45 2861.35 2063.98 2861.35 2064.52C2861.36 2065.06 2861.26 2065.6 2861.06 2066.11C2860.85 2066.62 2860.55 2067.08 2860.17 2067.46C2859.79 2067.85 2859.33 2068.16 2858.83 2068.37C2858.33 2068.58 2857.79 2068.69 2857.25 2068.69Z" fill="white"/>
</g>
<path d="M1425.63 2168.43V2781.94" stroke="#263238" stroke-width="0.265171" stroke-miterlimit="10"/>
<path d="M1513.26 2168.43V2781.94" stroke="#263238" stroke-width="0.265171" stroke-miterlimit="10"/>
<path d="M1600.9 2168.43V2781.94" stroke="#263238" stroke-width="0.265171" stroke-miterlimit="10"/>
<path d="M1688.53 2168.43V2781.94" stroke="#263238" stroke-width="0.265171" stroke-miterlimit="10"/>
<path d="M1776.17 2168.43V2781.94" stroke="#263238" stroke-width="0.265171" stroke-miterlimit="10"/>
<path d="M1863.8 2168.43V2781.94" stroke="#263238" stroke-width="0.265171" stroke-miterlimit="10"/>
<path d="M1951.44 2168.43V2781.94" stroke="#263238" stroke-width="0.265171" stroke-miterlimit="10"/>
<path d="M2039.07 2168.43V2781.94" stroke="#263238" stroke-width="0.265171" stroke-miterlimit="10"/>
<path d="M2126.71 2168.43V2781.94" stroke="#263238" stroke-width="0.265171" stroke-miterlimit="10"/>
<path d="M2214.34 2168.43V2781.94" stroke="#263238" stroke-width="0.265171" stroke-miterlimit="10"/>
<path d="M2301.98 2168.43V2781.94" stroke="#263238" stroke-width="0.265171" stroke-miterlimit="10"/>
<path d="M2389.61 2168.43V2781.94" stroke="#263238" stroke-width="0.265171" stroke-miterlimit="10"/>
<path d="M1430 2225.4H2385.24" stroke="#263238" stroke-width="0.265171" stroke-miterlimit="10"/>
<path d="M1430 2308.66H2385.24" stroke="#263238" stroke-width="0.265171" stroke-miterlimit="10"/>
<path d="M1430 2391.92H2385.24" stroke="#263238" stroke-width="0.265171" stroke-miterlimit="10"/>
<path d="M1430 2475.19H2385.24" stroke="#263238" stroke-width="0.265171" stroke-miterlimit="10"/>
<path d="M1430 2558.45H2385.24" stroke="#263238" stroke-width="0.265171" stroke-miterlimit="10"/>
<path d="M1430 2641.71H2385.24" stroke="#263238" stroke-width="0.265171" stroke-miterlimit="10"/>
<path d="M1430 2724.98H2385.24" stroke="#263238" stroke-width="0.265171" stroke-miterlimit="10"/>
<path d="M1630.69 2383.65L1502.5 2778.85H1770.99L1642.73 2383.65C1642.32 2382.38 1641.52 2381.27 1640.43 2380.48C1639.35 2379.69 1638.05 2379.26 1636.71 2379.26C1635.37 2379.26 1634.07 2379.69 1632.98 2380.48C1631.9 2381.27 1631.1 2382.38 1630.69 2383.65Z" fill="#92E3A9" stroke="#263238" stroke-width="1.06068" stroke-miterlimit="10"/>
<path d="M1875.1 2252.77L1704.47 2778.85H2057.97L1887.14 2252.77C1886.73 2251.5 1885.93 2250.38 1884.84 2249.6C1883.76 2248.81 1882.46 2248.38 1881.12 2248.38C1879.78 2248.38 1878.48 2248.81 1877.39 2249.6C1876.31 2250.38 1875.51 2251.5 1875.1 2252.77Z" fill="#263238" stroke="#263238" stroke-width="1.06068" stroke-miterlimit="10"/>
<path d="M2100.01 2474.04L2001.07 2778.85H2210.91L2111.78 2474.04C2111.31 2472.86 2110.5 2471.85 2109.45 2471.13C2108.4 2470.42 2107.16 2470.03 2105.89 2470.03C2104.62 2470.03 2103.38 2470.42 2102.33 2471.13C2101.28 2471.85 2100.47 2472.86 2100.01 2474.04Z" fill="#92E3A9" stroke="#263238" stroke-width="1.06068" stroke-miterlimit="10"/>
<path d="M2235.53 2578.7L2170.62 2778.85H2312.47L2247.57 2578.7C2247.16 2577.42 2246.35 2576.31 2245.27 2575.52C2244.19 2574.73 2242.89 2574.31 2241.55 2574.31C2240.21 2574.31 2238.9 2574.73 2237.82 2575.52C2236.74 2576.31 2235.94 2577.42 2235.53 2578.7Z" fill="#263238" stroke="#263238" stroke-width="1.06068" stroke-miterlimit="10"/>
<path d="M1414.06 1974.53C1375.6 1974.53 1338.01 1963.13 1306.03 1941.76C1274.06 1920.4 1249.14 1890.03 1234.42 1854.5C1219.7 1818.97 1215.85 1779.88 1223.36 1742.16C1230.86 1704.44 1249.38 1669.8 1276.57 1642.6C1303.76 1615.41 1338.41 1596.89 1376.12 1589.39C1413.84 1581.89 1452.94 1585.74 1488.47 1600.45C1523.99 1615.17 1554.36 1640.09 1575.73 1672.07C1597.09 1704.04 1608.5 1741.64 1608.5 1780.09C1608.44 1831.64 1587.94 1881.07 1551.49 1917.52C1515.03 1953.97 1465.61 1974.48 1414.06 1974.53ZM1414.06 1642.76C1386.9 1642.77 1360.35 1650.83 1337.77 1665.93C1315.2 1681.03 1297.61 1702.49 1287.22 1727.58C1276.84 1752.68 1274.13 1780.29 1279.43 1806.93C1284.74 1833.56 1297.83 1858.03 1317.04 1877.23C1336.25 1896.43 1360.72 1909.5 1387.36 1914.8C1414 1920.09 1441.61 1917.37 1466.7 1906.97C1491.79 1896.57 1513.23 1878.97 1528.32 1856.39C1543.41 1833.8 1551.46 1807.25 1551.46 1780.09C1551.43 1743.67 1536.94 1708.75 1511.17 1683C1485.41 1657.25 1450.48 1642.77 1414.06 1642.76Z" fill="#263238" stroke="#263238" stroke-width="1.06068" stroke-miterlimit="10"/>
<path d="M1414.06 1974.53C1387.82 1974.61 1361.83 1969.34 1337.7 1959.04C1313.56 1948.73 1291.79 1933.61 1273.69 1914.61L1314.92 1875.13C1327.7 1888.55 1343.08 1899.23 1360.12 1906.51C1377.17 1913.78 1395.52 1917.5 1414.06 1917.43C1432.09 1917.43 1449.95 1913.88 1466.61 1906.98C1483.28 1900.07 1498.42 1889.96 1511.17 1877.2C1523.92 1864.45 1534.04 1849.31 1540.94 1832.65C1547.84 1815.99 1551.39 1798.13 1551.39 1780.09C1551.39 1762.06 1547.84 1744.2 1540.94 1727.54C1534.04 1710.87 1523.92 1695.73 1511.17 1682.98C1498.42 1670.23 1483.28 1660.11 1466.61 1653.21C1449.95 1646.31 1432.09 1642.75 1414.06 1642.75V1585.65C1439.59 1585.65 1464.88 1590.68 1488.47 1600.45C1512.06 1610.23 1533.49 1624.55 1551.55 1642.6C1569.6 1660.66 1583.92 1682.09 1593.7 1705.68C1603.47 1729.27 1608.5 1754.56 1608.5 1780.09C1608.5 1805.63 1603.47 1830.91 1593.7 1854.5C1583.92 1878.09 1569.6 1899.53 1551.55 1917.58C1533.49 1935.64 1512.06 1949.96 1488.47 1959.73C1464.88 1969.5 1439.59 1974.53 1414.06 1974.53Z" fill="#92E3A9" stroke="#263238" stroke-width="1.06068" stroke-miterlimit="10"/>
<path d="M1893.6 1974.53C1855.14 1974.54 1817.54 1963.15 1785.55 1941.79C1753.57 1920.44 1728.64 1890.08 1713.91 1854.55C1699.18 1819.02 1695.32 1779.92 1702.82 1742.2C1710.31 1704.48 1728.83 1669.83 1756.02 1642.63C1783.21 1615.43 1817.85 1596.9 1855.57 1589.4C1893.29 1581.89 1932.39 1585.73 1967.92 1600.45C2003.45 1615.16 2033.83 1640.08 2055.19 1672.06C2076.56 1704.04 2087.97 1741.63 2087.97 1780.09C2087.91 1831.63 2067.42 1881.05 2030.98 1917.5C1994.54 1953.95 1945.14 1974.46 1893.6 1974.53ZM1893.6 1642.75C1866.44 1642.78 1839.9 1650.86 1817.33 1665.97C1794.76 1681.07 1777.18 1702.53 1766.81 1727.63C1756.43 1752.73 1753.73 1780.34 1759.05 1806.97C1764.36 1833.6 1777.45 1858.06 1796.67 1877.25C1815.88 1896.45 1840.35 1909.51 1866.99 1914.8C1893.62 1920.09 1921.23 1917.36 1946.32 1906.96C1971.41 1896.56 1992.85 1878.96 2007.93 1856.38C2023.02 1833.8 2031.07 1807.25 2031.07 1780.09C2031.01 1743.66 2016.51 1708.74 1990.74 1682.99C1964.96 1657.24 1930.03 1642.77 1893.6 1642.75Z" fill="#263238" stroke="#263238" stroke-width="1.06068" stroke-miterlimit="10"/>
<path d="M1969.26 1959.2L1947.06 1906.67C1976.23 1894.31 2000.23 1872.24 2015 1844.22C2029.77 1816.19 2034.4 1783.92 2028.11 1752.88C2021.82 1721.83 2004.99 1693.91 1980.48 1673.84C1955.97 1653.77 1925.27 1642.79 1893.6 1642.75V1585.65C1938.46 1585.66 1981.94 1601.18 2016.67 1629.58C2051.4 1657.98 2075.24 1697.52 2084.14 1741.49C2093.05 1785.46 2086.48 1831.16 2065.54 1870.84C2044.6 1910.52 2010.58 1941.73 1969.26 1959.2Z" fill="#92E3A9" stroke="#263238" stroke-width="1.06068" stroke-miterlimit="10"/>
<path d="M2373.07 1974.53C2334.61 1974.53 2297.02 1963.13 2265.04 1941.76C2233.07 1920.4 2208.15 1890.03 2193.43 1854.5C2178.71 1818.97 2174.86 1779.88 2182.36 1742.16C2189.87 1704.44 2208.39 1669.8 2235.58 1642.6C2262.77 1615.41 2297.42 1596.89 2335.13 1589.39C2372.85 1581.89 2411.95 1585.74 2447.48 1600.45C2483 1615.17 2513.37 1640.09 2534.74 1672.07C2556.1 1704.04 2567.51 1741.64 2567.51 1780.09C2567.45 1831.64 2546.95 1881.07 2510.5 1917.52C2474.04 1953.97 2424.62 1974.48 2373.07 1974.53ZM2373.07 1642.75C2345.9 1642.75 2319.35 1650.81 2296.77 1665.9C2274.18 1680.99 2256.58 1702.44 2246.18 1727.54C2235.79 1752.63 2233.07 1780.24 2238.37 1806.89C2243.67 1833.53 2256.75 1858 2275.95 1877.21C2295.16 1896.41 2319.63 1909.49 2346.27 1914.79C2372.91 1920.09 2400.53 1917.37 2425.62 1906.98C2450.72 1896.58 2472.17 1878.98 2487.26 1856.39C2502.35 1833.81 2510.4 1807.26 2510.4 1780.09C2510.37 1743.68 2495.89 1708.77 2470.14 1683.02C2444.39 1657.27 2409.48 1642.79 2373.07 1642.75Z" fill="#263238" stroke="#263238" stroke-width="1.06068" stroke-miterlimit="10"/>
<path d="M2507.71 1752.72C2501.33 1721.73 2484.48 1693.88 2459.98 1673.85C2435.49 1653.83 2404.84 1642.85 2373.2 1642.75V1585.65C2418.01 1585.77 2461.42 1601.31 2496.12 1629.67C2530.82 1658.02 2554.7 1697.46 2563.74 1741.35L2507.71 1752.72Z" fill="#92E3A9" stroke="#263238" stroke-width="1.06068" stroke-miterlimit="10"/>
<path d="M1491.6 1370.37H2404.74" stroke="#263238" stroke-width="1.06068" stroke-miterlimit="10"/>
<path d="M1491.6 1370.37V1350.93" stroke="#263238" stroke-width="1.06068" stroke-miterlimit="10"/>
<path d="M1674.21 1370.37V1350.93" stroke="#263238" stroke-width="1.06068" stroke-miterlimit="10"/>
<path d="M1856.87 1370.37V1350.93" stroke="#263238" stroke-width="1.06068" stroke-miterlimit="10"/>
<path d="M2039.47 1370.37V1350.93" stroke="#263238" stroke-width="1.06068" stroke-miterlimit="10"/>
<path d="M2222.08 1370.37V1350.93" stroke="#263238" stroke-width="1.06068" stroke-miterlimit="10"/>
<path d="M2404.74 1370.37V1350.93" stroke="#263238" stroke-width="1.06068" stroke-miterlimit="10"/>
<path d="M1648.65 1110.82H1517.16V1266.52H1648.65V1110.82Z" fill="#92E3A9" stroke="#263238" stroke-width="1.06068" stroke-miterlimit="10"/>
<path d="M1831.25 929.164H1699.76V1292.48H1831.25V929.164Z" fill="#92E3A9" stroke="#263238" stroke-width="1.06068" stroke-miterlimit="10"/>
<path d="M2013.92 674.868H1882.43V1079.75H2013.92V674.868Z" fill="#92E3A9" stroke="#263238" stroke-width="1.06068" stroke-miterlimit="10"/>
<path d="M2196.52 1053.79H2065.03V1131.67H2196.52V1053.79Z" fill="#92E3A9" stroke="#263238" stroke-width="1.06068" stroke-miterlimit="10"/>
<path d="M2379.12 1007.05H2247.63V1209.49H2379.12V1007.05Z" fill="#92E3A9" stroke="#263238" stroke-width="1.06068" stroke-miterlimit="10"/>
<path d="M1648.65 1266.59H1517.16V1370.43H1648.65V1266.59Z" fill="#263238" stroke="#263238" stroke-width="1.06068" stroke-miterlimit="10"/>
<path d="M1831.25 1292.55H1699.76V1370.43H1831.25V1292.55Z" fill="#263238" stroke="#263238" stroke-width="1.06068" stroke-miterlimit="10"/>
<path d="M2013.92 1079.68H1882.43V1370.37H2013.92V1079.68Z" fill="#263238" stroke="#263238" stroke-width="1.06068" stroke-miterlimit="10"/>
<path d="M2196.52 1131.61H2065.03V1370.37H2196.52V1131.61Z" fill="#263238" stroke="#263238" stroke-width="1.06068" stroke-miterlimit="10"/>
<path d="M2379.12 1209.49H2247.63V1370.37H2379.12V1209.49Z" fill="#263238" stroke="#263238" stroke-width="1.06068" stroke-miterlimit="10"/>
<path d="M2648.08 601.356C2646.5 601.367 2644.94 600.986 2643.54 600.247C2642.15 599.507 2640.95 598.433 2640.07 597.119L2357.19 184.568L2070.21 490.585L1777.17 299.577L1493.69 365.354L1205.76 599.204C1203.77 600.827 1201.21 601.59 1198.64 601.326C1196.08 601.061 1193.73 599.789 1192.11 597.792C1190.49 595.794 1189.72 593.233 1189.99 590.673C1190.25 588.112 1191.53 585.762 1193.52 584.139L1484.95 347.463L1780.87 278.794L2067.25 465.498L2359.62 153.698L2656.08 586.156C2657.09 587.608 2657.68 589.306 2657.79 591.068C2657.9 592.83 2657.52 594.589 2656.71 596.154C2655.89 597.719 2654.66 599.031 2653.15 599.948C2651.64 600.865 2649.91 601.352 2648.15 601.356H2648.08Z" fill="#263238"/>
<path d="M1223.99 591.671C1223.99 596.42 1222.58 601.062 1219.94 605.011C1217.31 608.96 1213.56 612.037 1209.17 613.854C1204.78 615.672 1199.95 616.147 1195.3 615.221C1190.64 614.294 1186.36 612.007 1183 608.649C1179.64 605.292 1177.36 601.013 1176.43 596.356C1175.5 591.698 1175.98 586.87 1177.8 582.483C1179.61 578.096 1182.69 574.346 1186.64 571.707C1190.59 569.069 1195.23 567.661 1199.98 567.661C1206.35 567.661 1212.46 570.191 1216.96 574.693C1221.46 579.196 1223.99 585.303 1223.99 591.671Z" fill="#92E3A9"/>
<path d="M1489.32 380.419C1502.58 380.419 1513.33 369.669 1513.33 356.408C1513.33 343.148 1502.58 332.398 1489.32 332.398C1476.06 332.398 1465.31 343.148 1465.31 356.408C1465.31 369.669 1476.06 380.419 1489.32 380.419Z" fill="#92E3A9"/>
<path d="M1778.99 313.163C1792.25 313.163 1803 302.413 1803 289.152C1803 275.891 1792.25 265.141 1778.99 265.141C1765.73 265.141 1754.98 275.891 1754.98 289.152C1754.98 302.413 1765.73 313.163 1778.99 313.163Z" fill="#92E3A9"/>
<path d="M2068.66 502.019C2081.92 502.019 2092.67 491.269 2092.67 478.008C2092.67 464.747 2081.92 453.998 2068.66 453.998C2055.4 453.998 2044.65 464.747 2044.65 478.008C2044.65 491.269 2055.4 502.019 2068.66 502.019Z" fill="#92E3A9"/>
<path d="M2382.35 169.167C2382.35 173.915 2380.94 178.558 2378.3 182.506C2375.66 186.455 2371.91 189.532 2367.53 191.349C2363.14 193.167 2358.31 193.642 2353.65 192.716C2349 191.789 2344.72 189.503 2341.36 186.145C2338 182.787 2335.71 178.508 2334.79 173.851C2333.86 169.193 2334.34 164.365 2336.15 159.978C2337.97 155.591 2341.05 151.841 2345 149.203C2348.95 146.564 2353.59 145.156 2358.34 145.156C2364.71 145.156 2370.81 147.686 2375.32 152.189C2379.82 156.691 2382.35 162.799 2382.35 169.167Z" fill="#92E3A9"/>
<path d="M2672.02 591.671C2672.02 596.42 2670.61 601.062 2667.97 605.011C2665.34 608.96 2661.59 612.037 2657.2 613.854C2652.81 615.672 2647.98 616.147 2643.33 615.221C2638.67 614.294 2634.39 612.007 2631.03 608.649C2627.68 605.292 2625.39 601.013 2624.46 596.356C2623.54 591.698 2624.01 586.87 2625.83 582.483C2627.65 578.096 2630.72 574.346 2634.67 571.707C2638.62 569.069 2643.26 567.661 2648.01 567.661C2654.38 567.661 2660.49 570.191 2664.99 574.693C2669.49 579.196 2672.02 585.303 2672.02 591.671Z" fill="#92E3A9"/>
<path d="M3165.82 2880.14C3422.19 2880.14 3630.02 2852.22 3630.02 2817.79C3630.02 2783.36 3422.19 2755.44 3165.82 2755.44C2909.44 2755.44 2701.61 2783.36 2701.61 2817.79C2701.61 2852.22 2909.44 2880.14 3165.82 2880.14Z" fill="#92E3A9"/>
<path opacity="0.7" d="M3165.82 2880.14C3422.19 2880.14 3630.02 2852.22 3630.02 2817.79C3630.02 2783.36 3422.19 2755.44 3165.82 2755.44C2909.44 2755.44 2701.61 2783.36 2701.61 2817.79C2701.61 2852.22 2909.44 2880.14 3165.82 2880.14Z" fill="white"/>
<path d="M622.583 2880.14C859.158 2880.14 1050.94 2852.22 1050.94 2817.79C1050.94 2783.36 859.158 2755.45 622.583 2755.45C386.009 2755.45 194.227 2783.36 194.227 2817.79C194.227 2852.22 386.009 2880.14 622.583 2880.14Z" fill="#92E3A9"/>
<path opacity="0.7" d="M622.583 2880.14C859.158 2880.14 1050.94 2852.22 1050.94 2817.79C1050.94 2783.36 859.158 2755.45 622.583 2755.45C386.009 2755.45 194.227 2783.36 194.227 2817.79C194.227 2852.22 386.009 2880.14 622.583 2880.14Z" fill="white"/>
<path d="M3034.8 621.399C3034.8 621.399 3211.15 604.316 3221.24 633.707C3231.33 663.098 3227.96 730.22 3227.96 730.22C3236.85 732.529 3245.51 735.612 3253.86 739.434C3256.21 741.721 3282.31 758.804 3257.96 786.85C3251.6 793.961 3243.9 799.744 3235.29 803.865C3224.56 808.618 3214.35 814.479 3204.83 821.352L3169.45 861.504L3176.18 913.224C3176.18 913.224 3191.98 924.658 3211.28 964.541C3211.28 964.541 3256.88 991.444 3283.65 1006.71C3305.66 1018.28 3328.56 1028.08 3352.12 1036.03C3352.12 1036.03 3364.36 1040 3363.48 1048.81C3362.61 1057.62 3302.55 1257.31 3302.55 1257.31L3270.94 1358.19C3270.34 1370.59 3268.72 1382.92 3266.1 1395.05C3261.59 1416.77 3244.64 1431.03 3227.09 1426.59L3228.84 1500.57C3228.84 1500.57 3146.38 1541.8 3010.39 1534.81C3010.39 1534.81 2946.36 1528.62 2899.01 1493.58L2898.14 1320.73L2679.96 1278.49C2679.96 1278.49 2652.32 1272.64 2666.51 1247.76C2680.7 1222.87 2728.38 1161.13 2728.38 1161.13L2881.66 973.621C2881.66 973.621 2892.22 961.178 2896.12 957.21C2900.02 953.242 2909.57 950.484 2947.44 947.323C2985.3 944.162 3027.74 936.831 3027.74 936.831C3027.74 936.831 3050.74 917.058 3054.04 917.058C3057.33 917.058 3058.01 887.465 3058.01 887.465C3046.37 879.071 3036.7 868.255 3029.65 855.761C3022.6 843.268 3018.35 829.394 3017.18 815.097C3013.89 767.076 3034.94 654.556 3034.94 654.556L3034.8 621.399Z" fill="white"/>
<path d="M2901.7 1492.91C2901.7 1492.91 2883.14 1768.66 2883.14 1900.62C2883.14 2032.57 2891.41 2139.44 2895.51 2232.12C2899.62 2324.8 2883.14 2388.63 2897.53 2456.56C2911.93 2524.49 2944.95 2722.22 2944.95 2722.22L2983.76 2745.63C2983.76 2745.63 2990.48 2588.31 3004.6 2532.76C3018.73 2477.21 3023.17 2242.41 3031.51 2170.31C3039.85 2098.22 3066.55 1842.91 3066.55 1842.91C3066.55 1842.91 3169.52 2110.59 3194.34 2215.65C3219.15 2320.7 3303.49 2557.44 3322.12 2615.08C3340.75 2672.72 3369.47 2758.14 3369.47 2758.14C3378.2 2760.69 3387.36 2761.37 3396.37 2760.15C3400.27 2759.84 3404.01 2758.54 3407.26 2756.37C3410.51 2754.21 3413.15 2751.25 3414.94 2747.78C3414.94 2747.78 3387.56 2575.33 3375.52 2491.53C3360.66 2387.89 3336.45 2232.12 3321.72 2174.48C3306.99 2116.85 3284.66 2026.18 3284.66 1982.94C3284.66 1939.69 3229.11 1505.42 3229.11 1505.42C3229.11 1505.42 3035.54 1589.69 2901.7 1492.91Z" fill="#263238"/>
<path d="M3066.41 1842.91L2983.82 1746.6" stroke="white" stroke-width="0.530341" stroke-miterlimit="10" stroke-linecap="round"/>
<path d="M2962.7 1753.66L3030.7 1816.95" stroke="white" stroke-width="0.530341" stroke-miterlimit="10" stroke-linecap="round"/>
<path d="M3108.05 1760.72C3125.46 1716.67 3157.81 1680.15 3199.45 1657.55" stroke="white" stroke-width="0.530341" stroke-miterlimit="10" stroke-linecap="round"/>
<path d="M3204.09 1528.69C3204.09 1528.69 3194.74 1563.8 3206.44 1584.91C3218.14 1606.03 3229.91 1606.03 3229.91 1606.03C3229.91 1606.03 3250.97 1720.84 3250.97 1786.48C3250.97 1852.12 3236.91 1859.12 3250.97 1931.76C3265.02 2004.39 3274.44 2027.87 3274.44 2070.03C3274.44 2112.2 3293.14 2140.39 3309.55 2166.14C3325.96 2191.9 3330.66 2267.03 3330.66 2297.36C3330.66 2327.69 3340.01 2360.65 3349.43 2391.12C3349.43 2391.12 3351.65 2459.45 3363.49 2475.46C3375.32 2491.46 3377.54 2545.81 3377.54 2545.81" stroke="white" stroke-width="0.530341" stroke-miterlimit="10" stroke-linecap="round"/>
<path d="M3049.46 1833.36C3049.46 1833.36 3054.11 1887.16 3037.69 1980.99C3021.28 2074.81 3009.58 2100.5 3007.23 2208.31C3004.87 2316.13 3014.29 2334.89 3009.58 2391.12C3004.87 2447.34 2976.76 2536.19 2976.76 2576.54C2976.76 2616.9 2981.07 2745.89 2981.07 2745.89" stroke="white" stroke-width="0.530341" stroke-miterlimit="10" stroke-linecap="round"/>
<path d="M2997.88 1542.74L3002.59 1561.51L3033.05 1568.5L3028.35 1545.1" stroke="white" stroke-width="0.530341" stroke-miterlimit="10" stroke-linecap="round"/>
<path d="M3033.19 1568.5C3033.19 1568.5 3089.41 1566.15 3117.53 1556.8L3110.8 1538.04" stroke="white" stroke-width="0.530341" stroke-miterlimit="10" stroke-linecap="round"/>
<path d="M3136.16 1533.33L3142.88 1556.8C3142.88 1556.8 3187.88 1554.25 3194.6 1547.52" stroke="white" stroke-width="0.530341" stroke-miterlimit="10" stroke-linecap="round"/>
<path d="M3002.59 1561.51C2987.04 1561.02 2971.82 1557 2958.06 1549.74L2936.94 1538.04L2943.67 1521.63" stroke="white" stroke-width="0.530341" stroke-miterlimit="10" stroke-linecap="round"/>
<path d="M2944.95 2722.22C2944.95 2722.22 2844.06 2788.06 2829.6 2818.94C2815.14 2849.81 2872.85 2837.5 2914.01 2821.02C2955.17 2804.54 2981.27 2745.63 2981.27 2745.63L2944.95 2722.22Z" fill="white" stroke="#263238" stroke-width="1.06068" stroke-miterlimit="10" stroke-linecap="round"/>
<path d="M3372.7 2759.01C3377.79 2787.22 3387.8 2814.31 3402.29 2839.04C3424.49 2873.55 3466.39 2903.14 3466.39 2848.86C3466.39 2794.59 3414.67 2747.98 3414.67 2747.98C3414.67 2747.98 3388.97 2761.9 3372.7 2759.01Z" fill="white" stroke="#263238" stroke-width="1.06068" stroke-miterlimit="10" stroke-linecap="round"/>
<path d="M3034.2 658.659C3034.2 658.659 3012.34 794.248 3019.74 827.876C3036.62 903.136 3095.87 899.908 3132.93 885.515C3167.57 872.064 3202.14 824.513 3206.58 818.259C3206.89 817.817 3207.34 817.487 3207.85 817.317C3213.37 815.77 3247.6 804.874 3262.67 778.443C3279.15 749.59 3248.27 737.282 3248.27 737.282" fill="white"/>
<mask id="mask0_6_380" style="mask-type:luminance" maskUnits="userSpaceOnUse" x="3018" y="658" width="250" height="236">
<path d="M3034.2 658.659C3034.2 658.659 3012.34 794.248 3019.74 827.876C3036.62 903.136 3095.87 899.908 3132.93 885.515C3167.57 872.064 3202.14 824.513 3206.58 818.259C3206.89 817.817 3207.34 817.487 3207.85 817.317C3213.37 815.77 3247.6 804.874 3262.67 778.443C3279.15 749.59 3248.27 737.282 3248.27 737.282" fill="white"/>
</mask>
<g mask="url(#mask0_6_380)">
<g style="mix-blend-mode:multiply" opacity="0.5">
<path d="M3174.43 853.164L3207.11 817.25C3207.11 817.25 3245.79 805.345 3262.67 778.106C3272.55 762.167 3267.11 748.245 3261.12 744.478C3252.92 740.038 3244.45 736.107 3235.77 732.708L3224.8 756.853L3215.45 758.467C3215.45 758.467 3219.35 733.583 3208.06 718.853C3196.76 704.124 3194.2 661.484 3194.2 661.484C3194.2 661.484 3178.4 746.496 3176.44 782.074C3175.94 801.875 3169.76 821.113 3158.62 837.494C3158.62 837.494 3160.64 859.218 3164.54 880.941C3165.01 883.497 3165.48 887.331 3165.95 892.106L3171.33 883.497L3174.29 891.702C3170.93 877.579 3169.38 862.58 3174.43 853.164Z" fill="#92E3A9"/>
</g>
</g>
<path d="M3034.2 658.659C3034.2 658.659 3012.34 794.248 3019.74 827.876C3036.62 903.136 3095.87 899.908 3132.93 885.515C3167.57 872.064 3202.14 824.513 3206.58 818.259C3206.89 817.817 3207.34 817.487 3207.85 817.317C3213.37 815.77 3247.6 804.874 3262.67 778.443C3279.15 749.59 3248.27 737.282 3248.27 737.282" stroke="#263238" stroke-width="1.06068" stroke-miterlimit="10" stroke-linecap="round"/>
<path d="M3117.86 727.597C3116.59 732.977 3117.86 737.82 3120.35 738.425C3122.84 739.03 3126.2 735.264 3127.48 729.951C3128.76 724.638 3127.48 719.795 3124.99 719.122C3122.51 718.45 3119.14 722.284 3117.86 727.597Z" fill="#263238"/>
<path d="M3060.09 713.54C3058.81 718.921 3060.09 723.763 3062.58 724.368C3065.07 724.974 3068.43 721.207 3069.71 715.894C3070.99 710.581 3069.71 705.671 3067.22 705.066C3064.73 704.461 3061.3 708.16 3060.09 713.54Z" fill="#263238"/>
<path d="M3153.71 704.057C3150.54 698.465 3146.01 693.757 3140.55 690.362C3135.08 686.967 3128.86 684.993 3122.44 684.62" stroke="#263238" stroke-width="1.06068" stroke-miterlimit="10" stroke-linecap="round"/>
<path d="M3078.18 685.629C3072.89 683.315 3067.02 682.667 3061.35 683.773C3055.68 684.878 3050.48 687.684 3046.44 691.816" stroke="#263238" stroke-width="1.06068" stroke-miterlimit="10" stroke-linecap="round"/>
<path d="M3082.08 710.11C3082.21 719.12 3081.54 728.123 3080.07 737.013C3077.85 748.244 3069.1 750.464 3071.32 759.14C3073.54 767.816 3084.77 768.69 3084.77 768.69" stroke="#263238" stroke-width="1.06068" stroke-miterlimit="10" stroke-linecap="round"/>
<path d="M3096.48 803.731C3101.24 805.247 3106.27 805.714 3111.23 805.098C3116.19 804.483 3120.95 802.8 3125.2 800.167" stroke="#263238" stroke-width="1.06068" stroke-miterlimit="10" stroke-linecap="round"/>
<path d="M3203.01 563.962C3203.01 563.962 3157.75 524.819 3114.5 524.819C3071.26 524.819 3036.22 549.569 3009.45 551.721C2982.68 553.873 2964.18 529.056 2947.71 562.011C2931.23 594.967 2993.04 650.588 3034.2 658.793C3075.36 666.999 3133 654.691 3149.47 652.606C3165.26 651.524 3181.1 651.524 3196.89 652.606C3196.89 652.606 3184.52 691.749 3196.89 704.124C3209.27 716.499 3211.28 724.705 3211.28 732.91C3211.99 741.966 3213.36 750.958 3215.39 759.813L3227.76 763.982L3233.95 741.317C3250.65 723.513 3262.06 701.413 3266.9 677.491C3273.03 640.432 3242.15 603.509 3242.15 603.509L3203.01 563.962Z" fill="#263238"/>
<path d="M3029.62 641.912C3029.62 641.912 3100.04 655.363 3155.19 632.429C3210.34 609.494 3162.79 563.962 3162.79 563.962" stroke="white" stroke-width="0.530341" stroke-miterlimit="10" stroke-linecap="round"/>
<path d="M3174.43 560.128C3180.14 560.128 3227.69 596.245 3218.14 622.878C3208.59 649.512 3189.63 651.462 3189.63 651.462" stroke="white" stroke-width="0.530341" stroke-miterlimit="10" stroke-linecap="round"/>
<path d="M3166.63 1377.09L3107.17 1345.75C3091.89 1344.9 3076.69 1342.93 3061.71 1339.83C3047.85 1335.86 2905.67 1322.28 2905.67 1322.28L2903.52 1355.91C2903.52 1355.91 3065.67 1377.7 3099.23 1381.67C3132.8 1385.63 3162.52 1401.44 3168.44 1411.33C3174.36 1421.21 3186.26 1431.1 3180.35 1458.41C3174.43 1485.71 3134.88 1525.66 3134.88 1525.66C3133 1522.84 3229.98 1515.84 3229.04 1505.48C3226.95 1484.9 3215.99 1424.78 3215.99 1424.78L3166.63 1377.09Z" fill="#92E3A9"/>
<path opacity="0.5" d="M3166.63 1377.09L3107.17 1345.75C3091.89 1344.9 3076.69 1342.93 3061.71 1339.83C3047.85 1335.86 2905.67 1322.28 2905.67 1322.28L2903.52 1355.91C2903.52 1355.91 3065.67 1377.7 3099.23 1381.67C3132.8 1385.63 3162.52 1401.44 3168.44 1411.33C3174.36 1421.21 3186.26 1431.1 3180.35 1458.41C3174.43 1485.71 3134.88 1525.66 3134.88 1525.66C3133.33 1522.63 3230.18 1515.77 3229.04 1505.48C3225.88 1479.25 3215.99 1424.78 3215.99 1424.78L3166.63 1377.09Z" fill="white"/>
<path d="M3362.75 1048.07C3357.5 1023.46 3318.36 1026.75 3294.75 1013.1C3271.14 999.447 3214.04 967.837 3214.04 967.837L3186.4 926.272C3181.41 915.066 3177.38 903.456 3174.36 891.568L3171.4 883.363L3166.02 891.971C3169.45 928.828 3172.75 1023.19 3172.75 1023.19L3184.58 1082.51C3184.58 1082.51 3230.12 1278.22 3241.95 1321.74C3253.79 1365.25 3253.79 1394.85 3245.92 1408.7C3238.05 1422.56 3240.67 1428.88 3240.67 1428.88C3240.67 1428.88 3271.55 1405 3269.66 1381.33C3267.17 1353.48 3366.44 1064.75 3362.75 1048.07Z" fill="#92E3A9"/>
<path opacity="0.5" d="M3362.75 1048.07C3360.05 1023.05 3318.36 1026.75 3294.75 1013.1C3271.14 999.447 3214.04 967.837 3214.04 967.837L3186.4 926.272C3181.41 915.066 3177.38 903.456 3174.36 891.568L3171.4 883.363L3166.02 891.971C3169.45 928.828 3172.75 1023.19 3172.75 1023.19L3184.58 1082.51C3184.58 1082.51 3230.12 1278.22 3241.95 1321.74C3253.79 1365.25 3253.79 1394.85 3245.92 1408.7C3238.05 1422.56 3240.67 1428.88 3240.67 1428.88C3240.67 1428.88 3272.42 1404.94 3269.66 1381.33C3266.5 1355.97 3365.17 1068.86 3362.75 1048.07Z" fill="white"/>
<path d="M3189.96 1023.39C3189.96 1023.39 3177.59 912.216 3171.4 883.363C3165.21 854.51 3169.38 838.099 3142.62 838.099C3115.85 838.099 3082.89 833.929 3088.81 848.389C3094.73 862.849 3135.89 850.407 3142.62 856.595C3149.34 862.782 3144.63 877.175 3144.63 877.175C3144.63 877.175 3090.83 881.345 3090.83 895.738C3090.83 910.131 3092.91 949.543 3103.2 953.377C3113.49 957.21 3117.6 934.881 3117.6 934.881C3117.6 934.881 3119.68 981.96 3129.97 998.707C3136.52 1009.05 3144.12 1018.7 3152.64 1027.49L3189.96 1023.39Z" fill="white" stroke="#263238" stroke-width="1.06068" stroke-miterlimit="10" stroke-linecap="round"/>
<path d="M3152.9 1054.26C3152.9 1054.26 3146.72 1309.84 3157.01 1350.79C3167.3 1391.75 3222.92 1447.58 3251.7 1420.81C3280.49 1394.04 3266.16 1336.4 3266.16 1309.63C3266.16 1282.87 3200.25 1085.2 3200.25 1070.74C3199.27 1058.73 3196.48 1046.94 3191.98 1035.77" stroke="#263238" stroke-width="1.06068" stroke-miterlimit="10" stroke-linecap="round"/>
<path d="M3157.01 1085.2L3198.17 1081.03" stroke="#263238" stroke-width="1.06068" stroke-miterlimit="10" stroke-linecap="round"/>
<path d="M2893.77 1212.99L2901.7 985.592C2901.7 985.592 2891.82 979.674 2887.85 1001.4C2883.88 1023.12 2881.93 1066.7 2881.93 1066.7C2881.93 1066.7 2834.45 1037.04 2846.35 1054.8C2858.25 1072.55 2877.96 1112.17 2877.96 1112.17L2804.52 1185.28L2838.15 1199.13L2893.77 1212.99Z" fill="#92E3A9"/>
<path opacity="0.5" d="M2893.77 1212.99L2901.7 985.592C2901.7 985.592 2891.82 979.674 2887.85 1001.4C2883.88 1023.12 2881.93 1066.7 2881.93 1066.7C2881.93 1066.7 2834.45 1037.04 2846.35 1054.8C2858.25 1072.55 2877.96 1112.17 2877.96 1112.17L2804.52 1185.28L2838.15 1199.13L2893.77 1212.99Z" fill="white"/>
<path d="M2992.23 1036.37C2992.23 1036.37 2988.46 1049.82 3004.27 1049.82C3020.07 1049.82 3047.85 1038.59 3047.85 1038.59L3045.83 1016.26C3045.83 1016.26 3007.83 1034.76 2992.23 1036.37Z" fill="#92E3A9"/>
<path opacity="0.5" d="M2992.23 1036.37C2992.23 1036.37 2988.46 1049.82 3004.27 1049.82C3020.07 1049.82 3047.85 1038.59 3047.85 1038.59L3045.83 1016.26C3045.83 1016.26 3007.83 1034.76 2992.23 1036.37Z" fill="white"/>
<path d="M3060.09 885.986C3060.09 885.986 3039.51 1007.05 3051.89 1033.95C3064.26 1060.85 3082.76 1054.53 3097.15 1042.22C3111.54 1029.91 3130.11 998.976 3130.11 998.976" stroke="#263238" stroke-width="1.06068" stroke-miterlimit="10" stroke-linecap="round"/>
<path d="M2897.53 1324.03L2901.7 1492.91C2901.7 1492.91 2948.78 1538.17 3039.65 1538.17C3130.51 1538.17 3229.11 1505.22 3229.11 1505.22V1445.49" stroke="#263238" stroke-width="1.06068" stroke-miterlimit="10" stroke-linecap="round"/>
<path d="M3175.57 910.131C3175.57 910.131 3212.63 947.189 3212.63 982.23C3212.63 1017.27 3206.44 1025.48 3206.44 1025.48" stroke="#263238" stroke-width="1.06068" stroke-miterlimit="10" stroke-linecap="round"/>
<path d="M3208.46 961.649C3208.46 961.649 3264.08 994.537 3294.95 1013.1C3325.82 1031.66 3362.95 1031.6 3362.95 1048.07C3362.95 1064.55 3276.46 1344.61 3276.46 1344.61" stroke="#263238" stroke-width="1.06068" stroke-miterlimit="10" stroke-linecap="round"/>
<path d="M3243.5 1054.26L3222.92 1136.65" stroke="#263238" stroke-width="1.06068" stroke-miterlimit="10" stroke-linecap="round"/>
<path d="M2898.07 1102.62L2864.78 1032.81" stroke="#263238" stroke-width="0.530341" stroke-miterlimit="10" stroke-linecap="round"/>
<path d="M2898.07 1122.59L2848.17 1092.66" stroke="#263238" stroke-width="0.530341" stroke-miterlimit="10" stroke-linecap="round"/>
<path d="M3060.9 1278.76L3050.94 1328.67" stroke="#263238" stroke-width="0.530341" stroke-miterlimit="10" stroke-linecap="round"/>
<path d="M3330.13 1046.12C3330.13 1046.12 3280.29 1056.08 3233.75 1112.57" stroke="#263238" stroke-width="0.530341" stroke-miterlimit="10" stroke-linecap="round"/>
<path d="M3296.9 1043.1C3296.9 1043.1 3283.45 1039.73 3237.11 1079.62" stroke="#263238" stroke-width="0.530341" stroke-miterlimit="10" stroke-linecap="round"/>
<path d="M3060.9 1059.44L3040.99 1215.61L3057.6 1218.97L3070.92 1169.14" stroke="#263238" stroke-width="0.530341" stroke-miterlimit="10" stroke-linecap="round"/>
<path d="M3074.22 1468.22C3014.36 1518.13 2931.3 1514.77 2931.3 1514.77" stroke="#263238" stroke-width="0.530341" stroke-miterlimit="10" stroke-linecap="round"/>
<path d="M2821.26 1196.98C2821.26 1196.98 2780.57 1159.72 2722.93 1207.13" stroke="#263238" stroke-width="0.530341" stroke-miterlimit="10" stroke-linecap="round"/>
<path d="M3056.12 916.318C3056.12 916.318 3039.65 920.421 3021.08 949.274C3002.52 978.127 2979.92 1027.49 2996.4 1031.6C3012.88 1035.7 3043.48 1017.2 3043.48 1017.2" stroke="#263238" stroke-width="1.06068" stroke-miterlimit="10" stroke-linecap="round"/>
<path d="M3119.95 1025.48L3140.53 1043.97" stroke="#263238" stroke-width="1.06068" stroke-miterlimit="10" stroke-linecap="round"/>
<path d="M3027.27 936.899C3027.27 936.899 2951.07 947.189 2920.2 949.274C2889.33 951.359 2895.31 962.725 2885.22 969.854C2868.95 981.221 2682.24 1217.9 2670 1240.56C2657.76 1263.23 2659.71 1273.52 2680.29 1279.7C2700.87 1285.89 2905.87 1321.94 2905.87 1321.94L3086.99 1340.5L3101.39 1295.17C3101.39 1295.17 3143.49 1300.76 3150.89 1300.76" stroke="#263238" stroke-width="1.06068" stroke-miterlimit="10" stroke-linecap="round"/>
<path d="M3080.81 1278.49C3040.83 1266.9 3002.19 1251.12 2965.53 1231.41" stroke="#263238" stroke-width="1.06068" stroke-miterlimit="10" stroke-linecap="round"/>
<path d="M2949.05 1227.24C2949.05 1227.24 2888.52 1204.78 2855.77 1200.68C2823.01 1196.58 2772.84 1195.23 2772.84 1195.23" stroke="#263238" stroke-width="1.06068" stroke-miterlimit="10" stroke-linecap="round"/>
<path d="M2893.43 1200.48L2899.62 1037.78" stroke="#263238" stroke-width="1.06068" stroke-miterlimit="10" stroke-linecap="round"/>
<path d="M3086.99 1340.5C3101.12 1347.61 3115.93 1353.29 3131.18 1357.45" stroke="#263238" stroke-width="1.06068" stroke-miterlimit="10" stroke-linecap="round"/>
<path d="M392.231 1209.42L416.51 1076.72L570.191 1016.19C570.191 1016.19 577.656 974.966 585.189 973.15C592.722 971.334 600.12 954.385 600.12 954.385L596.421 920.421C596.421 920.421 610.478 866.616 681.164 908.517C681.164 908.517 659.777 922.775 663.476 928.694C667.175 934.612 659.373 953.444 668.722 953.444C678.07 953.444 696.969 965.348 706.52 974.966C713.204 982.147 719.111 990.015 724.141 998.438L803.705 1003.01C811.861 1003.08 819.975 1004.19 827.85 1006.31C829.195 967.433 824.42 937.773 815.004 914.704C780.771 831.441 718.357 801.713 709.412 760.014C700.467 718.315 704.973 713.944 704.973 713.944C714.068 704.696 720.728 693.336 724.355 680.883C727.982 668.429 728.463 655.27 725.755 642.585C716.877 597.994 682.644 566.719 559.228 560.801C435.813 554.882 453.703 639.558 453.703 639.558L455.183 645.477C455.183 645.477 376.358 672.379 391.289 771.852C406.22 871.324 449.264 914.57 447.784 945.777C446.305 976.984 400.167 988.888 334.726 1060.11C269.286 1131.34 255.969 1238.48 282.737 1308.36C296.188 1342.72 322.486 1371.38 355.509 1392.76L392.231 1209.42Z" fill="#263238"/>
<path d="M495.267 1222.54V1252.53L438.301 1428.54C473.897 1437.96 511.228 1438.75 547.189 1430.83C567.488 1425.54 586.89 1417.27 604.76 1406.28L495.267 1222.54Z" fill="#263238"/>
<path d="M659.037 927.617L665.763 957.883C665.763 957.883 685.939 937.706 725.352 998.976C725.352 998.976 807.27 997.026 829.599 1008.19C829.599 1008.19 834.24 1009.54 849.373 1025.61C864.505 1041.68 921.404 1092.87 921.404 1092.87C921.404 1092.87 994.445 1160.66 1001.71 1165.91C1008.97 1171.15 1036.21 1197.18 1056.59 1206.26L1111.2 1081.9L1135.55 1020.36L1149 969.72H1153.3L1154.25 928.895L1150.95 880.202C1151.49 877.725 1152.62 875.417 1154.25 873.476C1159.89 865.66 1164.22 856.985 1167.09 847.784C1167.09 843.211 1162.45 816.173 1162.45 816.173C1162.45 816.173 1160.16 809.448 1165.14 808.641C1170.12 807.834 1188.48 814.223 1190.77 827.069L1197.49 824.782C1203.06 811.475 1210 798.784 1218.21 786.917C1229.1 772.793 1240.27 763.915 1247.19 768.489C1249.1 769.8 1250.47 771.747 1251.06 773.979C1251.65 776.211 1251.42 778.581 1250.42 780.662L1228.77 820.478C1228.77 820.478 1219.22 833.324 1231.05 837.897C1231.05 837.897 1256.68 854.375 1258.36 868.835C1260.04 883.295 1250.76 895.738 1242.55 906.364C1234.35 916.991 1219.89 939.992 1219.89 939.992L1203.07 954.856L1196.35 980.481L1204.28 990.368L1192.45 1041.68L1183.91 1080.15L1179.6 1103.49L1152.7 1195.63L1125.8 1275.94C1125.8 1275.94 1111.94 1321.94 1078.38 1320.66C1044.82 1319.39 1008.03 1301.23 996.126 1295.31C984.222 1289.39 886.095 1238.14 886.095 1238.14L865.918 1228.59C868.61 1237.78 869.769 1247.34 869.348 1256.9C869.011 1274.66 849.911 1313.8 844.328 1322.68L841.033 1392.09C839.73 1404.13 839.956 1416.29 841.705 1428.27C844.665 1446.37 859.797 1548.73 863.093 1561.51C863.093 1561.51 830.406 1591.1 733.019 1605.16C635.632 1619.22 590.032 1596.42 590.032 1596.42L546.651 1570.93L600.12 1465.27C600.12 1465.27 613.572 1433.86 612.226 1425.58C610.881 1417.31 587.88 1381.67 587.88 1381.67L503.473 1231.41L499.505 1232.76L486.39 1276.61L438.974 1425.31L376.56 1610.94C376.56 1610.94 359.477 1658.02 352.415 1671.94L332.709 1732C333.803 1742.73 336.454 1753.25 340.578 1763.21L291.01 1731.13L299.82 1684.05L310.783 1613.83L324.234 1537.5L336.072 1474.34L354.971 1390.14L361.696 1366.87L375.148 1301.09L398.822 1181.78L418.999 1079.62L560.237 1023.46L569.048 1016.73C571.007 1003.73 575.781 991.312 583.037 980.346C588.073 973.132 594.069 966.638 600.86 961.044C600.86 961.044 600.188 952.233 599.717 943.893C599.246 935.554 597.094 920.219 597.094 920.219C597.094 920.219 640.743 938.984 659.037 927.617Z" fill="white"/>
<path d="M469.844 657.314C469.844 657.314 496.007 599.406 548.332 599.406C600.658 599.406 709.008 702.174 709.008 702.174" stroke="white" stroke-width="0.530341" stroke-miterlimit="10" stroke-linecap="round"/>
<path d="M492.241 666.461C492.241 666.461 523.986 632.832 563.263 645.88C602.541 658.928 608.124 705.671 608.124 705.671" stroke="white" stroke-width="0.530341" stroke-miterlimit="10" stroke-linecap="round"/>
<path d="M466.078 672.245C466.078 672.245 419.402 698.407 415.636 747.034C411.87 795.66 481.009 853.501 490.358 918.941C499.707 984.382 451.147 999.245 372.659 1053.45C294.171 1107.66 307.286 1229.06 324.1 1255.22" stroke="white" stroke-width="0.530341" stroke-miterlimit="10" stroke-linecap="round"/>
<path d="M333.449 1270.22C333.449 1270.22 344.613 1294.5 361.427 1301.97" stroke="white" stroke-width="0.530341" stroke-miterlimit="10" stroke-linecap="round"/>
<path d="M471.728 799.292C469.517 804.038 468.526 809.261 468.843 814.487C469.16 819.713 470.776 824.777 473.544 829.221C482.892 846.035 554.251 930.106 548.333 969.384C542.414 1008.66 505.356 1032.87 505.356 1032.87" stroke="white" stroke-width="0.530341" stroke-miterlimit="10" stroke-linecap="round"/>
<path d="M507.172 672.245C507.172 672.245 464.195 690.942 466.078 733.919C467.961 776.896 477.31 788.128 477.31 788.128" stroke="white" stroke-width="0.530341" stroke-miterlimit="10" stroke-linecap="round"/>
<path d="M709.008 814.425C722.362 844.655 740.685 872.436 763.217 896.612C796.845 930.24 800.544 978.867 800.544 978.867" stroke="white" stroke-width="0.530341" stroke-miterlimit="10" stroke-linecap="round"/>
<path d="M748.219 920.757C748.219 920.757 765.033 960.035 765.033 984.314" stroke="white" stroke-width="0.530341" stroke-miterlimit="10" stroke-linecap="round"/>
<path d="M655.204 931.182L602.407 978.732C602.407 978.732 596.758 993.125 586.131 1016.19C575.505 1039.26 577.253 1083.45 577.253 1083.45L609.806 1148.22C609.806 1148.22 547.19 1076.39 543.625 1067.51C540.061 1058.63 474.553 1074.64 462.178 1079.95C449.803 1085.27 433.795 1095.89 437.36 1111.83C440.925 1127.77 456.865 1148.96 449.735 1152.52C442.606 1156.09 423.169 1147.21 423.169 1157.84C423.169 1168.46 446.238 1209.22 435.611 1223.34C424.985 1237.47 357.661 1466.01 357.661 1466.01C357.661 1466.01 400.167 1430.56 389.541 1444.75C378.914 1458.94 327.598 1574.02 327.598 1574.02L308.093 1641.28L354.164 1402.25L393.105 1200.48L416.511 1076.72C439.109 1069.19 570.191 1016.19 570.191 1016.19C570.191 1016.19 580.549 972.612 600.121 954.385L596.422 920.421C596.422 920.421 632.135 932.931 655.204 931.182Z" fill="#92E3A9"/>
<path opacity="0.5" d="M655.204 931.182L602.407 978.732C602.407 978.732 596.758 993.125 586.131 1016.19C575.505 1039.26 577.253 1083.45 577.253 1083.45L609.806 1148.22C609.806 1148.22 547.19 1076.39 543.625 1067.51C540.061 1058.63 474.553 1074.64 462.178 1079.95C449.803 1085.27 433.795 1095.89 437.36 1111.83C440.925 1127.77 456.865 1148.96 449.735 1152.52C442.606 1156.09 423.169 1147.21 423.169 1157.84C423.169 1168.46 446.238 1209.22 435.611 1223.34C424.985 1237.47 357.661 1466.01 357.661 1466.01C357.661 1466.01 400.167 1430.56 389.541 1444.75C378.914 1458.94 327.598 1574.02 327.598 1574.02L308.093 1641.28L354.164 1402.25L393.105 1200.48L416.511 1076.72C439.109 1069.19 570.191 1016.19 570.191 1016.19C570.191 1016.19 573.016 975.84 600.188 961.716L596.422 920.421C596.422 920.421 632.135 932.931 655.204 931.182Z" fill="white"/>
<path d="M851.727 1170.21C851.727 1170.21 883.606 1117.15 887.171 1129.52C890.735 1141.9 878.293 1184.34 878.293 1184.34C878.293 1184.34 911.921 1171.96 908.424 1182.59C904.926 1193.21 897.797 1198.53 899.546 1203.84C901.295 1209.15 1016.44 1269.35 1030.63 1276.41C1044.82 1283.47 1078.45 1242.78 1094.39 1255.16C1110.33 1267.53 1094.39 1309.97 1062.51 1310.04C1030.63 1310.1 938.555 1269.68 938.555 1269.68L866.052 1227.51" fill="#92E3A9"/>
<path opacity="0.5" d="M851.727 1170.21C851.727 1170.21 883.606 1117.15 887.171 1129.52C890.735 1141.9 878.293 1184.34 878.293 1184.34C878.293 1184.34 911.921 1171.96 908.424 1182.59C904.926 1193.21 897.797 1198.53 899.546 1203.84C901.295 1209.15 1016.44 1269.35 1030.63 1276.41C1044.82 1283.47 1078.45 1242.78 1094.39 1255.16C1110.33 1267.53 1094.39 1309.97 1062.51 1310.04C1030.63 1310.1 938.555 1269.68 938.555 1269.68L866.321 1227.65" fill="white"/>
<path d="M660.517 1384.49C660.517 1384.49 867.532 1274.73 833.904 1315.42C800.275 1356.11 688.832 1402.25 660.517 1384.49Z" fill="#92E3A9"/>
<path opacity="0.5" d="M660.517 1384.49C660.517 1384.49 867.532 1274.73 833.904 1315.42C800.275 1356.11 688.832 1402.25 660.517 1384.49Z" fill="white"/>
<path d="M596.421 920.757C596.421 920.757 597.901 949.005 602.407 978.732C606.913 1008.46 605.366 1008.46 633.614 1044.11C661.861 1079.75 691.589 1109.55 696.028 1103.63" stroke="#263238" stroke-width="1.06068" stroke-miterlimit="10" stroke-linecap="round"/>
<path d="M697.508 1093.2C697.508 1093.2 700.467 1041.15 690.109 1006.98C679.752 972.814 664.821 960.842 664.821 953.175C664.318 945.186 663.33 937.235 661.862 929.366" stroke="#263238" stroke-width="1.06068" stroke-miterlimit="10" stroke-linecap="round"/>
<path d="M596.421 963.869C584.541 974.566 576.231 988.651 572.612 1004.22C568.173 1027.96 563.734 1056.21 563.734 1056.21L609.805 1148.42C613.816 1132.36 619.803 1116.87 627.628 1102.28C631.503 1095.08 636.523 1088.57 642.492 1082.98" stroke="#263238" stroke-width="1.06068" stroke-miterlimit="10" stroke-linecap="round"/>
<path d="M707.933 1067.91C711.185 1067.1 714.568 1066.94 717.882 1067.45C721.196 1067.96 724.376 1069.12 727.235 1070.87C739.139 1076.86 762.948 1108.07 762.948 1108.07C762.948 1108.07 746.605 1030.72 718.357 990.636C690.11 950.552 670.74 953.444 670.74 953.444" stroke="#263238" stroke-width="1.06068" stroke-miterlimit="10" stroke-linecap="round"/>
<path d="M559.229 1021.84L416.51 1076.72C416.51 1076.72 364.521 1360.68 345.151 1436.48C325.781 1512.28 293.162 1726.42 293.162 1726.42L331.767 1733.82L345.219 1695.21" stroke="#263238" stroke-linecap="round" stroke-linejoin="round"/>
<path d="M352.617 1673.02C352.617 1673.02 361.495 1659.57 385.303 1585.59C409.112 1511.6 472.737 1330.01 483.43 1294.16C494.124 1258.32 502.733 1234.71 502.733 1234.71" stroke="#263238" stroke-width="1.06068" stroke-miterlimit="10" stroke-linecap="round"/>
<path d="M477.444 1191.06C477.444 1191.06 597.833 1406.28 608.258 1415.56C618.683 1424.84 603.819 1449.73 600.793 1463.11" stroke="#263238" stroke-width="1.06068" stroke-miterlimit="10" stroke-linecap="round"/>
<path d="M587.476 1490.15L548.871 1570.45C548.871 1570.45 574.159 1609.13 681.164 1609.13C744.844 1609.32 807.612 1593.99 864.034 1564.47C864.034 1564.47 838.746 1430.7 840.226 1406.89C841.705 1383.08 844.732 1320.66 844.732 1320.66C844.732 1320.66 871.634 1280.31 868.473 1249.3C865.312 1218.3 852.13 1182.38 852.13 1176.47C852.13 1170.55 849.171 1106.59 849.171 1106.59" stroke="#263238" stroke-width="1.06068" stroke-miterlimit="10" stroke-linecap="round"/>
<path d="M680.962 1357.99L787.497 1292.62" stroke="#263238" stroke-width="0.530341" stroke-miterlimit="10" stroke-linecap="round"/>
<path d="M737.055 1337.48L794.962 1303.85" stroke="#263238" stroke-width="0.530341" stroke-miterlimit="10" stroke-linecap="round"/>
<path d="M1055.85 1207.67L1034.13 1260.87" stroke="#263238" stroke-width="0.530341" stroke-miterlimit="10" stroke-linecap="round"/>
<path d="M1047.17 1230.94L1026.66 1251.52" stroke="#263238" stroke-width="0.530341" stroke-miterlimit="10" stroke-linecap="round"/>
<path d="M439.915 1419.73C439.915 1419.73 404.404 1460.83 380.125 1477.64" stroke="#263238" stroke-width="0.530341" stroke-miterlimit="10" stroke-linecap="round"/>
<path d="M419.402 1430.9C419.402 1430.9 357.728 1479.46 342.797 1490.69" stroke="#263238" stroke-width="0.530341" stroke-miterlimit="10" stroke-linecap="round"/>
<path d="M430.365 1085.2C448.957 1111.49 465.807 1138.96 480.808 1167.45" stroke="#263238" stroke-width="0.530341" stroke-miterlimit="10" stroke-linecap="round"/>
<path d="M486.659 1180.5L499.706 1202.9" stroke="#263238" stroke-width="0.530341" stroke-miterlimit="10" stroke-linecap="round"/>
<path d="M852.13 1176.47L868.473 1093.2" stroke="#263238" stroke-width="0.530341" stroke-miterlimit="10" stroke-linecap="round"/>
<path d="M858.116 1182.38L883.337 1146.74" stroke="#263238" stroke-width="0.530341" stroke-miterlimit="10" stroke-linecap="round"/>
<path d="M502.733 1234.44L431.374 1195.77" stroke="#263238" stroke-width="0.530341" stroke-miterlimit="10" stroke-linecap="round"/>
<path d="M694.548 1111.03C694.548 1111.03 721.451 1164.83 730.261 1203.23" stroke="#263238" stroke-width="0.530341" stroke-miterlimit="10" stroke-linecap="round"/>
<path d="M1136.09 1017.34C1143.2 1016.81 1150.35 1017.73 1157.1 1020.05C1163.85 1022.36 1170.06 1026.01 1175.36 1030.79" stroke="#263238" stroke-width="0.530341" stroke-miterlimit="10" stroke-linecap="round"/>
<path d="M318.989 1689.5L337.417 1696.36" stroke="#263238" stroke-width="0.530341" stroke-miterlimit="10" stroke-linecap="round"/>
<path d="M292.692 1729.11C292.923 1754.68 291.575 1780.24 288.656 1805.65C284.217 1836.92 285.697 1908.28 291.615 1930.55C297.534 1952.81 300.561 1957.45 306.479 1944C312.398 1930.55 330.288 1851.86 330.288 1851.86C330.288 1851.86 333.247 1903.84 346.631 1899.41C360.015 1894.97 352.617 1869.68 352.617 1847.35C352.617 1825.02 354.097 1817.62 352.617 1799.8C351.137 1781.98 331.297 1737.92 331.297 1737.92" fill="white"/>
<path d="M292.692 1729.11C292.923 1754.68 291.575 1780.24 288.656 1805.65C284.217 1836.92 285.697 1908.28 291.615 1930.55C297.534 1952.81 300.561 1957.45 306.479 1944C312.398 1930.55 330.288 1851.86 330.288 1851.86C330.288 1851.86 333.247 1903.84 346.631 1899.41C360.015 1894.97 352.617 1869.68 352.617 1847.35C352.617 1825.02 354.097 1817.62 352.617 1799.8C351.137 1781.98 331.297 1737.92 331.297 1737.92" stroke="#263238" stroke-miterlimit="10" stroke-linecap="round"/>
<path d="M1153.44 968.577C1152.76 955.425 1152.76 942.248 1153.44 929.097C1154.65 916.722 1149.74 898.226 1150.95 882.018C1152.16 865.809 1168.24 859.823 1165.75 838.839C1163.26 817.855 1158.35 815.366 1162.05 810.457C1165.75 805.547 1188.95 812.878 1190.43 826.464C1191.75 840.444 1191.75 854.518 1190.43 868.499C1189.22 872.198 1197.83 895.401 1192.92 905.49C1190.11 910.955 1188.02 916.766 1186.73 922.775" stroke="#263238" stroke-width="0.880843" stroke-miterlimit="10" stroke-linecap="round"/>
<path d="M1195.41 825.388C1195.41 825.388 1223.79 768.623 1239.86 767.345C1255.94 766.067 1250.96 780.797 1245.98 788.329C1241.01 795.862 1225 822.899 1223.79 834.064C1222.58 845.228 1207.71 882.152 1207.71 882.152" stroke="#263238" stroke-width="0.880843" stroke-miterlimit="10" stroke-linecap="round"/>
<path d="M1223.99 834.064C1223.99 834.064 1267.24 859.957 1257.62 881.143C1248 902.329 1242.76 910.803 1235.36 908.046C1228.8 904.694 1222.93 900.13 1218.07 894.594" stroke="#263238" stroke-width="0.880843" stroke-miterlimit="10" stroke-linecap="round"/>
<path d="M1239.86 908.113C1239.86 908.113 1228.7 926.608 1220.09 937.773C1215.14 944.221 1209.27 949.909 1202.67 954.654L1197.42 972.881" stroke="#263238" stroke-width="0.880843" stroke-miterlimit="10" stroke-linecap="round"/>
<path d="M721.316 998.035C721.316 998.035 823.882 996.555 837.266 1012.9C850.65 1029.24 1012.74 1177.95 1032.31 1191.33C1051.88 1204.71 1056.12 1207.67 1056.12 1207.67C1056.12 1207.67 1136.36 1026.08 1136.36 1017.34C1136.36 1008.59 1149.81 968.307 1149.81 968.307C1149.81 968.307 1175.1 971.267 1181.08 971.267C1187.07 971.267 1203.34 990.637 1203.34 990.637C1203.34 990.637 1181.08 1081.3 1181.08 1091.52C1181.08 1101.74 1139.45 1243.18 1120.08 1286.56C1100.71 1329.95 1074.01 1323.69 1030.9 1310.31C987.786 1296.92 870.356 1230.07 870.356 1230.07" stroke="#263238" stroke-width="1.06068" stroke-miterlimit="10" stroke-linecap="round"/>
<path d="M548.871 1570.45C548.871 1570.45 489.349 1719.36 473.275 1820.72C457.201 1922.07 464.061 2159.08 459.42 2184.44C454.779 2209.79 390.348 2329.44 390.348 2387.01C390.348 2444.59 355.845 2741.52 355.845 2741.52L378.847 2755.31C378.847 2755.31 459.555 2506.46 489.349 2442.23C519.144 2378 560.708 2225.87 572.209 2195.94C583.71 2166.01 664.35 1926.58 668.924 1896.65C673.497 1866.72 701.14 1793.07 701.14 1793.07C701.14 1793.07 760.998 2159.08 772.499 2235.08C784 2311.08 864.573 2723.09 864.573 2723.09C869.864 2724.39 875.271 2725.16 880.714 2725.38C887.44 2725.38 889.929 2713.88 889.929 2713.88C889.929 2713.88 922.144 2421.52 912.93 2343.23C903.716 2264.94 876.141 2168.36 876.141 2140.65C876.141 2112.94 917.571 1873.65 917.571 1790.92C917.571 1708.2 863.766 1564.6 863.766 1564.6C863.766 1564.6 672.825 1660.91 548.871 1570.45Z" fill="#263238"/>
<path d="M875.266 2155.85C875.266 2155.85 854.753 2243.69 826.707 2290.37" stroke="white" stroke-width="0.530341" stroke-miterlimit="10" stroke-linecap="round"/>
<path d="M869.684 2245.57C869.684 2245.57 852.87 2309.06 819.242 2338.99" stroke="white" stroke-width="0.530341" stroke-miterlimit="10" stroke-linecap="round"/>
<path d="M471.728 2217.53C471.728 2217.53 484.775 2294.13 499.706 2325.88" stroke="white" stroke-width="0.530341" stroke-miterlimit="10" stroke-linecap="round"/>
<path d="M467.961 2262.39C467.961 2262.39 479.193 2316.6 499.706 2348.34" stroke="white" stroke-width="0.530341" stroke-miterlimit="10" stroke-linecap="round"/>
<path d="M707.125 1793.41L781.847 1731.74" stroke="white" stroke-width="0.530341" stroke-miterlimit="10" stroke-linecap="round"/>
<path d="M742.637 1767.25L830.474 1727.97" stroke="white" stroke-width="0.530341" stroke-miterlimit="10" stroke-linecap="round"/>
<path d="M550.149 1662.6C550.149 1662.6 608.124 1699.92 641.752 1731.74" stroke="white" stroke-width="0.530341" stroke-miterlimit="10" stroke-linecap="round"/>
<path d="M358.266 2741.32C358.266 2741.32 270.833 2815.3 270.833 2852.03C270.833 2888.75 305.336 2886.53 342.192 2852.03C379.049 2817.52 380.932 2746.43 380.932 2746.43L358.266 2741.32Z" fill="white" stroke="#263238" stroke-width="1.06068" stroke-miterlimit="10" stroke-linecap="round"/>
<path d="M864.572 2723.09C864.572 2723.09 894.501 2796.74 926.784 2829.02C959.068 2861.31 977.429 2872.74 977.429 2838.17C977.429 2803.6 956.714 2764.52 889.995 2713.88C889.928 2713.88 908.356 2727.67 864.572 2723.09Z" fill="white" stroke="#263238" stroke-width="1.06068" stroke-miterlimit="10" stroke-linecap="round"/>
<path d="M555.731 684.62C549.745 682.4 544.095 679.71 538.244 677.222C532.393 674.733 521.699 673.388 517.664 691.749C511.678 718.651 553.31 740.846 539.926 763.108C531.599 776.651 519.085 787.111 504.28 792.903C501.87 793.731 499.358 794.229 496.814 794.382C484.91 795.862 465.607 794.382 471.526 815.164C477.444 835.947 496.814 853.837 508.719 853.837H520.623C520.623 853.837 534.074 894.191 584.517 916.251C634.959 938.311 669.26 937.1 681.164 908.853C693.068 880.605 702.014 856.796 702.014 819.603C702.014 782.411 688.562 719.997 688.562 719.997C688.562 719.997 676.658 736.407 630.587 715.558C600.12 701.77 571.603 690.606 555.731 684.62Z" fill="white"/>
<mask id="mask1_6_380" style="mask-type:luminance" maskUnits="userSpaceOnUse" x="470" y="675" width="233" height="257">
<path d="M555.731 684.62C549.745 682.4 544.095 679.71 538.244 677.222C532.393 674.733 521.699 673.388 517.664 691.749C511.678 718.651 553.31 740.846 539.926 763.108C531.599 776.651 519.085 787.111 504.28 792.903C501.87 793.731 499.358 794.229 496.814 794.382C484.91 795.862 465.607 794.382 471.526 815.164C477.444 835.947 496.814 853.837 508.719 853.837H520.623C520.623 853.837 534.074 894.191 584.517 916.251C634.959 938.311 669.26 937.1 681.164 908.853C693.068 880.605 702.014 856.796 702.014 819.603C702.014 782.411 688.562 719.997 688.562 719.997C688.562 719.997 676.658 736.407 630.587 715.558C600.12 701.77 571.603 690.606 555.731 684.62Z" fill="white"/>
</mask>
<g mask="url(#mask1_6_380)">
<g style="mix-blend-mode:multiply" opacity="0.5">
<path d="M630.654 715.558C630.654 715.558 559.564 711.59 548.938 713.338C538.311 715.087 550.686 746.966 547.189 778.846C543.692 810.726 545.373 862.109 559.564 878.049C576.311 894.485 594.055 909.871 612.697 924.12C612.697 924.12 558.152 915.309 538.311 892.24C518.471 869.171 515.31 856.796 515.31 856.796C515.31 856.796 469.239 829.894 465.674 808.977C462.11 788.06 492.577 799.157 507.172 788.8C515.377 783.15 549.341 772.524 540.8 744.209C532.258 715.894 518.471 710.581 517.933 691.614C517.529 678.163 529.366 674.262 536.63 673.052C539.905 672.5 543.27 672.995 546.248 674.464L630.654 715.558Z" fill="#92E3A9"/>
</g>
</g>
<path d="M555.731 684.62C549.745 682.4 544.095 679.71 538.244 677.222C532.393 674.733 521.699 673.388 517.664 691.749C511.678 718.651 553.31 740.846 539.926 763.108C531.599 776.651 519.085 787.111 504.28 792.903C501.87 793.731 499.358 794.229 496.814 794.382C484.91 795.862 465.607 794.382 471.526 815.164C477.444 835.947 496.814 853.837 508.719 853.837H520.623C520.623 853.837 534.074 894.191 584.517 916.251C634.959 938.311 669.26 937.1 681.164 908.853C693.068 880.605 702.014 856.796 702.014 819.603C702.014 782.411 688.562 719.997 688.562 719.997C688.562 719.997 676.658 736.407 630.587 715.558C600.12 701.77 571.603 690.606 555.731 684.62Z" stroke="#263238" stroke-width="1.06068" stroke-miterlimit="10" stroke-linecap="round"/>
<path d="M608.259 772.726C609.2 778.375 607.653 783.352 604.761 783.823C601.869 784.294 598.91 780.057 598.036 774.407C597.161 768.758 598.708 763.713 601.533 763.243C604.358 762.772 607.317 767.345 608.259 772.726Z" fill="#263238"/>
<path d="M669.798 762.436C670.672 768.085 669.126 773.062 666.301 773.533C663.476 774.004 660.449 769.767 659.575 764.117C658.701 758.467 660.18 753.49 663.005 753.02C665.83 752.549 668.857 756.786 669.798 762.436Z" fill="#263238"/>
<path d="M572.612 745.285C576.375 739.691 581.48 735.129 587.46 732.016C593.44 728.902 600.105 727.337 606.846 727.462" stroke="#263238" stroke-width="1.06068" stroke-miterlimit="10" stroke-linecap="round"/>
<path d="M652.917 731.901C658.629 729.904 664.814 729.69 670.652 731.288C676.489 732.885 681.703 736.219 685.603 740.846" stroke="#263238" stroke-width="1.06068" stroke-miterlimit="10" stroke-linecap="round"/>
<path d="M646.998 757.19C646.176 766.588 646.176 776.039 646.998 785.437C648.478 797.342 657.356 800.301 654.396 809.246C651.437 818.191 639.533 818.124 639.533 818.124" stroke="#263238" stroke-width="1.06068" stroke-miterlimit="10" stroke-linecap="round"/>
<path d="M624.669 853.837C619.575 855.04 614.281 855.128 609.15 854.095C604.02 853.062 599.173 850.932 594.941 847.851" stroke="#263238" stroke-width="1.06068" stroke-miterlimit="10" stroke-linecap="round"/>
</svg>
