<svg width="2318" height="1217" viewBox="0 0 2318 1217" fill="none" xmlns="http://www.w3.org/2000/svg">
<path d="M2264.62 896.881L2218.91 897.856L2195.7 898.239C2187.93 898.414 2180.13 898.239 2172.36 898.449H2170.83V896.881L2170.62 857.787V856.045H2172.36L2218.49 856.254C2233.89 856.254 2249.26 856.637 2264.62 856.812H2265.6V857.787C2265.6 864.407 2265.32 870.993 2265.15 877.508L2264.62 896.881ZM2264.62 896.881L2264.13 877.195C2263.96 870.714 2263.75 864.303 2263.68 857.892L2264.62 858.867C2249.26 859.042 2233.89 859.425 2218.49 859.425L2172.36 859.634L2174.1 857.892V896.881L2172.53 895.347C2180.13 895.347 2187.73 895.347 2195.36 895.522L2218.04 896.114L2264.62 896.881Z" fill="#EBEBEB"/>
<path d="M2213.16 946.043L2167.45 947.019L2144.21 947.402C2136.47 947.402 2128.67 947.402 2120.9 947.611H2119.36V946.043V907.055V905.312H2121.11L2167.24 905.556C2182.6 905.556 2198 905.94 2213.37 906.114H2214.34V907.055C2214.34 913.675 2214.07 920.26 2213.89 926.775L2213.16 946.043ZM2213.16 946.043L2212.67 926.357C2212.5 919.877 2212.29 913.466 2212.22 907.055L2213.16 908.03C2197.79 908.204 2182.39 908.588 2167.03 908.588L2120.9 908.797L2122.64 907.055V946.043L2121.07 944.51C2128.67 944.51 2136.26 944.51 2143.89 944.684L2166.78 945.103L2213.16 946.043Z" fill="#EBEBEB"/>
<path d="M2316.09 946.043L2270.37 947.019L2247.17 947.402C2239.4 947.402 2231.59 947.402 2223.82 947.611H2222.29V946.043L2222.08 907.055V905.312H2223.82L2269.95 905.556C2285.35 905.556 2300.72 905.94 2316.09 906.114H2317.06V907.055C2317.06 913.675 2316.75 920.26 2316.61 926.775L2316.09 946.043ZM2316.09 946.043L2315.6 926.357C2315.6 919.877 2315.21 913.466 2315.14 907.055L2316.09 908.03C2300.72 908.204 2285.35 908.588 2269.95 908.588L2223.82 908.797L2225.56 907.055V946.043L2224 944.51C2231.63 944.51 2239.19 944.51 2246.82 944.684L2269.74 945.103L2316.09 946.043Z" fill="#EBEBEB"/>
<path d="M949.04 432.953L903.326 433.928L880.121 434.312C872.351 434.312 864.547 434.312 856.777 434.312H855.244V432.744L855.035 393.755V392.013H856.777L902.908 392.222C918.309 392.222 933.674 392.605 949.04 392.779H950.015V393.72C950.015 400.34 949.702 406.891 949.528 413.406L949.04 432.953ZM949.04 432.953L948.552 413.232C948.552 406.751 948.169 400.34 948.099 393.964L949.04 394.905C933.674 394.905 918.309 395.462 902.908 395.462L856.777 395.706L858.519 393.964L858.345 432.953L856.777 431.385C864.373 431.385 871.968 431.385 879.599 431.594L902.525 431.977L949.04 432.953Z" fill="#EBEBEB"/>
<path d="M897.508 482.116L851.794 483.091L828.554 483.474C820.819 483.474 813.015 483.474 805.245 483.649H803.712V482.081L803.433 443.162V441.42H805.175L851.307 441.629C866.672 441.629 882.073 442.012 897.438 442.186H898.414V443.162C898.414 449.782 898.135 456.332 897.961 462.848L897.508 482.116ZM897.508 482.116L897.02 462.395C896.846 455.914 896.637 449.503 896.567 443.127L897.508 444.068C882.142 444.242 866.742 444.625 851.376 444.625L805.245 444.869L806.987 443.127L806.917 482.116L805.349 480.548C812.945 480.548 820.541 480.548 828.171 480.757L851.063 481.14L897.508 482.116Z" fill="#EBEBEB"/>
<path d="M1000.5 482.116L954.789 483.091L931.584 483.474C923.814 483.474 916.044 483.474 908.239 483.649H906.706V482.081L906.497 443.162V441.42H908.239L954.371 441.629C969.771 441.629 985.137 442.012 1000.5 442.186H1001.48V443.162C1001.48 449.782 1001.16 456.332 1001.02 462.848L1000.5 482.116ZM1000.5 482.116L1000.01 462.395C1000.01 455.914 999.631 449.503 999.561 443.127L1000.5 444.068C985.137 444.242 969.771 444.625 954.371 444.625L908.239 444.869L909.981 443.127L909.807 482.116L908.239 480.548C915.87 480.548 923.431 480.548 931.061 480.757L953.987 481.14L1000.5 482.116Z" fill="#EBEBEB"/>
<path d="M196.755 690.927L151.042 691.902L127.802 692.285C120.067 692.285 112.262 692.285 104.493 692.46H103.099V690.892V651.903V650.161H104.841L150.972 650.37C166.338 650.37 181.738 650.753 197.104 650.927H198.08V651.868C198.08 658.488 197.801 665.039 197.627 671.554L196.755 690.927ZM196.755 690.927L196.268 671.206C196.268 664.725 195.884 658.314 195.815 651.938L196.755 652.879C181.39 653.053 165.99 653.436 150.624 653.436L104.493 653.68L106.235 651.938L106.06 690.927L104.493 689.359C112.088 689.359 119.684 689.359 127.314 689.568L150.206 689.951L196.755 690.927Z" fill="#EBEBEB"/>
<path d="M1726.27 432.918L1680.56 433.894L1657.35 434.277C1649.58 434.451 1641.78 434.277 1634.01 434.451H1632.48V432.883L1632.27 393.894V392.152H1634.01L1680.14 392.361C1695.54 392.361 1710.91 392.779 1726.27 392.954H1727.25V393.894C1727.25 400.514 1726.97 407.1 1726.79 413.58L1726.27 432.918ZM1726.27 432.918L1725.78 413.232C1725.61 406.716 1725.4 400.305 1725.33 393.929L1726.27 394.87C1710.91 395.044 1695.54 395.427 1680.14 395.462L1634.01 395.671L1635.75 393.929L1635.58 432.918L1634.01 431.35C1641.6 431.35 1649.2 431.35 1656.83 431.559L1679.76 431.942L1726.27 432.918Z" fill="#EBEBEB"/>
<path d="M2259.29 54.2498L2213.58 55.2254L2190.34 55.6086C2182.6 55.6086 2174.8 55.6087 2167.03 55.8177H2165.5V54.2498V15.261V13.5189H2167.24L2213.37 13.728C2228.73 13.728 2244.14 14.1461 2259.5 14.3203H2260.48V15.261C2260.48 21.8811 2260.2 28.4664 2260.02 34.9471L2259.29 54.2498ZM2259.29 54.2498L2258.8 34.5638C2258.63 28.0482 2258.42 21.6372 2258.35 15.261L2259.29 16.2018C2243.93 16.2018 2228.53 16.7593 2213.16 16.7941L2167.03 17.0032L2168.77 15.261L2168.6 54.2498L2167.03 52.6819C2174.62 52.6819 2182.22 52.6819 2189.85 52.8909L2212.74 53.2742L2259.29 54.2498Z" fill="#EBEBEB"/>
<path d="M2310.75 103.413L2265.04 104.388L2241.84 104.771C2234.07 104.946 2226.26 104.771 2218.49 104.946H2216.96V103.378L2216.75 64.389V62.6469H2218.49L2264.62 62.8559C2280.02 62.8559 2295.39 63.274 2310.75 63.4482H2311.73V64.389C2311.73 71.009 2311.42 77.5943 2311.24 84.075L2310.75 103.413ZM2310.75 103.413L2310.27 83.7265C2310.27 77.211 2309.88 70.8 2309.81 64.4238L2310.75 65.3646C2295.39 65.5388 2280.02 65.922 2264.62 65.9569L2218.49 66.1659L2220.23 64.4238V103.413L2218.67 101.845C2226.26 101.845 2233.86 101.845 2241.49 102.054L2264.41 102.437L2310.75 103.413Z" fill="#EBEBEB"/>
<path d="M93.8308 54.2846L48.0826 55.2602L24.8775 55.6434C17.1425 55.6434 9.33779 55.6434 1.56791 55.8525H0V54.2846V15.2958V13.5537H1.77696L47.9084 13.7976C63.274 13.7976 78.6395 14.1809 94.0399 14.3551H94.9806V15.2958C94.9806 21.9159 94.6671 28.5011 94.5277 35.0167L93.8308 54.2846ZM93.8308 54.2846L93.3082 34.5986C93.3082 28.083 92.9249 21.672 92.8552 15.2958L93.8308 16.2366C78.4304 16.4456 63.0649 16.7941 47.6994 16.8289L1.56791 17.038L3.31004 15.2958L3.10098 54.2846L1.56791 52.9257C9.16358 52.9257 16.7244 52.9257 24.3549 52.9257L47.2813 53.309L93.8308 54.2846Z" fill="#EBEBEB"/>
<path d="M1223.91 537.898C1219.64 541.937 1214.33 544.721 1208.58 545.947C1205.1 546.853 1201.23 547.376 1197.54 548.038H1184.92C1179.73 547.236 1174.47 546.609 1169.42 545.599C1150.54 541.546 1132.65 533.776 1116.81 522.742C1075.07 495.154 1039.91 458.732 1013.81 416.054C1005.06 401.971 999.034 386.37 996.042 370.062C995.276 365.776 994.683 361.456 994.021 357.135V344.523C995.067 339.679 995.903 334.767 997.192 329.993C998.463 325.513 1000.86 321.434 1004.16 318.147C1004.79 318.704 1005.35 319.157 1005.9 319.715C1025.97 339.761 1046.05 359.807 1066.15 379.853C1066.8 380.394 1067.26 381.125 1067.47 381.944C1067.68 382.763 1067.64 383.628 1067.33 384.417C1065.8 389.385 1065.6 394.665 1066.73 399.736C1067.87 404.808 1070.31 409.495 1073.81 413.336C1090.95 432.803 1109.3 451.167 1128.76 468.318C1132.64 471.84 1137.37 474.287 1142.48 475.418C1147.6 476.548 1152.92 476.323 1157.92 474.764C1159.38 474.381 1160.43 474.137 1161.68 475.391C1182.19 496.018 1202.75 516.598 1223.35 537.132C1223.46 537.236 1223.6 537.55 1223.91 537.898Z" fill="#EBEBEB"/>
<path d="M1263.35 492.847V497.028C1261.54 499.647 1259.57 502.16 1257.47 504.554C1251.26 511 1244.85 517.237 1238.55 523.543L1236.59 525.39L1174.64 463.475C1182.76 455.461 1190.85 447.273 1199.21 439.294C1200.12 438.453 1201.18 437.802 1202.34 437.38C1203.51 436.959 1204.74 436.775 1205.98 436.84C1207.21 436.905 1208.42 437.218 1209.53 437.759C1210.64 438.3 1211.64 439.059 1212.45 439.991C1217.12 444.52 1221.65 449.155 1226.39 453.719C1237.15 464.52 1247.99 475.252 1258.65 486.122C1260.39 488.237 1261.96 490.486 1263.35 492.847Z" fill="#EBEBEB"/>
<path d="M1100.95 344.836C1093.29 352.258 1085.45 359.505 1077.85 366.682L1016.39 305.255C1017.75 304.036 1019.32 302.746 1020.75 301.353C1026.39 295.743 1031.93 289.994 1037.68 284.489C1040.01 282.44 1042.47 280.532 1045.03 278.775H1049.25C1051.6 280.218 1053.83 281.837 1055.94 283.618C1070.99 298.53 1085.98 313.513 1100.92 328.565C1106.56 334.209 1106.56 339.296 1100.95 344.836Z" fill="#EBEBEB"/>
<path d="M70.9044 379.017H474.137V123.203H70.9044V379.017Z" fill="#EBEBEB"/>
<path d="M549.571 379.017H474.137V300.447L549.571 379.017Z" fill="#EBEBEB"/>
<path d="M427.448 167.418H117.559V172.296H427.448V167.418Z" fill="white"/>
<path d="M277.73 193.689H117.559V198.567H277.73V193.689Z" fill="white"/>
<path d="M368.146 246.197H117.559V251.075H368.146V246.197Z" fill="white"/>
<path d="M427.448 272.433H117.559V277.311H427.448V272.433Z" fill="white"/>
<path d="M427.448 298.67H117.559V303.548H427.448V298.67Z" fill="white"/>
<path d="M227.661 324.941H117.559V329.819H227.661V324.941Z" fill="white"/>
<path d="M2246.75 481.175H1843.52V706.78H2246.75V481.175Z" fill="#DBDBDB"/>
<path d="M1768.08 706.815H1843.52V628.245L1768.08 706.815Z" fill="#DBDBDB"/>
<path d="M2160.9 598.977H1891.11V603.855H2160.9V598.977Z" fill="white"/>
<path d="M2105.43 625.248H1891.11V630.126H2105.43V625.248Z" fill="white"/>
<path d="M2121.59 546.47H1891.11V551.348H2121.59V546.47Z" fill="white"/>
<path d="M2192.05 520.233H1891.11V525.111H2192.05V520.233Z" fill="white"/>
<path d="M2127.66 651.485H1891.11V656.363H2127.66V651.485Z" fill="white"/>
<path d="M2043.02 241.389H1302.59V273.862H2043.02V241.389Z" fill="#EBEBEB"/>
<path d="M1376.56 273.897H1344.08V381.281H1376.56V273.897Z" fill="#EBEBEB"/>
<path d="M1376.56 273.897H1344.08V307.102H1376.56V273.897Z" fill="#DBDBDB"/>
<path d="M2001.53 273.897H1969.05V381.281H2001.53V273.897Z" fill="#EBEBEB"/>
<path d="M2001.53 273.897H1969.05V307.102H2001.53V273.897Z" fill="#DBDBDB"/>
<path d="M1492.93 241.389V34.4592H1440.81V241.389H1492.93Z" fill="#C7C7C7"/>
<path d="M1492.93 46.1315V23.3794L1440.81 23.3794V46.1315H1492.93Z" fill="#DBDBDB"/>
<path d="M1492.9 83.7265V75.2947H1440.77V83.7265H1492.9Z" fill="#DBDBDB"/>
<path d="M1499.41 214.281V191.529H1440.81V214.281H1499.41Z" fill="#DBDBDB"/>
<path d="M1529.34 241.389V0L1492.93 0V241.389H1529.34Z" fill="#DBDBDB"/>
<path d="M1521.92 115.538V22.6824H1500.07V115.538H1521.92Z" fill="#EBEBEB"/>
<path d="M1788.32 215.604L1616.65 45.9025L1591.06 71.7964L1762.73 241.498L1788.32 215.604Z" fill="#C7C7C7"/>
<path d="M1743.02 180.902L1676.99 115.623L1661.63 131.159L1727.66 196.439L1743.02 180.902Z" fill="#DBDBDB"/>
<path d="M1591.15 241.459V58.0825L1529.31 58.0825V241.459H1591.15Z" fill="#A6A6A6"/>
<path d="M1591.15 221.981V204.909H1529.31V221.981H1591.15Z" fill="#C7C7C7"/>
<path d="M1591.15 193.724V187.104H1529.31V193.724H1591.15Z" fill="#C7C7C7"/>
<path d="M1440.81 241.458V69.1276H1398.09V241.458H1440.81Z" fill="#A6A6A6"/>
<path d="M1440.81 223.166V207.104H1398.09V223.166H1440.81Z" fill="#C7C7C7"/>
<path d="M1440.81 120.694V104.632H1398.09V120.694H1440.81Z" fill="#C7C7C7"/>
<path d="M1440.81 137.941V131.705H1398.09V137.941H1440.81Z" fill="#C7C7C7"/>
<path d="M1965.19 161.112L1960.55 173.411L1957.7 180.902L1953.03 193.236L1934.84 241.424H1836.48L1818.22 193.236L1813.55 180.902L1810.73 173.411L1806.06 161.112L1842.37 108.186L1823.55 73.3086H1947.8L1928.88 108.186L1965.19 161.112Z" fill="#DBDBDB"/>
<path d="M1965.19 161.112L1960.55 173.411H1810.73L1806.06 161.112H1965.19Z" fill="#A6A6A6"/>
<path d="M1957.7 180.902L1953.03 193.236H1818.22L1813.55 180.902H1957.7Z" fill="#A6A6A6"/>
<path d="M46.7238 1180.53L324.767 1179.7L602.775 1179.38L1158.83 1178.83L1714.88 1179.38L1992.89 1179.7L2270.93 1180.53L1992.89 1181.4L1714.88 1181.72L1158.83 1182.28L602.775 1181.72L324.767 1181.4L46.7238 1180.53Z" fill="#263238"/>
<path d="M1128.65 1180.46H1556.03L1470.84 684.759H1151.23L1128.65 1180.46Z" fill="#DBDBDB"/>
<path d="M1128.65 1180.46H1166.14L1187.15 684.759H1151.23L1128.65 1180.46Z" fill="#A6A6A6"/>
<path d="M1500 781.935C1548.37 889.947 1665.23 1069.21 1717.53 1024.79C1795.75 958.378 1848.71 811.482 1869.61 752.075C1881.36 718.801 1711.85 663.122 1701.46 693.331C1686.69 736.257 1663.52 825.976 1650.11 838.694C1643.14 845.349 1587.6 767.406 1545.58 730.438C1484.92 677.164 1484.57 747.441 1500 781.935Z" fill="#AD6359"/>
<path d="M1911.95 702.076C1896.86 736.013 1838.78 793.398 1819.47 801.865C1800.17 810.332 1698.22 718.243 1700.35 696.571C1702.47 674.899 1763.31 561.382 1797 543.961C1830.69 526.54 1927.59 666.885 1911.95 702.076Z" fill="#AD6359"/>
<path d="M1708.33 672.739C1708.33 672.739 1710.77 624.447 1698.57 583.612C1688.33 549.292 1669.27 499.502 1687.49 493.3C1724.98 480.583 1772.51 604.796 1772.51 604.796C1772.51 604.796 1784.7 662.983 1748.71 678.871C1726.13 688.836 1708.33 672.739 1708.33 672.739Z" fill="#AD6359"/>
<path d="M1750.59 581.138C1753.03 600.685 1774.67 586.608 1774.67 586.608C1774.67 586.608 1748.43 614.482 1758.74 633.541C1768.78 651.973 1794.28 634.029 1796.13 632.775C1794.74 634.273 1771.32 660.405 1783.69 678.592C1796.55 697.477 1819.06 675.108 1820.52 673.645C1819.65 675.422 1808.71 699.498 1821.25 711.205C1842.78 731.239 1872.47 670.474 1895.33 663.68C1895.33 663.68 1911.29 701.066 1911.95 702.007C1911.95 702.007 1941.39 644.725 1930.52 614.412C1928.99 609.984 1926.01 606.207 1922.05 603.705C1918.09 601.203 1913.4 600.125 1908.74 600.65C1908.74 600.65 1920.27 583.228 1911.01 568.595C1906.2 561.103 1890.1 562.079 1890.1 562.079C1890.1 562.079 1898.74 547.759 1889.68 535.285C1882.47 525.285 1867.31 527.829 1867.31 527.829C1867.31 527.829 1869.23 510.199 1858.57 502.394C1836.9 486.645 1745.33 539.292 1750.59 581.138Z" fill="#AD6359"/>
<path d="M1864.7 527.933C1865.01 527.759 1864.7 527.306 1864.53 527.411C1830.17 537.376 1795.5 558.769 1773.41 587.235C1772.68 588.176 1773.87 589.744 1774.88 588.873C1803.41 563.961 1830.42 544.205 1864.7 527.933Z" fill="#263238"/>
<path d="M1890.31 561.626C1890.69 561.452 1890.31 560.825 1890 560.929C1854.63 571.382 1816.27 596.678 1794.63 632.391C1793.9 633.611 1794.46 635.457 1795.43 634.133C1811.6 611.555 1859.37 576.155 1890.31 561.626Z" fill="#263238"/>
<path d="M1819.86 676.606C1841.91 643.158 1872.47 620.127 1907.28 600.998C1907.7 600.754 1907.28 600.162 1906.89 600.266C1887.31 604.97 1866.41 619.465 1851.15 632.147C1836.7 643.621 1825.53 658.688 1818.74 675.84C1818.43 676.606 1819.4 677.373 1819.86 676.606Z" fill="#263238"/>
<path d="M1773.97 586.573C1773.1 587.688 1775.71 587.723 1774.88 588.873C1771.39 593.681 1752.75 624.517 1761.29 634.168C1768.26 641.868 1783.2 637.966 1788.43 634.168L1801.5 624.726L1792.51 638.28C1788.46 644.218 1785.4 650.772 1783.45 657.687C1782.37 660.836 1781.96 664.179 1782.27 667.494C1782.58 670.81 1783.58 674.023 1785.22 676.92C1786.76 679.605 1789.18 681.677 1792.07 682.788C1794.95 683.899 1798.14 683.98 1801.08 683.017C1807.63 680.762 1813.5 676.863 1818.12 671.694L1831.36 657.757L1823.41 675.178C1821.19 679.998 1819.59 685.078 1818.64 690.299C1817.57 695.207 1817.97 700.32 1819.79 705.003C1820.69 707.065 1822.14 708.837 1823.99 710.122C1825.83 711.408 1828 712.157 1830.24 712.285C1835.33 711.769 1840.16 709.81 1844.18 706.641C1852.98 699.919 1861.23 692.521 1868.88 684.516C1872.89 680.613 1876.9 676.676 1881.11 672.913C1885.07 668.951 1889.82 665.864 1895.05 663.854C1890.08 666.372 1885.65 669.84 1882.02 674.063C1878.15 678.07 1874.46 682.251 1870.76 686.467C1863.51 695.17 1855.46 703.184 1846.72 710.404C1842.04 714.378 1836.3 716.908 1830.21 717.686C1826.85 717.718 1823.55 716.778 1820.71 714.979C1817.87 713.18 1815.62 710.599 1814.21 707.547C1811.77 701.799 1811.11 695.453 1812.3 689.324C1813.23 683.494 1814.93 677.812 1817.35 672.425L1822.65 675.91C1817.28 682.106 1810.38 686.79 1802.65 689.498C1798.31 690.885 1793.63 690.712 1789.41 689.01C1785.33 687.222 1781.88 684.248 1779.51 680.474C1777.44 676.797 1776.16 672.722 1775.78 668.518C1775.4 664.314 1775.91 660.076 1777.28 656.084C1779.51 648.511 1782.98 641.363 1787.56 634.935L1791.64 638.907C1784.67 643.436 1768.5 649.638 1756.34 639.081C1742.89 622.74 1768.85 591.869 1773.97 586.573Z" fill="#263238"/>
<path d="M1774.67 586.608C1770.9 588.111 1766.93 589.039 1762.89 589.361C1761.27 589.528 1759.63 589.258 1758.15 588.578C1756.66 587.898 1755.39 586.833 1754.46 585.493C1752.82 582.269 1752.15 578.637 1752.54 575.041C1752.75 571.068 1753.17 566.922 1753.8 562.637C1751.14 566.138 1749.27 570.164 1748.29 574.448C1747.62 576.76 1747.42 579.181 1747.68 581.573C1747.95 583.965 1748.69 586.28 1749.86 588.385C1751.38 590.572 1753.53 592.248 1756.03 593.193C1758.43 593.977 1761 594.074 1763.45 593.472C1767.82 592.423 1771.74 590.021 1774.67 586.608Z" fill="#263238"/>
<path d="M1691.15 696.571L1867.59 819.461C1867.59 819.461 1762.19 1037.82 1697.07 1037.23C1631.95 1036.63 1537.88 873.083 1505.44 802.388C1473 731.692 1492.34 671.798 1557.98 736.187C1623.63 800.576 1647.14 827.126 1649.27 826.255C1653.24 824.652 1691.15 696.571 1691.15 696.571Z" fill="#C8F1D4"/>
<path d="M1867.59 819.461C1867.59 819.461 1794.42 970.886 1732.44 1021.2C1720 1031.3 1708.05 1037.33 1697.07 1037.19C1631.95 1036.63 1537.88 873.048 1505.27 802.388C1485.09 758.626 1484.92 719.01 1503.24 710.473C1514.57 705.212 1532.86 711.693 1557.84 736.292C1624.04 801.133 1646.97 827.196 1649.13 826.325C1653.24 824.652 1691.18 696.606 1691.18 696.606L1867.59 819.461Z" fill="#C8F1D4"/>
<path d="M1758.4 995.415C1756.24 997.924 1754.04 1000.36 1751.85 1002.73C1731.99 1015.23 1709.71 1023.39 1686.48 1026.67C1680.07 1027.38 1673.62 1027.63 1667.18 1027.44L1663.17 1024.93C1670.86 1025.39 1678.58 1025.19 1686.24 1024.33C1695.4 1023.33 1704.42 1021.25 1713.1 1018.13L1719.69 1015.97L1726.06 1013.29C1728.19 1012.38 1730.38 1011.62 1732.44 1010.57L1738.61 1007.44C1745.47 1003.88 1752.08 999.864 1758.4 995.415ZM1624.53 803.05C1604.4 812.207 1586.03 824.839 1570.28 840.366C1560.06 850.432 1550.62 861.252 1542.02 872.735C1542.44 873.501 1542.9 874.303 1543.38 875.069C1552.08 863.394 1561.67 852.409 1572.06 842.213C1585.26 829.244 1600.3 818.29 1616.69 809.705L1622.86 806.569C1623.99 805.995 1625.15 805.483 1626.34 805.036L1624.53 803.05ZM1776.93 814.165C1760.2 805.975 1742.69 799.473 1724.67 794.757C1722.79 794.304 1720.91 793.851 1718.99 793.468C1717.77 793.189 1716.52 792.911 1715.3 792.702C1700.07 789.51 1684.43 788.711 1668.96 790.332C1666.69 790.646 1664.46 790.994 1662.2 791.412C1661.95 792.214 1661.67 793.05 1661.43 793.817C1664.01 793.364 1666.62 792.98 1669.23 792.667C1683.6 791.149 1698.11 791.748 1712.3 794.444L1716.1 795.14C1718.78 795.698 1721.46 796.29 1724.15 796.952C1742.02 801.558 1759.38 807.931 1775.99 815.976C1800.87 828.18 1825 841.851 1848.25 856.916C1848.6 856.324 1848.92 855.732 1849.2 855.174C1825.94 840.079 1801.81 826.385 1776.93 814.165ZM1795.22 769.078C1766.98 770.245 1739.45 778.359 1715.09 792.702L1712.09 794.444C1705.94 798.131 1699.99 802.155 1694.29 806.499C1664.43 829.216 1640.59 858.414 1617.91 887.787C1606.55 902.525 1595.4 917.368 1583.63 931.723C1582.79 932.768 1581.92 933.779 1581.05 934.824L1582.37 936.74C1583.38 935.556 1584.39 934.371 1585.37 933.256C1597.21 918.866 1608.4 904.023 1619.79 889.32C1642.47 860.052 1666.27 831.063 1695.82 808.659C1702.22 803.774 1708.93 799.294 1715.89 795.245C1716.83 794.653 1717.8 794.095 1718.78 793.573C1726.89 789.018 1735.35 785.104 1744.08 781.865L1750.59 779.496C1752.75 778.73 1755.02 778.207 1757.25 777.545L1763.9 775.698L1770.87 774.339C1779.87 772.311 1789.07 771.352 1798.29 771.482H1798.71L1795.22 769.078ZM1578.68 756.918C1566.51 762.328 1553.78 766.405 1540.73 769.078L1533.94 770.402C1531.68 770.82 1529.38 770.96 1526.97 771.273L1520 772.075L1513.04 772.354C1506.67 772.795 1500.28 772.679 1493.94 772.005L1494.57 774.305C1524.02 776.454 1553.54 771.133 1580.39 758.835C1580 758.173 1579.34 757.545 1578.68 756.918ZM1528.44 713.644C1516.1 722.026 1503.3 729.714 1490.11 736.675C1490.11 737.616 1490.11 738.556 1490.11 739.532C1504.19 732.17 1517.8 723.955 1530.87 714.933C1530.04 714.48 1529.24 714.027 1528.44 713.644Z" fill="white"/>
<path d="M1825.89 839.948C1821.22 836.08 1816.51 832.317 1811.77 828.554C1802.16 820.959 1792.54 813.398 1782.93 805.872C1763.76 790.925 1744.18 776.5 1724.46 762.319C1713.27 754.235 1702.26 745.734 1690.73 738.173C1690.68 738.132 1690.61 738.102 1690.55 738.085C1690.48 738.068 1690.41 738.064 1690.34 738.074C1690.28 738.083 1690.21 738.106 1690.15 738.141C1690.09 738.176 1690.04 738.223 1690 738.278C1689.96 738.332 1689.93 738.395 1689.91 738.461C1689.89 738.528 1689.89 738.597 1689.9 738.665C1689.91 738.733 1689.93 738.798 1689.97 738.857C1690 738.916 1690.05 738.968 1690.1 739.009C1699.27 747.093 1709.09 754.479 1718.61 762.179C1728.12 769.88 1737.56 777.615 1747.21 785.141C1766.4 800.053 1785.82 814.675 1805.47 829.007C1810.94 833.049 1816.34 837.3 1822.02 841.098C1824.91 843.049 1827.66 845.209 1830.59 847.091C1833.52 848.972 1836.65 850.575 1839.51 852.7C1839.57 852.738 1839.65 852.75 1839.72 852.736C1839.8 852.721 1839.86 852.681 1839.91 852.622C1839.96 852.563 1839.98 852.489 1839.98 852.414C1839.97 852.339 1839.94 852.267 1839.89 852.212C1835.12 848.206 1830.66 843.85 1825.89 839.948Z" fill="#263238"/>
<path d="M1650.63 822.352C1643.89 840.555 1638.35 859.177 1634.04 878.1C1631.74 887.438 1629.93 896.881 1628.15 906.288C1626.27 915.637 1625.02 925.1 1624.39 934.615C1624.39 934.963 1624.91 934.963 1624.98 934.615C1627.91 925.521 1630.07 916.044 1632.16 906.741C1634.25 897.438 1636.62 888.065 1638.71 878.867C1642.93 860.122 1647.88 841.551 1651.53 822.701C1651.56 822.641 1651.57 822.578 1651.57 822.514C1651.56 822.451 1651.55 822.388 1651.52 822.33C1651.5 822.271 1651.46 822.219 1651.42 822.175C1651.37 822.131 1651.31 822.097 1651.26 822.074C1651.2 822.051 1651.13 822.04 1651.07 822.042C1651 822.043 1650.94 822.057 1650.88 822.083C1650.83 822.109 1650.77 822.146 1650.73 822.192C1650.69 822.239 1650.65 822.293 1650.63 822.352Z" fill="#263238"/>
<path opacity="0.1" d="M1732.44 1021.2C1720 1031.3 1708.05 1037.33 1697.07 1037.19C1631.95 1036.63 1537.88 873.048 1505.27 802.388C1485.09 758.626 1484.92 719.01 1503.24 710.473L1732.44 1021.2Z" fill="black"/>
<path d="M1631.43 1180.46H1207.85C1203.18 1171.89 1272.59 800.889 1415.44 696.397C1447.15 673.227 1503.38 688.139 1518.99 710.682C1597.6 823.955 1631.43 1180.46 1631.43 1180.46Z" fill="#C8F1D4"/>
<path d="M1609.41 1015.76C1598.84 1012.02 1588.47 1007.7 1578.36 1002.84C1564.18 996.042 1550.49 988.516 1536.87 980.572L1534.88 979.388C1520.94 971.13 1507.01 962.384 1493.35 953.569L1491.4 952.315L1482.13 946.322C1450.77 926.218 1419.9 905.521 1386.42 889.424C1369.87 881.148 1352.29 875.103 1334.15 871.446C1325.05 869.822 1315.79 869.307 1306.56 869.912C1304.26 869.912 1301.99 870.4 1299.59 870.714C1298.02 871.027 1296.45 871.236 1294.85 871.55C1295.1 870.993 1295.3 870.47 1295.58 869.912C1296.84 869.669 1298.13 869.459 1299.38 869.181C1301.68 868.902 1304.02 868.554 1306.35 868.379C1315.67 867.754 1325.03 868.257 1334.22 869.878C1352.55 873.504 1370.32 879.562 1387.04 887.891C1420.7 903.988 1451.78 924.685 1483.07 944.719L1492.27 950.608L1494.26 951.862C1508.19 960.816 1522.13 969.701 1536.59 978.098L1538.57 979.283C1551.81 986.983 1565.3 994.3 1579.17 1000.89C1588.85 1005.52 1598.77 1009.65 1608.89 1013.25L1609.41 1015.76ZM1571.71 838.868L1570.28 840.227C1543.42 866.393 1523.35 898.309 1504.43 930.225C1500.43 937.031 1496.42 943.825 1492.37 950.608C1492.06 951.2 1491.75 951.757 1491.4 952.315C1486.28 960.956 1481.12 969.562 1475.75 978.029C1471.05 985.485 1466.14 992.837 1460.91 999.945C1460.42 1000.61 1459.97 1001.27 1459.48 1001.9C1454.19 1009.04 1448.49 1015.87 1442.41 1022.35C1436.07 1029.08 1429.06 1035.15 1421.5 1040.47L1418.68 1042.45C1417.74 1043.11 1416.7 1043.64 1415.72 1044.23L1409.76 1047.71C1405.66 1049.79 1401.42 1051.59 1397.08 1053.11C1379.5 1058.95 1361.1 1061.93 1342.59 1061.93C1324.13 1061.86 1305.74 1059.76 1287.74 1055.69C1270.32 1052 1253.42 1047.05 1236.39 1042.1C1236.39 1042.66 1236.11 1043.22 1235.93 1043.74C1252.94 1048.72 1270.01 1053.74 1287.36 1057.47C1305.57 1061.62 1324.18 1063.77 1342.86 1063.88C1361.59 1063.89 1380.2 1060.9 1397.99 1055.03C1402.43 1053.5 1406.76 1051.68 1410.95 1049.56L1417.04 1046.08C1418.07 1045.53 1419.07 1044.92 1420.04 1044.26L1422.93 1042.24C1430.61 1036.87 1437.72 1030.73 1444.15 1023.92C1450.64 1016.97 1456.71 1009.66 1462.34 1002C1462.86 1001.34 1463.31 1000.71 1463.77 1000.05C1468.72 993.29 1473.38 986.356 1477.7 979.318C1483.11 970.851 1488.16 962.245 1493.38 953.639L1494.39 951.932L1506.48 931.514C1525.44 899.633 1545.51 867.996 1572.09 842.143L1572.55 841.725C1572.23 840.714 1571.95 839.774 1571.71 838.868ZM1591.81 921.619C1589.13 925.103 1586.41 928.378 1583.66 931.723C1572.12 946.225 1559.23 959.595 1545.16 971.652C1542.37 973.848 1539.59 976.043 1536.69 978.098L1534.88 979.388C1530.85 982.233 1526.62 984.795 1522.23 987.053L1519.2 988.691C1518.19 989.248 1517.08 989.631 1516.03 990.119L1509.69 992.837C1505.37 994.398 1500.94 995.667 1496.45 996.635C1485.65 998.947 1474.64 1000.12 1463.59 1000.12H1460.91C1454.36 1000.12 1447.81 999.596 1441.29 998.899C1422.91 996.584 1404.83 992.249 1387.39 985.973C1369.97 979.945 1352.79 972.524 1335.72 965.067C1318.73 957.38 1301.27 950.759 1283.46 945.242C1278.2 943.744 1273.01 942.42 1267.43 941.444L1266.91 942.942C1272.34 943.953 1277.74 945.242 1283.01 946.775C1300.72 952.309 1318.07 958.942 1334.96 966.635C1352.03 973.987 1369.1 981.443 1386.7 987.541C1404.28 993.869 1422.51 998.262 1441.05 1000.64C1447.18 1001.34 1453.32 1001.79 1459.45 1001.9C1460.35 1001.9 1461.22 1001.9 1462.13 1001.9C1473.83 1002.09 1485.51 1000.99 1496.97 998.621C1501.55 997.608 1506.07 996.317 1510.49 994.753L1516.97 991.966C1518.05 991.478 1519.13 991.095 1520.18 990.537L1523.28 988.865C1528.04 986.44 1532.6 983.656 1536.94 980.537L1538.75 979.248C1541.4 977.332 1544.01 975.311 1546.59 973.255C1560.8 961.15 1573.82 947.709 1585.47 933.117C1587.8 930.26 1590.12 927.368 1592.44 924.441C1592.23 923.535 1592.02 922.559 1591.81 921.619ZM1548.05 767.441C1545.61 768.033 1543.17 768.591 1540.73 769.078L1533.94 770.402C1531.68 770.82 1529.38 770.96 1526.97 771.273L1520 772.075L1513.04 772.354C1503.83 772.949 1494.6 772.458 1485.51 770.89C1471.26 768.427 1457.45 763.859 1444.53 757.336L1441.05 755.629C1438.61 754.375 1436.21 753.051 1433.84 751.692C1417.89 742.327 1402.92 731.378 1389.17 719.01L1387.64 720.543C1401.52 733.043 1416.61 744.131 1432.69 753.643C1434.36 754.619 1436.17 755.559 1437.78 756.465L1441.26 758.207C1455.04 765.436 1469.84 770.501 1485.16 773.225C1506.39 776.205 1528 775.021 1548.78 769.74C1548.64 768.974 1548.33 768.207 1548.05 767.441ZM1523.24 717.093C1504.74 729.505 1484.99 739.956 1464.33 748.277C1456.83 751.198 1449.16 753.653 1441.36 755.629L1438.09 756.465C1429.03 758.571 1419.83 760.004 1410.56 760.751L1403.59 761.204C1401.3 761.378 1399 761.204 1396.63 761.204H1389.66L1382.69 760.646C1374.29 760.161 1365.98 758.771 1357.88 756.5C1357.39 757.162 1356.91 757.824 1356.45 758.521C1384.28 765.509 1413.42 765.401 1441.19 758.207L1444.67 757.336C1451.62 755.496 1458.46 753.262 1465.16 750.647C1485.94 742.269 1505.79 731.76 1524.39 719.288L1523.24 717.093ZM1627.46 1144.02C1623.97 1144.02 1620.21 1144.33 1616.59 1144.44H1616.31L1614.18 1144.61C1596.33 1146.48 1578.97 1151.64 1563 1159.84C1551.57 1165.81 1540.65 1172.7 1530.35 1180.46H1532.55C1542.37 1173.19 1552.77 1166.71 1563.63 1161.09C1579.74 1152.86 1597.26 1147.75 1615.26 1146H1616.55H1617.39C1620.87 1146 1624.15 1145.62 1627.49 1145.66C1627.56 1145.03 1627.53 1144.54 1627.46 1144.02ZM1629.27 1160.05C1625.48 1155.24 1621.57 1150.51 1617.53 1145.86C1617.14 1145.38 1616.73 1144.92 1616.31 1144.47L1614.88 1142.8C1602.71 1128.61 1588.7 1116.1 1573.24 1105.59C1565.4 1100.47 1556.95 1096.34 1548.09 1093.29C1545.89 1092.56 1543.59 1091.93 1541.36 1091.3C1539.13 1090.67 1536.8 1090.19 1534.39 1089.87C1529.79 1089 1525.09 1088.93 1520.46 1088.48C1501.72 1087.79 1483.04 1090.77 1465.44 1097.22C1448.01 1103.85 1431.36 1112.38 1415.79 1122.66C1387.92 1140.6 1362.52 1161.72 1335.37 1180.46H1336.52C1363.53 1162.03 1388.79 1141.3 1416.38 1123.74C1431.89 1113.54 1448.48 1105.09 1465.86 1098.55C1483.28 1092.17 1501.78 1089.25 1520.32 1089.94C1524.88 1090.43 1529.55 1090.5 1534.08 1091.37C1536.38 1091.68 1538.57 1092.35 1540.84 1092.8C1543.1 1093.25 1545.3 1094.02 1547.46 1094.75C1556.19 1097.77 1564.51 1101.87 1572.23 1106.95C1587.56 1117.39 1601.42 1129.83 1613.45 1143.95C1613.66 1144.19 1613.87 1144.4 1614.04 1144.65L1615.26 1146C1620.14 1151.68 1624.91 1157.47 1629.51 1163.43C1629.55 1162.31 1629.41 1161.23 1629.2 1160.05H1629.27Z" fill="white"/>
<path d="M1359.21 741.866C1272.97 841.62 1156.74 1017.82 1204.23 1056.77C1282.31 1120.81 1510.35 1157.82 1562.69 1164.02C1585.26 1166.74 1630.49 1019.14 1615.4 1000.05C1600.32 980.955 1359.21 967.472 1357.57 952.663C1356.63 944.266 1393.25 871.236 1416.8 781.656C1443.87 678.383 1383.49 713.748 1359.21 741.866Z" fill="#AD6359"/>
<path d="M1575.89 987.889C1575.89 987.889 1645.09 987.367 1690.35 989.144C1715.61 990.119 1758.74 995.694 1776.97 1004.93C1804.21 1018.69 1909.37 1093.78 1891.74 1119.66C1875.75 1143.08 1793.59 1067.12 1793.59 1067.12C1793.59 1067.12 1883.27 1136.46 1858.85 1161.2C1834.42 1185.93 1753 1087.75 1753 1087.75C1753 1087.75 1843.59 1160.92 1814.35 1182.52C1792.26 1198.72 1713.52 1113.98 1713.52 1113.98C1713.52 1113.98 1790.9 1177.5 1768.92 1195.17C1744.53 1214.68 1667 1141.02 1667 1141.02C1603.59 1176.49 1558.99 1167.43 1527.63 1157.22C1520.28 1154.61 1575.89 987.889 1575.89 987.889Z" fill="#AD6359"/>
<path d="M1764.11 1041.16C1774.95 1048.93 1785.96 1056.7 1796.06 1065.55C1806.17 1074.4 1815.96 1083.29 1825.22 1092.9C1847.91 1116.46 1858.43 1134.72 1857.63 1133.67C1839.37 1108.62 1803.69 1076.95 1793.59 1068.24C1783.48 1059.53 1773.83 1050.36 1763.76 1041.69C1763.52 1041.3 1763.87 1040.99 1764.11 1041.16Z" fill="#263238"/>
<path d="M1732.06 1077.09C1745.43 1087.54 1759.13 1097.5 1772.05 1108.62C1784.98 1119.73 1802.47 1135.76 1814.56 1147.68C1815.47 1148.58 1814.56 1150.32 1813.59 1149.45C1801.04 1138.03 1782.4 1122.42 1769.72 1111.13C1757.04 1099.84 1744.81 1088.1 1731.78 1077.33C1731.57 1077.3 1731.85 1076.91 1732.06 1077.09Z" fill="#263238"/>
<path d="M1698.89 1102.94C1720.17 1117.96 1738.68 1136.88 1756.38 1155.86C1757.28 1156.81 1756.38 1156.94 1755.26 1156.04C1736.48 1138.1 1721.85 1123.88 1698.36 1103.78C1698.08 1103.36 1698.54 1102.63 1698.89 1102.94Z" fill="#263238"/>
<path d="M1566.17 985.694C1597.74 985.485 1690.45 985.241 1721.95 987.68C1749.82 989.805 1772.79 995.798 1796.17 1011.27C1846.34 1044.44 1878.67 1083.39 1886.76 1094.89C1891.63 1101.86 1898.71 1113.11 1892.26 1120.92C1884.35 1130.39 1855.26 1121.13 1824.56 1093.36C1823.45 1092.35 1824.14 1091.72 1825.29 1092.66C1868.39 1127.5 1885.54 1123.53 1890.03 1117.57C1892.96 1113.71 1890.03 1107.12 1887.52 1101.89C1883.33 1094.5 1878.2 1087.67 1872.26 1081.58C1852.46 1060.4 1830.56 1041.29 1806.9 1024.54C1781.54 1005.62 1751.34 994.273 1719.79 991.826C1687.53 989.178 1598.26 990.015 1566.03 986.914C1565.37 986.704 1565.47 985.729 1566.17 985.694Z" fill="#263238"/>
<path d="M1863.97 1147.26C1862.19 1138.65 1855.99 1130.78 1851.08 1123.67C1845.11 1114.73 1838.26 1106.4 1830.62 1098.83C1830.31 1098.51 1829.72 1098.83 1830.03 1099.32C1836.53 1106.91 1842.57 1114.9 1848.12 1123.22C1851.06 1127.79 1853.74 1132.54 1856.13 1137.43C1858.39 1142.14 1861.08 1147.57 1859.89 1152.94C1857.66 1163.18 1844.63 1162.94 1836.93 1160.19C1831.94 1158.31 1827.14 1155.98 1822.58 1153.22C1816.36 1149.26 1810.47 1144.82 1804.95 1139.94C1804.49 1139.52 1803.24 1139.7 1803.73 1140.15C1815.22 1151.09 1837 1173.84 1854.77 1165.52C1858.18 1164.01 1860.96 1161.36 1862.64 1158.04C1864.32 1154.71 1864.79 1150.9 1863.97 1147.26Z" fill="#263238"/>
<path d="M1576.94 978.935L1494.05 1167.08C1494.05 1167.08 1204.37 1101.68 1187.57 1046.7C1170.78 991.722 1261.54 844.617 1343.46 752.772C1424.01 662.53 1435.93 723.748 1415.89 793.538C1395.86 863.327 1363 943.779 1366.66 949.806C1370.32 955.834 1576.94 978.935 1576.94 978.935Z" fill="#C8F1D4"/>
<path d="M1385.3 887.055C1385.09 887.578 1384.92 888.135 1384.71 888.658C1368.62 880.743 1351.57 874.957 1333.98 871.446C1324.88 869.822 1315.61 869.307 1306.38 869.912C1304.08 869.912 1301.82 870.4 1299.42 870.714C1297.01 871.027 1294.89 871.411 1292.66 872.038C1288.13 873.013 1283.84 874.756 1279.42 876.114C1262.34 882.611 1246.68 892.335 1233.28 904.755L1235.48 900.957C1248.26 889.675 1262.96 880.787 1278.89 874.721C1283.35 873.327 1287.71 871.55 1292.31 870.575C1294.57 869.947 1296.91 869.669 1299.28 869.181C1301.65 868.693 1303.91 868.554 1306.24 868.379C1315.56 867.754 1324.92 868.257 1334.12 869.878C1351.85 873.354 1369.06 879.128 1385.3 887.055ZM1538.61 979.283L1536.62 978.098L1528.68 973.395L1523.87 972.837C1527.36 975.032 1531.15 977.262 1534.81 979.388L1536.8 980.572C1547.25 986.67 1557.7 992.523 1568.43 997.993L1569.27 996.077C1558.96 990.746 1548.75 985.137 1538.61 979.283ZM1482.06 967.75C1479.97 971.234 1477.84 974.719 1475.68 978.029C1470.98 985.485 1466.07 992.837 1460.84 999.945C1460.35 1000.61 1459.9 1001.27 1459.41 1001.9C1454.12 1009.04 1448.42 1015.87 1442.34 1022.35C1436 1029.08 1428.99 1035.15 1421.43 1040.47L1418.61 1042.45C1417.67 1043.11 1416.63 1043.64 1415.65 1044.23L1409.69 1047.71C1405.59 1049.79 1401.35 1051.59 1397.01 1053.11C1379.43 1058.95 1361.04 1061.93 1342.52 1061.93C1324.09 1061.85 1305.72 1059.76 1287.74 1055.69C1269.59 1051.83 1251.79 1046.56 1233.91 1041.37C1218.06 1036.77 1202.1 1032.14 1185.79 1029.11C1185.79 1029.67 1185.79 1030.22 1185.79 1030.75C1201.93 1033.78 1217.71 1038.45 1233.49 1043.01C1251.33 1048.24 1269.21 1053.46 1287.43 1057.47C1305.64 1061.62 1324.25 1063.77 1342.93 1063.88C1361.66 1063.89 1380.27 1060.9 1398.05 1055.03C1402.49 1053.5 1406.83 1051.68 1411.02 1049.56L1417.11 1046.08C1418.14 1045.53 1419.14 1044.92 1420.11 1044.26L1423 1042.24C1430.68 1036.87 1437.79 1030.73 1444.22 1023.92C1450.71 1016.97 1456.78 1009.66 1462.41 1002C1462.93 1001.34 1463.38 1000.71 1463.84 1000.05C1468.79 993.29 1473.45 986.356 1477.77 979.318C1480.14 975.625 1482.44 971.862 1484.74 968.133L1482.06 967.75ZM1541.01 974.719C1539.59 975.834 1538.12 976.949 1536.62 977.994L1534.81 979.283C1530.78 982.129 1526.55 984.69 1522.16 986.948L1519.13 988.586C1518.12 989.143 1517.01 989.527 1515.96 990.015L1509.62 992.732C1505.3 994.294 1500.87 995.562 1496.38 996.53C1485.58 998.843 1474.57 1000.01 1463.52 1000.01H1460.84C1454.29 1000.01 1447.74 999.492 1441.22 998.795C1422.84 996.48 1404.76 992.145 1387.32 985.868C1369.9 979.841 1352.72 972.419 1335.65 964.963C1318.66 957.275 1301.2 950.654 1283.39 945.137C1265.51 940.016 1246.46 937.228 1227.95 940.852C1222.07 942.035 1216.37 944.016 1211.02 946.74C1210.67 947.437 1210.32 948.169 1210.01 948.866C1215.74 945.813 1221.87 943.606 1228.23 942.315C1246.42 938.831 1265.24 941.549 1282.94 946.67C1300.65 952.205 1318 958.837 1334.89 966.531C1351.96 973.882 1369.03 981.339 1386.63 987.436C1404.23 993.805 1422.48 998.233 1441.05 1000.64C1447.18 1001.34 1453.32 1001.79 1459.45 1001.9C1460.35 1001.9 1461.22 1001.9 1462.13 1001.9C1473.83 1002.09 1485.51 1000.99 1496.97 998.621C1501.55 997.608 1506.07 996.317 1510.49 994.753L1516.97 991.966C1518.05 991.478 1519.13 991.095 1520.18 990.537L1523.28 988.865C1528.04 986.44 1532.6 983.656 1536.94 980.537L1538.75 979.248C1540.56 977.924 1542.23 976.53 1544.18 975.137L1541.01 974.719ZM1389.31 718.835C1387.81 717.511 1386.35 716.222 1384.88 714.863L1383 716.083L1387.88 720.438C1399.22 730.596 1411.34 739.857 1424.12 748.138C1424.12 747.267 1424.12 746.396 1424.12 745.56C1411.89 737.569 1400.28 728.671 1389.38 718.94L1389.31 718.835ZM1410.49 760.646L1403.53 761.099C1401.23 761.274 1398.93 761.099 1396.56 761.099H1389.59L1382.62 760.542C1373.41 759.991 1364.29 758.377 1355.44 755.734C1351.58 754.584 1347.74 753.26 1343.98 751.727L1343.14 752.667L1342.34 753.573C1346.4 755.276 1350.56 756.753 1354.78 757.998C1376.85 763.89 1399.89 765.171 1422.48 761.761C1422.48 760.89 1422.72 760.054 1422.86 759.183C1419 759.95 1414.78 760.437 1410.56 760.751L1410.49 760.646ZM1520.46 1088.37C1501.72 1087.72 1483.03 1090.73 1465.44 1097.22C1448.01 1103.85 1431.36 1112.38 1415.79 1122.66C1407.08 1128.3 1398.58 1134.23 1390.18 1140.33L1391.54 1140.71C1399.69 1134.82 1407.95 1129.14 1416.42 1123.74C1431.92 1113.54 1448.52 1105.09 1465.89 1098.55C1483.32 1092.17 1501.81 1089.25 1520.35 1089.94C1522.76 1090.19 1525.16 1090.33 1527.56 1090.54L1528.23 1089.07C1525.75 1088.86 1523.1 1088.72 1520.53 1088.48L1520.46 1088.37Z" fill="white"/>
<path d="M1460.81 1135.97C1463.63 1130.6 1466.35 1125.24 1469.06 1119.84C1474.52 1108.9 1479.96 1097.93 1485.37 1086.95C1496.1 1065.13 1506.28 1043.04 1516.07 1020.75C1521.68 1008.13 1527.77 995.659 1532.83 982.802C1532.89 982.673 1532.89 982.525 1532.84 982.391C1532.79 982.257 1532.69 982.148 1532.56 982.088C1532.44 982.028 1532.29 982.022 1532.15 982.071C1532.02 982.12 1531.91 982.22 1531.85 982.349C1525.82 992.976 1520.6 1004.09 1515.02 1015C1509.45 1025.9 1503.77 1036.7 1498.4 1047.71C1487.72 1069.53 1477.36 1091.51 1467.32 1113.67C1464.5 1119.87 1461.43 1126 1458.89 1132.35C1457.57 1135.59 1456.03 1138.72 1454.74 1142C1453.45 1145.27 1452.48 1148.62 1451.26 1151.86C1451.24 1151.89 1451.23 1151.93 1451.23 1151.97C1451.23 1152.01 1451.24 1152.04 1451.25 1152.08C1451.26 1152.11 1451.28 1152.15 1451.31 1152.17C1451.33 1152.2 1451.36 1152.23 1451.4 1152.24C1451.43 1152.26 1451.47 1152.27 1451.51 1152.27C1451.55 1152.27 1451.58 1152.26 1451.62 1152.25C1451.65 1152.24 1451.69 1152.22 1451.72 1152.19C1451.74 1152.17 1451.77 1152.14 1451.78 1152.1C1454.6 1146.7 1457.91 1141.47 1460.81 1135.97Z" fill="#263238"/>
<path d="M1500.28 1154.16L1494.46 1167.33L1494.29 1167.75H1493.73C1466.31 1162.66 1439.06 1156.56 1411.99 1149.77C1384.92 1142.97 1358.06 1135.27 1331.47 1126.7C1304.79 1118.27 1278.63 1108.29 1253.11 1096.81C1240.31 1091.05 1227.94 1084.36 1216.11 1076.81C1210.2 1072.96 1204.62 1068.63 1199.42 1063.88C1194.05 1059.28 1189.94 1053.39 1187.47 1046.77C1190.55 1052.99 1195.05 1058.4 1200.6 1062.56C1206.1 1066.78 1211.94 1070.55 1218.06 1073.81C1230.16 1080.54 1242.66 1086.53 1255.48 1091.75C1281.09 1102.38 1307.39 1111.44 1333.84 1119.94C1360.29 1128.44 1386.98 1136.35 1413.73 1143.95C1440.49 1151.54 1467.36 1159.07 1494.26 1166.28L1493.56 1166.63L1500.28 1154.16Z" fill="#263238"/>
<path d="M1573.63 986.252L1576.52 978.76L1576.83 979.283C1547.77 977.367 1518.75 975.032 1489.73 972.001C1460.7 968.97 1431.85 965.66 1403 961.339C1395.79 960.224 1388.58 959.04 1381.37 957.646C1377.88 956.914 1374.15 956.217 1370.42 955.172C1369.48 954.893 1368.58 954.615 1367.57 954.231C1366.99 954.042 1366.43 953.797 1365.9 953.5C1365.49 953.281 1365.1 953.025 1364.75 952.733C1364.37 952.418 1364.05 952.041 1363.8 951.618C1363.66 951.346 1363.53 951.067 1363.42 950.782C1363.4 950.643 1363.4 950.502 1363.42 950.364C1363.28 949.037 1363.35 947.696 1363.63 946.392C1363.8 945.451 1363.98 944.441 1364.22 943.569C1367.92 929.11 1372.59 915.452 1377.32 901.758C1386.8 874.198 1397.11 846.986 1407.99 819.948C1399.59 847.822 1390.98 875.696 1382.41 903.57C1378.3 917.507 1373.77 931.444 1370.6 945.381C1370.39 946.252 1370.29 947.054 1370.11 947.89C1369.94 948.726 1370.11 949.702 1369.94 949.353C1369.9 949.168 1369.83 948.992 1369.73 948.831C1369.73 948.482 1369.1 948.134 1369.24 948.204C1369.07 948.204 1369.38 948.273 1369.24 948.204L1370.11 948.552L1372.41 949.284C1375.9 950.19 1379.38 950.852 1382.86 951.548C1389.83 952.838 1397.11 953.953 1404.26 955.033C1418.61 957.193 1432.99 959.225 1447.39 961.13L1490.63 966.949C1519.45 970.781 1548.26 974.893 1577.08 979.109H1577.6L1577.39 979.562L1573.63 986.252Z" fill="#263238"/>
<path d="M1411.09 837.788C1409.04 842.703 1406.46 847.377 1403.39 851.725C1400.5 856.172 1396.98 860.175 1392.93 863.606C1395.58 858.972 1398.4 854.582 1401.4 850.226C1404.31 845.84 1407.55 841.682 1411.09 837.788Z" fill="#263238"/>
<path d="M1495.51 773.434C1470.91 780.402 1426.59 744.41 1408.4 714.41C1407.15 712.355 1412.1 627.618 1411.33 610.719C1411.33 607.235 1518.44 631.625 1518.44 631.625C1518.44 631.625 1509.62 667.512 1511.15 696.954C1511.26 699.463 1519.24 766.674 1495.51 773.434Z" fill="#AD6359"/>
<path d="M1409.69 663.784C1459.83 699.184 1508.68 685.596 1510.74 684.969C1511.56 667.008 1514.04 649.162 1518.16 631.66C1518.16 631.66 1410.84 607.27 1411.02 610.754C1411.64 618.663 1410.77 641.52 1409.69 663.784Z" fill="#263238"/>
<path d="M1517.91 561.835C1520.67 586.852 1540.7 605.179 1562.62 602.74C1584.53 600.301 1600.11 578.107 1597.46 553.125C1594.81 528.142 1574.71 509.781 1552.76 512.22C1530.8 514.658 1515.16 536.853 1517.91 561.835Z" fill="#455A64"/>
<path d="M1505.23 564.832C1508.3 592.706 1530.56 613.019 1554.95 610.336C1579.34 607.653 1596.76 582.95 1593.59 555.111C1590.42 527.271 1568.3 506.923 1543.87 509.606C1519.45 512.289 1502.16 537.027 1505.23 564.832Z" fill="#C7C7C7"/>
<path d="M1396.49 483.405C1384.78 520.965 1403.98 629.743 1430.56 654.133C1469.13 689.498 1532.62 693.226 1562.72 646.816C1591.92 601.799 1564.39 460.513 1534.64 438.319C1490.84 405.567 1413.77 427.97 1396.49 483.405Z" fill="#AD6359"/>
<path d="M1486.87 551.696C1486.87 551.452 1486.38 552.149 1486.45 552.463C1488.05 559.71 1488.72 568.316 1482.58 572.009C1482.37 572.009 1482.58 572.497 1482.58 572.392C1490.56 569.71 1489.59 558.316 1486.87 551.696Z" fill="#263238"/>
<path d="M1478.89 545.32C1466.97 546.679 1470.56 570.441 1481.61 569.187C1492.65 567.933 1488.89 544.205 1478.89 545.32Z" fill="#263238"/>
<path d="M1529.17 545.982C1529.17 545.703 1529.79 546.261 1529.83 546.574C1530.7 553.961 1532.97 562.253 1539.97 563.717C1540.18 563.717 1540.25 564.135 1539.97 564.135C1531.64 564.205 1528.82 553.125 1529.17 545.982Z" fill="#263238"/>
<path d="M1534.57 537.236C1546.27 534.554 1550.77 558.142 1539.93 560.651C1529.1 563.159 1524.67 539.571 1534.57 537.236Z" fill="#263238"/>
<path d="M1467.88 535.878C1470.87 534.499 1473.78 532.952 1476.59 531.244C1479.88 530.041 1482.69 527.788 1484.57 524.833C1484.98 523.786 1485.03 522.635 1484.71 521.557C1484.4 520.479 1483.73 519.536 1482.83 518.874C1480.84 517.834 1478.62 517.344 1476.38 517.454C1474.15 517.565 1471.98 518.272 1470.11 519.502C1465.91 521.395 1462.57 524.787 1460.74 529.014C1460.37 530 1460.3 531.072 1460.53 532.098C1460.77 533.124 1461.3 534.058 1462.06 534.788C1462.82 535.517 1463.77 536.008 1464.81 536.202C1465.84 536.396 1466.91 536.283 1467.88 535.878Z" fill="#263238"/>
<path d="M1542.09 523.961C1538.8 523.799 1535.52 523.462 1532.27 522.951C1528.77 523.083 1525.33 522.054 1522.48 520.024C1521.69 519.211 1521.2 518.159 1521.08 517.037C1520.96 515.914 1521.22 514.783 1521.82 513.822C1523.27 512.119 1525.16 510.832 1527.28 510.091C1529.39 509.351 1531.67 509.184 1533.87 509.606C1538.47 509.797 1542.83 511.698 1546.1 514.937C1546.8 515.712 1547.26 516.674 1547.43 517.707C1547.59 518.739 1547.46 519.797 1547.03 520.752C1546.61 521.708 1545.92 522.52 1545.04 523.089C1544.16 523.659 1543.14 523.962 1542.09 523.961Z" fill="#263238"/>
<path d="M1490.91 620.649C1492.93 622.113 1495.06 624.134 1497.88 624.134C1500.61 623.673 1503.21 622.64 1505.51 621.102C1505.55 621.051 1505.61 621.019 1505.68 621.013C1505.74 621.006 1505.81 621.026 1505.86 621.067C1505.91 621.109 1505.94 621.169 1505.95 621.234C1505.95 621.3 1505.93 621.365 1505.89 621.416C1505.07 623.028 1503.81 624.384 1502.27 625.336C1500.73 626.288 1498.96 626.8 1497.15 626.816C1495.59 626.659 1494.12 626.041 1492.91 625.042C1491.71 624.043 1490.83 622.708 1490.39 621.207C1490.07 620.858 1490.6 620.44 1490.91 620.649Z" fill="#263238"/>
<path d="M1495.3 597.479C1497.61 600.104 1500.43 602.223 1503.6 603.704C1506.77 605.185 1510.2 605.995 1513.7 606.085C1516.76 606.206 1519.82 605.889 1522.79 605.144C1523.36 605.04 1523.92 604.876 1524.46 604.657C1524.99 604.521 1525.52 604.358 1526.03 604.169C1526.41 604.04 1526.74 603.79 1526.97 603.456C1527.2 603.123 1527.31 602.725 1527.29 602.322C1527.26 602.071 1527.21 601.824 1527.11 601.59V600.963C1526.38 595.284 1524.53 586.748 1524.53 586.748C1526.76 587.479 1538.05 590.615 1537.42 587.688C1532.27 563.299 1526.52 536.4 1516.24 513.369C1516.17 513.218 1516.05 513.096 1515.9 513.026C1515.75 512.957 1515.57 512.944 1515.41 512.991C1515.25 513.037 1515.11 513.139 1515.02 513.279C1514.93 513.419 1514.89 513.587 1514.92 513.753C1518.96 537.271 1527.11 559.919 1531.57 583.438C1527.55 582.259 1523.39 581.661 1519.2 581.661C1518.44 582.009 1523.07 598.071 1523.17 600.65C1523.2 600.741 1523.2 600.837 1523.17 600.928C1513.84 603.576 1506.24 601.8 1496.03 596.817C1495.27 596.469 1494.78 596.956 1495.3 597.479Z" fill="#263238"/>
<path d="M1518.99 602.775C1516.52 607.284 1512.92 611.077 1508.54 613.785C1506.1 615.176 1503.29 615.784 1500.49 615.527C1494.39 614.865 1493.52 609.5 1493.8 604.726C1494.03 602.188 1494.56 599.686 1495.37 597.27C1502.46 601.572 1510.73 603.501 1518.99 602.775Z" fill="#263238"/>
<path d="M1508.51 613.89C1506.06 615.281 1503.25 615.889 1500.46 615.632C1494.36 614.97 1493.49 609.604 1493.77 604.831C1500.28 604.413 1507.04 607.758 1508.51 613.89Z" fill="#FF99BA"/>
<path opacity="0.2" d="M1414.33 522.045C1410.04 532.846 1401.23 558.212 1396.21 559.988C1391.43 524.728 1391.26 492.742 1400.01 473.091C1403.62 464.975 1408.7 457.593 1414.99 451.315C1415.72 460.757 1418.89 510.756 1414.33 522.045Z" fill="#263238"/>
<path d="M1508.58 471.628C1505.59 476.799 1501.33 481.116 1496.2 484.167C1491.07 487.218 1485.24 488.899 1479.27 489.049C1473.2 489.208 1467.18 487.813 1461.8 484.996C1456.42 482.179 1451.84 478.033 1448.51 472.952C1448.49 472.92 1448.46 472.892 1448.43 472.869C1448.41 472.847 1448.37 472.83 1448.34 472.82C1448.3 472.811 1448.26 472.808 1448.23 472.813C1448.19 472.817 1448.16 472.829 1448.12 472.848C1448.09 472.866 1448.06 472.89 1448.04 472.919C1448.02 472.949 1448 472.982 1447.99 473.017C1447.98 473.053 1447.98 473.09 1447.98 473.127C1447.99 473.163 1448 473.199 1448.02 473.231C1451.05 478.902 1455.57 483.636 1461.1 486.922C1466.63 490.207 1472.95 491.919 1479.38 491.871C1485.68 491.516 1491.77 489.51 1497.05 486.055C1502.33 482.599 1506.6 477.816 1509.45 472.185C1509.52 472.07 1509.55 471.93 1509.52 471.796C1509.49 471.662 1509.41 471.545 1509.29 471.471C1509.17 471.397 1509.03 471.372 1508.9 471.402C1508.77 471.431 1508.65 471.512 1508.58 471.628Z" fill="#263238"/>
<path d="M1581.26 415.566C1576.24 406.308 1568.1 399.124 1558.3 395.288C1544.71 389.922 1531.08 393.511 1517.6 397.379C1517.53 397.379 1517.45 397.408 1517.4 397.46C1517.35 397.513 1517.32 397.583 1517.32 397.657C1517.32 397.731 1517.35 397.802 1517.4 397.854C1517.45 397.907 1517.53 397.936 1517.6 397.936C1529.06 394.696 1540.91 392.083 1552.62 395.636C1562.31 398.535 1570.7 404.689 1576.38 413.058C1581.92 421.724 1584.15 432.095 1582.68 442.273C1581.2 452.452 1576.11 461.759 1568.33 468.492C1563.75 472.253 1558.44 475.036 1552.75 476.672C1547.05 478.308 1541.07 478.761 1535.19 478.004C1534.74 478.004 1534.53 478.631 1535.02 478.701C1543.02 480.059 1551.25 479.158 1558.77 476.1C1566.29 473.042 1572.81 467.948 1577.59 461.39C1582.38 454.832 1585.24 447.069 1585.85 438.975C1586.47 430.88 1584.82 422.774 1581.08 415.566H1581.26Z" fill="#263238"/>
<path d="M1393.32 505.112C1393.32 505.112 1368.13 472.743 1380.32 449.364C1387.29 436.089 1417.29 432.43 1417.29 432.43C1417.29 432.43 1424.26 417.065 1447.98 407.1C1471.71 397.135 1503.73 402.988 1503.73 402.988C1503.73 402.988 1525.02 385.288 1549.41 394.069C1583.42 406.333 1587.74 454.102 1559.31 474.659C1539.31 489.119 1506.28 474.973 1506.28 474.973C1503.49 475.844 1477.36 498.561 1450.74 476.367C1450.74 476.367 1435.58 495.46 1417.5 487.098C1415.79 492.209 1412.55 496.675 1408.23 499.895C1403.91 503.115 1398.7 504.935 1393.32 505.112Z" fill="#263238"/>
<path d="M1419.17 572.079C1419.17 572.079 1394.12 537.236 1378.3 546.261C1362.48 555.285 1381.78 605.911 1400.46 612.461C1402.8 613.493 1405.33 614.04 1407.9 614.07C1410.46 614.101 1413 613.613 1415.37 612.637C1417.74 611.661 1419.88 610.216 1421.68 608.39C1423.48 606.563 1424.89 604.393 1425.82 602.009L1419.17 572.079Z" fill="#AD6359"/>
<path d="M1384.15 560.685C1383.84 560.685 1383.8 561.069 1384.15 561.173C1397.36 566.33 1404.43 578.385 1409.45 590.929C1405.48 586.12 1400.15 583.542 1393.7 588.281C1393.35 588.525 1393.7 589.047 1394.05 588.978C1396.34 588.246 1398.81 588.238 1401.11 588.955C1403.41 589.671 1405.43 591.078 1406.91 592.984C1409.38 596.227 1411.5 599.733 1413.21 603.437C1413.84 604.587 1415.93 603.925 1415.48 602.601V602.287C1415.48 585.354 1402.13 562.114 1384.15 560.685Z" fill="#263238"/>
<path d="M1398.3 547.689C1398.3 547.689 1384.75 493.683 1395.3 460.583C1407.04 423.789 1451.33 387.762 1503.66 403.058C1503.66 403.058 1445.58 410.549 1417.36 459.085C1404.4 481.384 1416.84 545.773 1416.84 545.773L1398.3 547.689Z" fill="#C7C7C7"/>
<path d="M1454.53 565.877C1459.83 593.751 1444.4 620.022 1420.01 624.691C1395.62 629.36 1371.5 610.754 1366.17 582.88C1360.84 555.006 1376.31 528.735 1400.7 524.066C1425.09 519.397 1449.2 538.073 1454.53 565.877Z" fill="#C7C7C7"/>
<path d="M1441.36 566.783C1446.14 591.765 1432.24 615.562 1410.32 619.639C1388.4 623.715 1366.73 606.921 1361.96 581.974C1357.18 557.027 1371.05 533.195 1392.97 529.118C1414.88 525.042 1436.56 541.766 1441.36 566.783Z" fill="#455A64"/>
<path d="M58.849 1180.46H486.227L401.002 684.759H81.4269L58.849 1180.46Z" fill="#DBDBDB"/>
<path d="M58.849 1180.46H96.3047L117.35 684.759H81.4269L58.849 1180.46Z" fill="#A6A6A6"/>
<path d="M312.154 468.562C272.468 508.038 261.075 573.089 261.075 573.089C261.075 573.089 223.027 638.558 233.654 674.132C236.465 684.219 241.68 693.473 248.853 701.102C256.026 708.73 264.943 714.504 274.838 717.929L271.075 698.278C271.075 698.278 283.827 723.539 326.439 733.713C369.052 743.887 425.427 730.786 454.764 715.943C472.152 707.239 486.989 694.178 497.829 678.035L486.854 706.606C486.854 706.606 528.212 705.142 552.776 661.136C577.34 617.13 506.784 553.891 500.791 540.268C494.798 526.644 487.203 427.378 382.78 444.486C382.919 444.242 339.61 441.385 312.154 468.562Z" fill="#263238"/>
<path d="M259.89 715.107C249.019 706.989 238.288 697.686 232.295 686.188C225.76 674.27 223.44 660.496 225.71 647.095C228.602 631.032 237.068 616.851 245.291 603.019C253.514 589.187 263.409 575.145 271.667 560.616C272.12 559.814 270.9 559.152 270.343 559.779C261.065 570.675 252.41 582.087 244.42 593.96C236.246 604.816 229.37 616.592 223.933 629.046C218.851 640.514 217.181 653.204 219.124 665.596C221.18 675.669 225.652 685.091 232.156 693.052C239.856 702.634 249.577 708.766 259.333 715.978C259.89 716.431 260.482 715.56 259.89 715.107Z" fill="#263238"/>
<path d="M561.731 615.632C549.187 579.082 516.435 555.877 496.331 523.996C485.53 506.749 477.133 487.655 463.057 472.673C462.673 472.255 461.977 472.917 462.325 473.335C473.893 486.819 480.583 503.056 488.945 518.63C497.854 533.957 508.265 548.36 520.024 561.626C540.721 586.434 565.494 615.806 560.755 650.544C558.56 666.572 549.083 684.341 532.637 689.324C532.01 689.533 532.393 690.578 533.02 690.299C539.506 687.695 545.394 683.797 550.324 678.843C555.254 673.889 559.123 667.983 561.696 661.485C567.238 646.705 567.25 630.42 561.731 615.632Z" fill="#263238"/>
<path d="M563.229 625.458C564.36 611.615 561.171 597.761 554.1 585.807C546.888 574.03 535.564 565.528 524.24 557.933C511.174 549.257 497.411 540.999 489.119 527.237C488.77 526.644 487.934 527.237 488.248 527.829C501.418 550.546 526.575 561.138 543.403 580.267C562.741 602.113 562.776 633.924 549.466 658.906C541.007 674.135 529.069 687.148 514.624 696.885C514.38 696.885 514.624 697.407 514.902 697.233C539.536 681.066 561.243 656.189 563.229 625.458Z" fill="#263238"/>
<path d="M405.323 791.97C511.07 850.017 637.652 922.873 715.212 905.731C749.601 898.135 904.023 695.7 910.574 672.286C916.183 652.182 776.36 571.243 760.751 587.096C734.41 613.681 663.192 763.364 652.739 765.873C642.286 768.381 553.508 750.368 461.106 733.678C372.187 717.72 331.91 751.692 405.323 791.97Z" fill="#EB9481"/>
<path d="M895.557 697.512C907.612 682.321 956.81 607.827 965.834 584.03C974.858 560.232 995.973 489.955 978.482 481.105C960.991 472.255 953.256 492.29 953.256 492.29C953.256 492.29 957.472 461.175 939.04 453.963C920.608 446.75 909.459 478.353 909.459 478.353C909.459 478.353 911.445 446.088 892.525 440.026C873.606 433.963 867.752 467.9 867.752 467.9C867.752 467.9 870.958 438.493 853.328 440.026C832.143 442.082 832.422 496.993 820.436 522.498C817.718 528.282 756.988 636.015 756.988 636.015L895.557 697.512Z" fill="#EB9481"/>
<path d="M868.17 465.147C868.17 505.53 861.202 523.23 840.296 556.887C839.878 557.515 840.749 558.281 841.272 557.654C864.965 526.575 876.881 505.669 870.261 465.043C869.808 463.057 868.17 463.231 868.17 465.147Z" fill="#263238"/>
<path d="M909.25 475.182C905.765 516.993 898.309 536.365 878.762 573.263C878.484 573.786 879.355 574.309 879.668 573.786C901.863 539.222 913.291 518.038 911.34 475.705C911.445 473.788 909.424 473.266 909.25 475.182Z" fill="#263238"/>
<path d="M952.071 494.136C945.695 534.484 938.517 555.947 914.964 589.326C914.902 589.401 914.856 589.488 914.828 589.582C914.799 589.675 914.79 589.773 914.8 589.87C914.809 589.967 914.838 590.061 914.884 590.147C914.93 590.233 914.993 590.309 915.068 590.371C915.144 590.433 915.231 590.479 915.324 590.507C915.418 590.536 915.516 590.545 915.613 590.535C915.71 590.526 915.804 590.497 915.89 590.451C915.976 590.405 916.052 590.342 916.114 590.267C943.465 558.56 952.629 531.871 953.291 494.45C953.256 491.941 952.489 491.593 952.071 494.136Z" fill="#263238"/>
<path d="M727.058 648.21C727.058 648.21 724.097 597.723 727.72 575.249C731.344 552.776 775.559 473.962 792.98 482.534C815.663 493.648 799.078 544.17 787.719 567.863C787.719 567.863 840.192 593.437 836.15 632.287C832.108 671.136 727.058 648.21 727.058 648.21Z" fill="#EB9481"/>
<path d="M798.346 487.621C811.726 512.672 794.862 542.811 785.524 566.609C785.372 566.952 785.305 567.328 785.329 567.703C785.353 568.079 785.467 568.443 785.662 568.764C785.857 569.086 786.127 569.356 786.449 569.551C786.771 569.746 787.135 569.86 787.51 569.884C808.799 582.079 835.279 605.493 837.544 631.276C837.544 631.433 837.606 631.584 837.717 631.695C837.828 631.806 837.979 631.869 838.136 631.869C838.293 631.869 838.444 631.806 838.555 631.695C838.666 631.584 838.728 631.433 838.728 631.276C840.052 603.402 815.907 578.176 791.761 566.295C801.656 541.905 817.3 511.07 798.729 487.481C798.485 487.377 798.276 487.481 798.346 487.621Z" fill="#263238"/>
<path d="M627.583 757.615L500.303 864.303C500.303 864.303 422.605 823.886 365.219 777.44C307.833 730.995 371.386 708.417 469.921 724.968C568.455 741.518 627.583 757.615 627.583 757.615Z" fill="#C8F1D4"/>
<path d="M476.82 779.043C473.213 774.121 469.038 769.641 464.381 765.699C469.535 776.775 476.981 786.632 486.227 794.618C483.729 789.067 480.571 783.837 476.82 779.043ZM365.324 777.51L366.857 778.695C367.867 777.615 368.878 776.465 369.818 775.21C368.216 775.942 366.717 776.709 365.254 777.649L365.324 777.51ZM578.385 778.207C572.364 777.323 566.262 777.136 560.198 777.649C565.885 779.796 571.801 781.28 577.828 782.074C583.846 782.987 589.951 783.186 596.016 782.667C590.308 780.5 584.368 779.004 578.316 778.207H578.385ZM535.773 736.953C535.694 739.279 535.776 741.607 536.017 743.922C536.867 741.831 537.588 739.69 538.177 737.511L535.773 736.953Z" fill="white"/>
<path d="M471.802 841.516C497.69 816.638 525.355 793.538 553.403 771.029C561.347 764.688 569.431 758.486 577.793 752.528C578.037 752.354 578.351 752.528 578.107 752.842C564.936 765.002 551.243 776.604 537.62 788.276C523.996 799.949 510.199 811.621 496.227 822.945C488.318 829.356 480.443 835.767 472.429 842.004C471.942 842.248 471.489 841.829 471.802 841.516Z" fill="#263238"/>
<path d="M554.379 818.973L500.269 864.268C500.269 864.268 422.57 823.886 365.184 777.441C344.801 760.96 339.679 747.511 345.916 737.72L554.379 818.973Z" fill="#263238"/>
<path d="M528.177 1180.05H122.576C122.576 1180.05 210.693 839.739 292.259 743.922C294.071 741.727 295.952 739.636 297.834 737.685C298.217 737.232 298.565 736.919 298.949 736.535C305.263 729.79 312.614 724.097 320.725 719.672C322.154 718.905 323.582 718.173 325.081 717.546C356.439 703.087 389.678 715.072 413.615 735.56C421.211 742.04 507.202 854.024 514.658 896.567C521.244 934.232 495.809 974.684 495.809 974.684L528.177 1180.05Z" fill="#C8F1D4"/>
<path d="M435.043 960.12C417.773 961.804 400.653 964.774 383.825 969.005C375.463 971.234 367.31 973.813 359.122 976.565C355.045 977.959 350.968 979.213 346.857 980.433C342.576 981.826 338.142 982.691 333.652 983.011C333.569 983.011 333.489 983.044 333.43 983.103C333.371 983.162 333.338 983.242 333.338 983.325C333.338 983.408 333.371 983.488 333.43 983.546C333.489 983.605 333.569 983.638 333.652 983.638C337.905 983.818 342.167 983.702 346.404 983.29C350.484 982.779 354.524 981.988 358.494 980.921C366.996 978.726 375.358 976.182 383.825 973.952C400.898 969.423 417.936 964.893 435.287 961.583C435.481 961.551 435.655 961.443 435.769 961.282C435.883 961.122 435.929 960.924 435.897 960.729C435.865 960.535 435.757 960.362 435.596 960.248C435.436 960.133 435.237 960.087 435.043 960.12Z" fill="#263238"/>
<path d="M477.9 975.067C463.646 973.697 449.326 973.127 435.009 973.36C428.04 973.534 420.758 974.091 413.615 974.823C410.131 975.206 406.647 975.625 403.441 976.078C400.236 976.53 396.055 977.576 392.326 978.029C391.943 978.029 391.943 978.691 392.326 978.656C395.811 978.342 399.469 978.656 403.023 978.482L413.72 978.098C420.688 977.889 427.97 977.715 435.113 977.401C449.398 976.809 463.649 976.356 477.934 976.217C478.701 976.252 478.631 975.137 477.9 975.067Z" fill="#263238"/>
<path d="M253.723 823.92C251.807 821.481 249.856 819.077 247.73 816.952L246.232 820.088C247.626 822.248 249.124 824.373 250.657 826.429C254.266 831.318 258.442 835.762 263.096 839.669C260.552 834.095 257.41 828.814 253.723 823.92ZM300.795 734.654C300.086 740.095 299.969 745.598 300.447 751.065C302.611 745.351 304.074 739.396 304.802 733.33C304.802 732.424 305.046 731.483 305.151 730.577C303.687 731.866 302.224 733.225 300.795 734.654ZM423.894 848.031C421.724 853.738 420.227 859.678 419.434 865.731C418.556 871.764 418.357 877.877 418.842 883.954C421.029 878.258 422.504 872.312 423.232 866.254C424.188 860.229 424.41 854.11 423.894 848.031ZM346.369 1044.26C344.222 1049.95 342.749 1055.87 341.979 1061.89C341.095 1067.93 340.908 1074.04 341.422 1080.12C345.563 1068.64 347.248 1056.43 346.369 1044.26ZM214.595 896.114C212.467 901.841 210.995 907.791 210.205 913.849C209.318 919.87 209.131 925.973 209.647 932.037C211.78 926.325 213.241 920.385 214.003 914.337C214.916 908.307 215.115 902.19 214.595 896.114ZM323.652 871.236C317.631 870.352 311.528 870.165 305.464 870.679C311.152 872.825 317.067 874.31 323.094 875.104C329.113 876.017 335.217 876.216 341.282 875.696C335.614 873.49 329.71 871.947 323.687 871.097L323.652 871.236ZM469.572 1038.48C463.54 1037.6 457.425 1037.41 451.35 1037.92C462.822 1042.06 475.037 1043.75 487.203 1042.87C481.527 1040.72 475.623 1039.22 469.607 1038.41L469.572 1038.48ZM197.174 1022.42C191.256 1021.56 185.263 1021.35 179.3 1021.79H178.951H179.265C184.893 1023.87 190.737 1025.3 196.686 1026.08C202.707 1026.96 208.81 1027.15 214.874 1026.63C209.157 1024.55 203.217 1023.13 197.174 1022.42ZM350.202 1166.28C344.181 1165.4 338.078 1165.21 332.014 1165.73C343.497 1169.87 355.727 1171.55 367.902 1170.64C362.141 1168.51 356.156 1167.05 350.063 1166.28H350.202ZM185.606 1148.65C179.573 1147.77 173.459 1147.58 167.383 1148.09C173.075 1150.21 178.99 1151.68 185.014 1152.45C191.042 1153.39 197.162 1153.57 203.236 1153.01C197.5 1150.88 191.538 1149.42 185.467 1148.65H185.606ZM354.174 784.618C349.266 788.268 344.789 792.464 340.829 797.126C346.389 794.597 351.648 791.453 356.508 787.754C361.407 784.117 365.852 779.906 369.749 775.21C364.227 777.764 359.004 780.919 354.174 784.618ZM397.588 971.13C392.691 974.73 388.246 978.906 384.348 983.569C389.89 981.055 395.118 977.897 399.922 974.161C404.827 970.571 409.273 966.394 413.162 961.722C407.623 964.271 402.397 967.451 397.588 971.2V971.13ZM245.361 1085.13C240.436 1088.73 235.977 1092.92 232.086 1097.61C237.608 1095.05 242.831 1091.9 247.66 1088.2C252.559 1084.56 257.035 1080.39 261.005 1075.76C255.411 1078.23 250.155 1081.41 245.361 1085.2V1085.13ZM498.178 921.131C494.572 916.208 490.396 911.729 485.739 907.786C490.893 918.863 498.339 928.72 507.585 936.705C505.083 931.179 501.924 925.973 498.178 921.201V921.131ZM446.298 1132.17C442.662 1127.27 438.49 1122.8 433.859 1118.83C436.301 1124.42 439.451 1129.68 443.231 1134.47C446.831 1139.38 451.007 1143.84 455.67 1147.75C453.129 1142.23 449.986 1137 446.298 1132.17ZM293.548 966.182C289.932 961.268 285.758 956.79 281.109 952.838C283.58 958.425 286.74 963.68 290.517 968.482C294.106 973.397 298.283 977.856 302.956 981.757C300.418 976.227 297.262 971.002 293.548 966.182Z" fill="white"/>
<path d="M283.966 746.57C205.954 809.461 6.16715 1058.69 51.2185 1116.28C96.2698 1173.88 395.706 1147.64 482.638 1120.4C508.491 1112.31 437.97 948.238 410.026 940.678C386.752 934.371 257.695 972.524 255.186 965.067C252.364 956.635 287.067 909.981 331.178 808.903C382.048 692.32 318.426 718.801 283.966 746.57Z" fill="#EB9481"/>
<path d="M550.964 926.984C610.58 933.953 624.83 944.789 678.244 923.884C713.296 910.19 737.093 926.671 711.449 956.252C669.638 1004.65 590.755 1012 562.706 1006.56L550.964 926.984Z" fill="#EB9481"/>
<path d="M383.755 942.768C383.755 942.768 457.726 923.64 521.975 924.685C566.434 925.417 662.948 937.786 728.452 1053.15C743.992 1080.5 746.744 1130.53 705.108 1094.96C675.561 1069.77 664.446 1044.86 644.586 1033.32C644.586 1033.32 640.51 1097.33 612.496 1111.86C587.995 1124.53 562.624 1135.44 536.574 1144.51C533.815 1140.12 531.347 1135.56 529.188 1130.85C529.188 1130.85 501.732 1141.93 459.503 1126.56L383.755 942.768Z" fill="#EB9481"/>
<path d="M564.309 932.176C581.73 947.785 617.688 981.443 637.478 1019.28C659.638 1061.3 690.996 1148.2 659.812 1164.26C636.956 1176.04 622.043 1143.88 622.043 1143.88C622.043 1143.88 627.444 1182.55 604.622 1188.65C583.716 1194.23 573.647 1168.65 573.647 1168.65C573.647 1168.65 572.88 1192.66 551.696 1194.16C526.191 1195.9 531.975 1145.38 504.589 1124.79C498.422 1120.15 564.309 932.176 564.309 932.176Z" fill="#EB9481"/>
<path d="M589.326 1035.48C603.263 1052.91 624.552 1100.29 622.74 1143.25C622.74 1144.23 621.938 1144.72 621.799 1143.81C615.263 1106.61 604.23 1070.34 588.943 1035.8C588.901 1035.75 588.881 1035.68 588.888 1035.62C588.894 1035.55 588.927 1035.49 588.977 1035.45C589.028 1035.41 589.094 1035.39 589.159 1035.39C589.224 1035.4 589.284 1035.43 589.326 1035.48Z" fill="#263238"/>
<path d="M547.55 1058.9C558.003 1075.1 577.828 1125.1 574.483 1168.48C574.483 1169.45 573.612 1169.87 573.507 1168.97C568.903 1131.45 560.054 1094.59 547.132 1059.07C547.131 1059.02 547.145 1058.98 547.172 1058.94C547.198 1058.89 547.237 1058.86 547.282 1058.84C547.327 1058.82 547.376 1058.82 547.424 1058.83C547.472 1058.84 547.516 1058.86 547.55 1058.9Z" fill="#263238"/>
<path d="M644.691 1033.04C662.112 1043.5 671.833 1055.8 684.794 1070.88C691.13 1078.44 697.876 1085.64 705.003 1092.45C711.553 1098.55 721.205 1107.71 731.03 1103.36C736.501 1100.92 737.999 1094.37 738.452 1088.93C738.881 1082.82 737.99 1076.69 735.839 1070.95C735.839 1070.67 736.257 1070.47 736.361 1070.78C738.5 1075.84 739.908 1081.18 740.542 1086.63C741.37 1091.76 740.629 1097.02 738.417 1101.72C732.981 1111.34 720.438 1109.52 712.564 1104.47C707.906 1101.25 703.576 1097.57 699.637 1093.5C695.77 1089.7 692.076 1085.73 688.488 1081.69C681.136 1073.32 674.272 1064.58 667.025 1056.18C659.922 1048.17 652.311 1040.63 644.238 1033.6C643.924 1033.32 644.342 1032.84 644.691 1033.04Z" fill="#263238"/>
<path d="M666.85 1109.21C664.795 1097.26 650.022 1045.9 644.168 1033.39C644.131 1033.33 644.121 1033.25 644.141 1033.18C644.16 1033.11 644.208 1033.05 644.273 1033.01C644.337 1032.97 644.414 1032.96 644.486 1032.98C644.558 1033 644.619 1033.05 644.656 1033.11C655.701 1050.78 669.638 1093.67 672.077 1106.88C674.516 1120.08 676.85 1136.42 673.471 1149.42C668.384 1169 654.447 1169.35 649.394 1169.07C643.426 1168.63 637.785 1166.18 633.402 1162.1C628.409 1156.89 624.522 1150.73 621.973 1143.98C621.973 1143.67 622.287 1143.39 622.461 1143.7C627.269 1153.18 636.572 1163.74 647.583 1165.1C650.021 1165.48 652.51 1165.36 654.903 1164.76C657.297 1164.17 659.546 1163.09 661.52 1161.61C665.655 1157.66 668.217 1152.33 668.732 1146.63C670.252 1134.14 669.615 1121.48 666.85 1109.21Z" fill="#263238"/>
<path d="M574.483 1168.48C576.608 1171.51 580.127 1181.09 588.594 1185.13C591.539 1186.81 594.847 1187.75 598.234 1187.86C601.62 1187.98 604.985 1187.27 608.036 1185.79C613.856 1182.18 618.042 1176.45 619.709 1169.8C621.117 1161.3 621.874 1152.7 621.973 1144.09C621.973 1143.67 622.496 1143.64 622.531 1144.09C623.616 1153.43 623.287 1162.89 621.555 1172.14C620.737 1175.76 619.202 1179.18 617.042 1182.2C614.882 1185.23 612.14 1187.78 608.977 1189.73C605.627 1191.56 601.836 1192.43 598.024 1192.24C594.211 1192.05 590.526 1190.81 587.375 1188.65C584.204 1186.46 575.006 1176.53 573.438 1168.72C573.473 1168.48 574.378 1168.34 574.483 1168.48Z" fill="#263238"/>
<path d="M507.272 1121.72C509.791 1124.51 511.978 1127.59 513.787 1130.88C515.843 1134.37 517.794 1137.68 519.641 1141.16C523.311 1148.2 526.242 1155.61 528.386 1163.25C530.616 1170.92 532.358 1179.28 537.62 1185.59C540.082 1188.7 543.464 1190.97 547.285 1192.05C551.106 1193.14 555.173 1193 558.908 1191.65C562.863 1190.08 566.151 1187.18 568.211 1183.46C570.6 1179.45 572.197 1175.01 572.915 1170.39C572.899 1170.35 572.894 1170.31 572.9 1170.26C572.906 1170.22 572.922 1170.17 572.948 1170.14C572.973 1170.1 573.007 1170.07 573.047 1170.05C573.087 1170.03 573.131 1170.02 573.176 1170.02C573.221 1170.02 573.266 1170.03 573.306 1170.05C573.345 1170.07 573.38 1170.1 573.405 1170.14C573.431 1170.17 573.447 1170.22 573.453 1170.26C573.459 1170.31 573.453 1170.35 573.438 1170.39C573.14 1174.58 572.416 1178.72 571.277 1182.76C569.96 1186.39 567.714 1189.61 564.762 1192.1C561.668 1194.46 557.982 1195.93 554.11 1196.34C550.237 1196.74 546.328 1196.07 542.811 1194.4C535.006 1190.92 530.616 1183.04 527.899 1175.24C524.867 1166.56 522.846 1157.61 519.397 1149.04C517.62 1144.51 515.913 1139.98 513.753 1135.62C511.592 1131.27 508.596 1126.74 506.784 1122.07C506.575 1121.79 506.993 1121.41 507.272 1121.72Z" fill="#263238"/>
<path d="M480.06 1132.52C491.075 1134.11 502.216 1134.66 513.334 1134.16C513.683 1134.16 513.892 1135.17 513.543 1135.24C508.032 1136.27 502.424 1136.7 496.819 1136.53C491.136 1136.29 485.522 1135.2 480.164 1133.29C479.711 1133.04 479.711 1132.45 480.06 1132.52Z" fill="#263238"/>
<path d="M137.941 1002.38C156.567 993.394 175.815 985.756 195.536 979.527C215.051 973.426 234.988 968.768 255.186 965.59C266.719 963.674 278.287 962.315 290.029 960.886C290.377 960.886 290.447 961.374 290.029 961.409C269.734 964.694 249.643 969.138 229.856 974.719C210.158 980.084 190.577 985.81 171.111 991.896C160.101 995.38 149.23 999.283 138.325 1003.08C137.941 1003.36 137.593 1002.63 137.941 1002.38Z" fill="#263238"/>
<path d="M120.973 897.891L286.092 915.835C286.092 915.835 328.216 839.181 350.132 768.556C372.048 697.93 309.819 711.658 237.103 780.123C164.387 848.589 120.973 897.891 120.973 897.891Z" fill="#C8F1D4"/>
<path d="M120.973 897.891L286.092 915.835C286.092 915.835 328.216 839.181 350.132 768.556C372.048 697.93 309.819 711.658 237.103 780.123C164.387 848.589 120.973 897.891 120.973 897.891Z" fill="#C8F1D4"/>
<path d="M301.074 732.354C301.091 732.528 301.091 732.703 301.074 732.877C300.19 738.91 300.003 745.024 300.517 751.1C302.681 745.386 304.144 739.431 304.872 733.365C304.872 732.319 305.151 731.309 305.255 730.264L301.074 732.354ZM214.595 896.114C213.083 899.915 211.916 903.845 211.111 907.856L214.595 908.204C214.978 904.183 214.978 900.135 214.595 896.114ZM157.314 858.937L155.711 860.61C157.523 860.61 159.195 860.61 161.181 860.296C159.857 859.773 158.603 859.32 157.314 858.937ZM305.499 870.54C306.475 870.923 307.485 871.306 308.495 871.62C308.676 871.165 308.885 870.723 309.123 870.296C307.938 870.331 306.718 870.4 305.499 870.54ZM253.723 823.92C250.088 819.022 245.916 814.546 241.284 810.576C243.734 816.177 246.884 821.445 250.657 826.255C254.266 831.143 258.442 835.588 263.096 839.495C260.541 833.981 257.399 828.759 253.723 823.92Z" fill="white"/>
<path d="M279.402 914.302C280.308 914.302 286.37 914.302 286.37 914.302C287.102 912.176 301.318 879.459 304.802 872.491C311.98 858.171 319.993 844.234 327.798 830.262C328.042 829.809 328.739 830.262 328.495 830.575C322.99 842.77 317.694 854.965 312.084 867.23C313.478 865.592 314.872 863.954 316.23 862.282C318.983 858.798 321.492 855.314 324.105 851.62C324.349 851.307 324.837 851.62 324.662 852.003C322.169 857.043 319.017 861.73 315.29 865.94C313.707 867.79 311.996 869.525 310.168 871.132C309.715 872.142 309.262 873.188 308.774 874.163C305.29 881.132 288.113 916.253 287.485 916.218L279.541 915.243C278.949 915.382 278.949 914.267 279.402 914.302Z" fill="#263238"/>
<path d="M152.087 869.843C187.906 872.247 223.619 877.16 259.124 882.734C269.205 884.337 279.216 886.161 289.158 888.205C289.437 888.205 289.437 888.692 289.158 888.658C271.318 887.09 253.514 884.79 235.709 882.595C217.905 880.4 199.961 878.031 182.157 875.208C172.122 873.675 162.052 872.142 152.053 870.435C151.635 870.47 151.635 869.808 152.087 869.843Z" fill="#263238"/>
<path d="M341.875 722.25C342.502 729.497 369.47 779.879 401.769 782.98C412.222 783.956 420.27 726.779 420.27 726.779L421.803 722.703L443.51 665.492L380.445 610.963L371.282 603.646C371.282 603.646 366.369 619.674 360.48 639.708C360.202 640.649 359.888 641.59 359.609 642.565C359.331 643.541 358.913 644.76 358.599 645.806C357.693 648.802 356.752 651.833 355.916 654.899C355.254 657.234 354.592 659.499 353.965 661.868C353.338 664.237 352.711 666.746 352.014 669.185C347.43 686.622 344.042 704.351 341.875 722.25Z" fill="#EB9481"/>
<path d="M360.48 639.708C364.072 657.161 371.416 673.625 382.006 687.956C392.595 702.288 406.174 714.144 421.803 722.703L443.51 665.492L380.445 610.963L371.282 603.646C371.282 603.646 366.369 619.674 360.48 639.708Z" fill="#263238"/>
<path d="M462.604 577.619C468.144 602.009 490.095 618.071 511.627 613.228C533.16 608.385 546.086 584.518 540.546 559.988C535.007 535.459 513.056 519.502 491.523 524.379C469.99 529.257 457.064 553.055 462.604 577.619Z" fill="#455A64"/>
<path d="M450.304 582.009C456.506 609.291 480.896 627.026 504.868 621.625C528.839 616.224 543.195 589.709 537.027 562.393C530.86 535.076 506.436 517.376 482.499 522.777C458.562 528.177 444.137 554.658 450.304 582.009Z" fill="#C7C7C7"/>
<path d="M520.756 547.097C550.024 650.405 491.453 679.498 469.154 685.909C448.911 691.623 379.295 708.487 339.505 608.733C299.715 508.979 338.495 462.708 384.069 447.203C429.643 431.698 491.488 443.754 520.756 547.097Z" fill="#EB9481"/>
<path d="M484.798 534.101C482.344 534.344 479.878 534.449 477.412 534.414C474.819 534.909 472.135 534.529 469.781 533.334C469.111 532.816 468.631 532.091 468.417 531.271C468.203 530.452 468.266 529.584 468.597 528.804C469.486 527.369 470.743 526.198 472.238 525.413C473.734 524.629 475.412 524.26 477.098 524.345C480.531 523.963 483.982 524.869 486.784 526.888C487.389 527.394 487.836 528.063 488.071 528.816C488.306 529.568 488.319 530.373 488.11 531.133C487.901 531.893 487.477 532.577 486.89 533.103C486.303 533.629 485.577 533.975 484.798 534.101Z" fill="#263238"/>
<path d="M416.681 558.142C419.049 557.408 421.375 556.548 423.65 555.563C426.229 554.994 428.553 553.599 430.27 551.591C430.677 550.849 430.829 549.994 430.703 549.157C430.577 548.32 430.18 547.547 429.573 546.957C428.191 545.985 426.575 545.398 424.891 545.257C423.207 545.116 421.516 545.426 419.991 546.156C416.687 547.15 413.868 549.335 412.082 552.288C411.715 552.985 411.558 553.773 411.629 554.557C411.701 555.341 411.997 556.087 412.484 556.706C412.97 557.325 413.625 557.79 414.37 558.045C415.115 558.3 415.918 558.333 416.681 558.142Z" fill="#263238"/>
<path d="M437.587 576.364C437.587 576.086 437.134 576.852 437.238 577.131C439.468 584.099 440.723 592.462 435.148 596.608C434.974 596.608 435.148 597.061 435.322 596.991C442.709 593.681 440.758 582.532 437.587 576.364Z" fill="#263238"/>
<path d="M429.155 570.79C417.587 573.159 423.162 596.085 433.894 593.89C444.625 591.695 438.841 568.804 429.155 570.79Z" fill="#263238"/>
<path d="M424.939 573.089C423.267 574.901 421.838 577.654 419.504 578.49C417.169 579.326 414.068 577.549 411.699 575.668C411.455 575.493 411.281 575.668 411.351 576.051C412.361 580.441 415.148 584.552 420.026 584.065C424.904 583.577 426.612 578.978 426.612 574.274C426.646 573.403 425.636 572.392 424.939 573.089Z" fill="#263238"/>
<path d="M478.318 563.786C478.318 563.508 478.98 563.995 479.015 564.274C480.478 571.452 483.335 579.431 490.338 580.267C490.547 580.267 490.617 580.65 490.338 580.685C482.255 581.417 478.562 570.79 478.318 563.786Z" fill="#263238"/>
<path d="M482.882 554.867C494.101 551.382 500.303 574.03 489.851 577.34C479.398 580.65 473.51 557.828 482.882 554.867Z" fill="#263238"/>
<path d="M488.108 555.041C490.234 555.738 492.603 557.445 494.798 556.992C496.993 556.539 498.492 553.508 499.432 550.686C499.432 550.407 499.781 550.686 499.85 550.686C501.174 555.006 501 559.919 497.028 561.905C493.056 563.891 489.607 560.755 487.377 556.713C486.959 556.156 487.237 554.658 488.108 555.041Z" fill="#263238"/>
<path d="M453.684 633.645C455.705 635.004 457.865 637.13 460.653 636.677C463.318 636.099 465.834 634.972 468.039 633.367C468.081 633.316 468.141 633.284 468.206 633.277C468.272 633.271 468.337 633.29 468.388 633.332C468.438 633.374 468.471 633.434 468.477 633.499C468.484 633.564 468.464 633.629 468.422 633.68C467.668 635.291 466.493 636.669 465.021 637.668C463.55 638.668 461.836 639.252 460.06 639.36C458.505 639.282 457.01 638.739 455.767 637.8C454.525 636.862 453.592 635.573 453.092 634.098C452.848 633.715 453.37 633.471 453.684 633.645Z" fill="#263238"/>
<path d="M477.063 598.246C477.063 598.246 481.21 608.454 482.499 613.437C482.499 613.925 465.356 622.287 454.276 612.043C454.161 611.965 454.081 611.843 454.055 611.706C454.029 611.569 454.059 611.427 454.137 611.311C454.216 611.196 454.337 611.116 454.474 611.09C454.611 611.064 454.753 611.094 454.869 611.172C462.341 613.894 470.493 614.126 478.109 611.834C478.109 610.371 470.374 594.587 471.14 594.413C475.102 593.762 479.133 593.644 483.126 594.064C475.043 572.567 463.614 552.532 455.914 530.965C455.846 530.805 455.84 530.626 455.897 530.462C455.954 530.298 456.07 530.161 456.222 530.079C456.375 529.996 456.553 529.973 456.721 530.014C456.89 530.056 457.037 530.159 457.134 530.303C470.618 550.476 480.443 575.04 489.328 597.026C490.513 599.709 479.398 598.594 477.063 598.246Z" fill="#263238"/>
<path d="M478.074 614.238C476.223 618.863 473.225 622.939 469.363 626.085C467.195 627.711 464.581 628.636 461.872 628.733C455.914 628.733 454.346 623.82 454.137 619.186C454.053 616.732 454.252 614.277 454.729 611.869C462.057 615.136 470.239 615.967 478.074 614.238Z" fill="#263238"/>
<path d="M469.363 626.085C467.195 627.712 464.581 628.636 461.872 628.733C455.914 628.733 454.346 623.82 454.137 619.186C460.235 618.106 467.203 620.475 469.363 626.085Z" fill="#FF99BA"/>
<path d="M344.488 605.284C364.487 606.573 366.787 560.825 366.787 560.825C366.787 560.825 450.409 541.348 453.405 472.081C453.405 472.081 470.583 515.077 516.122 532.219C516.122 532.219 508.561 456.959 447.865 445.949C447.865 445.949 371.978 423.441 333.826 484.903C295.673 546.365 331.073 604.413 344.488 605.284Z" fill="#263238"/>
<path d="M453.405 466.959C455.057 477.527 454.427 488.326 451.559 498.631C448.851 509.103 443.986 518.894 437.273 527.376C435.627 529.508 433.847 531.533 431.942 533.439L429.155 536.4C428.179 537.306 427.134 538.142 426.089 539.013C423.998 540.686 421.977 542.498 419.817 544.065C417.657 545.633 415.288 546.923 412.849 548.316C411.699 548.978 410.584 549.71 409.364 550.337L405.88 552.01L398.598 555.32C393.581 557.062 388.494 558.525 383.442 559.919C388.145 557.515 393.023 555.598 397.657 553.194L404.452 549.362L407.936 547.445C409.016 546.748 410.026 545.947 411.072 545.18C413.162 543.647 415.253 542.149 417.378 540.686C419.504 539.222 421.211 537.201 423.127 535.634L426.019 533.09L428.597 530.233C430.37 528.404 432.034 526.473 433.58 524.449C439.912 516.371 444.825 507.275 448.109 497.551C449.79 492.669 451.072 487.658 451.942 482.568C452.869 477.416 453.358 472.194 453.405 466.959Z" fill="#263238"/>
<path d="M359.4 604.204C359.4 604.204 330.063 575.668 316.718 586.782C303.374 597.897 329.819 642.286 348.599 645.422C350.979 645.994 353.45 646.079 355.863 645.672C358.277 645.265 360.583 644.374 362.643 643.052C364.704 641.731 366.475 640.007 367.852 637.983C369.229 635.959 370.182 633.678 370.654 631.276L359.4 604.204Z" fill="#EB9481"/>
<path d="M324.628 599.291C324.563 599.291 324.501 599.317 324.455 599.362C324.409 599.408 324.384 599.47 324.384 599.535C324.384 599.599 324.409 599.662 324.455 599.707C324.501 599.753 324.563 599.779 324.628 599.779C337.903 602.392 346.543 612.566 353.373 623.506C348.843 619.674 343.373 618.141 338.112 623.506C337.833 623.82 338.112 624.238 338.565 624.099C340.599 623.002 342.923 622.561 345.218 622.836C347.513 623.11 349.668 624.087 351.387 625.632C354.247 628.226 356.817 631.123 359.052 634.273C359.818 635.283 361.7 634.273 361.038 633.123L360.864 632.844C358.146 617.374 341.735 597.653 324.628 599.291Z" fill="#263238"/>
<path d="M339.331 589.674C339.331 589.674 320.307 538.978 326.892 505.878C334.209 469.015 379.888 426.96 432.117 442.709C432.117 442.709 369.992 452.012 348.042 501.941C337.937 524.937 357.031 585.807 357.031 585.807L339.331 589.674Z" fill="#C7C7C7"/>
<path d="M368.671 661.926C391.729 654.744 403.782 627.609 395.593 601.318C387.405 575.027 362.075 559.536 339.017 566.718C315.96 573.899 303.906 601.034 312.095 627.325C320.284 653.616 345.614 669.107 368.671 661.926Z" fill="#C7C7C7"/>
<path d="M383.024 603.437C390.375 627.06 379.539 651.45 358.634 657.896C337.728 664.342 315.15 650.44 307.764 626.816C300.377 603.193 311.248 578.803 332.154 572.323C353.059 565.842 375.672 579.953 383.024 603.437Z" fill="#455A64"/>
<path d="M421.559 723.051L402.396 771.413L342.118 710.613L325.22 730.264C325.22 730.264 384.452 827.056 384.661 822.666L404.382 780.855L433.232 809.67L430.618 737.128L421.559 723.051Z" fill="#EBEBEB"/>
<path d="M434.103 773.782C433.232 761.831 432.744 749.706 431.35 737.79C431.35 737.372 430.618 737.197 430.514 737.79C428.179 749.357 431.629 795.175 431.629 806.151C430.444 804.896 404.905 780.785 404.661 781.169C400.375 787.789 385.915 818.171 384.94 820.924C375.567 805.558 335.916 744.967 324.871 730.333C324.806 730.267 324.719 730.224 324.626 730.212C324.533 730.2 324.439 730.22 324.359 730.269C324.278 730.317 324.216 730.391 324.183 730.478C324.15 730.566 324.147 730.662 324.175 730.752C332.432 746.988 383.651 826.952 384.382 826.743C392.002 812.41 398.886 797.7 405.009 782.667C409.33 787.928 435.113 815.14 435.183 813.363C435.506 800.16 435.146 786.948 434.103 773.782Z" fill="#263238"/>
<path d="M770.263 400.828C768.172 420.871 760.552 439.938 748.255 455.903C735.957 471.867 719.466 484.1 700.62 491.238C681.775 498.375 661.317 500.135 641.529 496.321C621.742 492.508 603.403 483.271 588.559 469.642L534.135 477.621L561.382 430.584C555.215 415.284 552.61 398.781 553.764 382.326C554.918 365.87 559.8 349.893 568.041 335.603C576.283 321.313 587.667 309.086 601.332 299.846C614.998 290.607 630.586 284.597 646.918 282.273C663.249 279.948 679.895 281.37 695.596 286.43C711.297 291.489 725.641 300.055 737.542 311.478C749.443 322.9 758.589 336.881 764.288 352.361C769.987 367.841 772.09 384.415 770.437 400.828H770.263Z" fill="white"/>
<path d="M770.263 400.828C768.157 420.882 760.561 439.967 748.312 455.984C742.296 463.984 735.107 471.032 726.989 476.889C718.973 482.964 710.14 487.879 700.752 491.488C691.357 495.163 681.494 497.509 671.45 498.457C666.434 498.915 661.392 499.008 656.363 498.735C651.312 498.615 646.278 498.091 641.311 497.168C621.242 493.555 602.577 484.422 587.41 470.792L588.699 471.175L534.345 479.537L530.407 480.13L532.393 476.645L559.536 429.503V431.385C553.154 415.793 550.441 398.943 551.607 382.136C552.773 365.329 557.786 349.014 566.26 334.453C574.721 319.946 586.36 307.545 600.301 298.182C614.231 288.957 630.069 283.005 646.627 280.773C663.185 278.54 680.033 280.085 695.909 285.29C711.591 290.649 725.877 299.446 737.72 311.039C749.58 322.571 758.67 336.643 764.306 352.195C769.943 367.747 771.98 384.375 770.263 400.828ZM770.263 400.828C772.001 384.449 769.955 367.889 764.284 352.425C758.612 336.96 749.465 323.005 737.548 311.634C725.632 300.263 711.264 291.779 695.551 286.837C679.838 281.896 663.201 280.627 646.921 283.13C630.791 285.553 615.429 291.631 602.009 300.9C588.717 310.223 577.613 322.326 569.466 336.369C561.448 350.463 556.731 366.192 555.669 382.371C554.607 398.551 557.227 414.761 563.333 429.782L563.717 430.758L563.194 431.629L535.808 478.596L533.857 475.705L588.315 468.074H589.082L589.605 468.597C604.198 482.218 622.295 491.507 641.868 495.425C646.727 496.401 651.655 496.995 656.607 497.202C661.56 497.551 666.531 497.551 671.485 497.202C681.419 496.427 691.197 494.282 700.543 490.826C709.943 487.44 718.785 482.673 726.78 476.68C734.95 470.862 742.168 463.809 748.173 455.775C760.459 439.845 768.103 420.829 770.263 400.828Z" fill="#263238"/>
<path d="M709.567 405.985C716.841 405.985 722.738 400.088 722.738 392.814C722.738 385.54 716.841 379.644 709.567 379.644C702.294 379.644 696.397 385.54 696.397 392.814C696.397 400.088 702.294 405.985 709.567 405.985Z" fill="#263238"/>
<path d="M662.356 405.985C669.63 405.985 675.526 400.088 675.526 392.814C675.526 385.54 669.63 379.644 662.356 379.644C655.082 379.644 649.185 385.54 649.185 392.814C649.185 400.088 655.082 405.985 662.356 405.985Z" fill="#263238"/>
<path d="M615.179 405.985C622.453 405.985 628.35 400.088 628.35 392.814C628.35 385.54 622.453 379.644 615.179 379.644C607.905 379.644 602.009 385.54 602.009 392.814C602.009 400.088 607.905 405.985 615.179 405.985Z" fill="#263238"/>
<path d="M1852.19 400.828C1850.1 420.871 1842.48 439.938 1830.18 455.903C1817.89 471.867 1801.39 484.1 1782.55 491.237C1763.7 498.375 1743.25 500.135 1723.46 496.321C1703.67 492.508 1685.33 483.271 1670.49 469.642L1616.06 477.621L1643.28 430.584C1637.08 415.276 1634.46 398.759 1635.6 382.285C1636.73 365.811 1641.61 349.813 1649.85 335.503C1658.09 321.193 1669.48 308.947 1683.16 299.694C1696.83 290.44 1712.44 284.421 1728.79 282.095C1745.13 279.768 1761.8 281.193 1777.51 286.263C1793.23 291.334 1807.58 299.915 1819.49 311.358C1831.4 322.8 1840.54 336.803 1846.23 352.305C1851.92 367.806 1854.01 384.4 1852.33 400.828H1852.19Z" fill="white"/>
<path d="M1852.19 400.828C1850.07 420.878 1842.48 439.958 1830.24 455.984C1827.18 459.95 1823.89 463.731 1820.38 467.307C1816.75 470.782 1812.91 474.028 1808.88 477.029C1800.88 483.118 1792.04 488.034 1782.65 491.628C1773.26 495.304 1763.41 497.65 1753.38 498.596C1748.35 499.055 1743.3 499.148 1738.26 498.875C1733.21 498.753 1728.17 498.229 1723.21 497.307C1703.16 493.625 1684.53 484.431 1669.41 470.757L1670.7 471.14L1616.34 479.502L1612.41 480.095L1614.39 476.61L1641.46 429.469V431.35C1635.09 415.759 1632.37 398.911 1633.53 382.106C1634.69 365.3 1639.69 348.985 1648.15 334.418C1656.63 319.91 1668.28 307.509 1682.23 298.147C1696.16 288.922 1712 282.971 1728.56 280.738C1745.11 278.505 1761.96 280.05 1777.84 285.255C1793.52 290.61 1807.81 299.408 1819.65 311.004C1831.52 322.536 1840.62 336.612 1846.25 352.172C1851.89 367.732 1853.92 384.369 1852.19 400.828ZM1852.19 400.828C1853.93 384.449 1851.88 367.889 1846.21 352.425C1840.54 336.96 1831.39 323.005 1819.48 311.634C1807.56 300.263 1793.19 291.779 1777.48 286.837C1761.77 281.895 1745.13 280.627 1728.85 283.13C1712.72 285.553 1697.36 291.631 1683.94 300.9C1670.65 310.223 1659.54 322.326 1651.39 336.369C1643.32 350.457 1638.56 366.196 1637.46 382.396C1636.43 398.563 1639.04 414.754 1645.09 429.782L1645.51 430.758L1644.98 431.629L1617.6 478.596L1615.65 475.705L1670.11 468.074H1670.87L1671.39 468.597C1685.94 482.189 1703.97 491.477 1723.48 495.425C1728.34 496.401 1733.27 496.995 1738.22 497.202C1743.18 497.551 1748.15 497.551 1753.1 497.202C1763.03 496.427 1772.81 494.282 1782.16 490.826C1791.56 487.434 1800.4 482.667 1808.4 476.68C1816.55 470.85 1823.75 463.799 1829.75 455.775C1842.18 439.89 1849.95 420.868 1852.19 400.828Z" fill="#263238"/>
<path d="M1791.32 405.985C1798.6 405.985 1804.49 400.088 1804.49 392.814C1804.49 385.54 1798.6 379.644 1791.32 379.644C1784.05 379.644 1778.15 385.54 1778.15 392.814C1778.15 400.088 1784.05 405.985 1791.32 405.985Z" fill="#263238"/>
<path d="M1744.15 405.985C1751.42 405.985 1757.32 400.088 1757.32 392.814C1757.32 385.54 1751.42 379.644 1744.15 379.644C1736.87 379.644 1730.98 385.54 1730.98 392.814C1730.98 400.088 1736.87 405.985 1744.15 405.985Z" fill="#263238"/>
<path d="M1710.14 392.814C1710.15 395.421 1709.38 397.97 1707.94 400.141C1706.49 402.311 1704.44 404.005 1702.03 405.007C1699.63 406.009 1696.98 406.275 1694.42 405.771C1691.86 405.267 1689.51 404.015 1687.67 402.174C1685.82 400.334 1684.57 397.987 1684.05 395.431C1683.54 392.876 1683.8 390.226 1684.8 387.817C1685.79 385.408 1687.48 383.349 1689.65 381.901C1691.81 380.452 1694.36 379.679 1696.97 379.679C1700.46 379.679 1703.8 381.061 1706.27 383.524C1708.74 385.986 1710.13 389.327 1710.14 392.814Z" fill="#263238"/>
<path d="M590.197 1171.96H566.887V1187.19H590.197V1171.96Z" fill="#455A64"/>
<path d="M620.44 1170.95H597.131V1186.18H620.44V1170.95Z" fill="#455A64"/>
<path d="M650.684 1169.94H627.374V1185.17H650.684V1169.94Z" fill="#455A64"/>
<path d="M680.892 1168.93H657.582V1184.16H680.892V1168.93Z" fill="#455A64"/>
<path d="M711.135 1167.92H687.826V1183.15H711.135V1167.92Z" fill="#455A64"/>
<path d="M741.379 1166.94H718.069V1182.17H741.379V1166.94Z" fill="#455A64"/>
<path d="M771.587 1165.93H748.277V1181.16H771.587V1165.93Z" fill="#455A64"/>
<path d="M801.83 1164.92H778.521V1180.15H801.83V1164.92Z" fill="#455A64"/>
<path d="M832.039 1163.91H808.729V1179.14H832.039V1163.91Z" fill="#455A64"/>
<path d="M837.753 1195.93H561.173V1177.4L837.753 1169.7V1195.93Z" fill="#37474F"/>
<path d="M1107.71 1122.9H651.136L723.748 782.98H1180.32L1107.71 1122.9Z" fill="#455A64"/>
<path d="M1124.61 1122.9H668L740.612 782.98H1197.22L1124.61 1122.9Z" fill="#37474F"/>
<path d="M972.071 933.256C970.671 940.994 966.659 948.018 960.704 953.155C954.75 958.291 947.213 961.229 939.354 961.479C935.807 961.589 932.281 960.894 929.042 959.446C925.802 957.998 922.933 955.835 920.649 953.118C918.366 950.402 916.727 947.204 915.857 943.764C914.987 940.324 914.908 936.731 915.626 933.256C917.011 925.514 921.013 918.483 926.963 913.339C932.912 908.196 940.447 905.251 948.308 904.999C951.861 904.882 955.395 905.574 958.642 907.021C961.889 908.469 964.765 910.635 967.053 913.356C969.341 916.077 970.982 919.281 971.851 922.729C972.72 926.176 972.795 929.776 972.071 933.256Z" fill="#263238"/>
<path d="M995.485 1211.68H770.925V1194.23L995.485 1186.98V1211.68Z" fill="#455A64"/>
<path d="M1056.53 1211.65H935.939L863.327 1021.16H983.917L1056.53 1211.65Z" fill="#455A64"/>
<path d="M1076.35 1211.65H955.799L883.188 1021.16H1003.74L1076.35 1211.65Z" fill="#263238"/>
<path d="M552.567 1216.32H321.143C301.388 1216.32 329.958 1160.05 402.082 1138.48C474.206 1116.91 575.389 1195.2 552.567 1216.32Z" fill="#37474F"/>
<path d="M461.977 1216.32C462.132 1209.91 463.188 1203.55 465.112 1197.43C466.97 1191.25 469.58 1185.32 472.882 1179.77C476.193 1174.18 480.341 1169.14 485.182 1164.82C489.982 1160.53 495.502 1157.12 501.488 1154.75C499.014 1156.77 496.192 1158.23 493.927 1160.43L490.443 1163.46L487.168 1166.94C482.888 1171.43 479.135 1176.38 475.983 1181.72C472.779 1187.05 470.028 1192.65 467.76 1198.44C465.436 1204.26 463.504 1210.24 461.977 1216.32Z" fill="#263238"/>
<path d="M489.223 1162.76C502.995 1167.12 516.024 1173.55 527.864 1181.82C533.856 1185.96 539.279 1190.87 543.996 1196.42C548.943 1201.94 551.953 1208.93 552.567 1216.32C550.649 1209.5 546.972 1203.32 541.905 1198.37C536.968 1193.34 531.567 1188.8 525.773 1184.78C520.024 1180.64 513.996 1176.91 507.864 1173.25C501.732 1169.59 495.565 1166.14 489.223 1162.76Z" fill="#263238"/>
<path d="M1659.37 1171.96H1636.06V1187.19H1659.37V1171.96Z" fill="#455A64"/>
<path d="M1689.62 1170.95H1666.31V1186.18H1689.62V1170.95Z" fill="#455A64"/>
<path d="M1719.86 1169.94H1696.55V1185.17H1719.86V1169.94Z" fill="#455A64"/>
<path d="M1750.07 1168.93H1726.76V1184.16H1750.07V1168.93Z" fill="#455A64"/>
<path d="M1780.31 1167.92H1757V1183.15H1780.31V1167.92Z" fill="#455A64"/>
<path d="M1810.56 1166.94H1787.25V1182.17H1810.56V1166.94Z" fill="#455A64"/>
<path d="M1840.76 1165.93H1817.45V1181.16H1840.76V1165.93Z" fill="#455A64"/>
<path d="M1871.01 1164.92H1847.7V1180.15H1871.01V1164.92Z" fill="#455A64"/>
<path d="M1901.25 1163.91H1877.94V1179.14H1901.25V1163.91Z" fill="#455A64"/>
<path d="M1906.96 1195.93H1630.38V1177.4L1906.96 1169.7V1195.93Z" fill="#37474F"/>
<path d="M2176.89 1122.9H1720.31L1792.92 782.98H2249.5L2176.89 1122.9Z" fill="#455A64"/>
<path d="M2193.79 1122.9H1737.21L1809.82 782.98H2266.4L2193.79 1122.9Z" fill="#37474F"/>
<path d="M2041.25 933.256C2039.85 940.989 2035.84 948.008 2029.89 953.144C2023.95 958.28 2016.42 961.222 2008.57 961.479C2005.02 961.594 2001.49 960.903 1998.24 959.458C1995 958.012 1992.12 955.849 1989.84 953.133C1987.55 950.416 1985.91 947.216 1985.04 943.773C1984.16 940.33 1984.08 936.734 1984.8 933.256C1986.19 925.517 1990.2 918.49 1996.15 913.347C2002.09 908.204 2009.63 905.258 2017.48 904.999C2021.04 904.882 2024.57 905.574 2027.82 907.021C2031.07 908.469 2033.94 910.635 2036.23 913.356C2038.52 916.077 2040.16 919.281 2041.03 922.729C2041.9 926.176 2041.97 929.776 2041.25 933.256Z" fill="#263238"/>
<path d="M2064.66 1211.68H1840.1V1194.23L2064.66 1186.98V1211.68Z" fill="#455A64"/>
<path d="M2125.71 1211.65H2005.12L1932.5 1021.16H2053.09L2125.71 1211.65Z" fill="#455A64"/>
<path d="M2145.57 1211.65H2024.98L1952.36 1021.16H2072.95L2145.57 1211.65Z" fill="#263238"/>
<path d="M1621.85 1216.32H1390.32C1370.56 1216.32 1399.14 1160.05 1471.26 1138.48C1543.38 1116.91 1644.57 1195.2 1621.85 1216.32Z" fill="#37474F"/>
<path d="M1530.98 1216.32C1531.15 1209.91 1532.21 1203.55 1534.11 1197.43C1535.99 1191.25 1538.6 1185.32 1541.88 1179.77C1545.22 1174.2 1549.36 1169.16 1554.18 1164.82C1558.98 1160.53 1564.5 1157.12 1570.49 1154.75C1568.02 1156.77 1565.19 1158.23 1562.93 1160.43L1559.45 1163.46L1556.17 1166.94C1551.87 1171.42 1548.1 1176.37 1544.95 1181.72C1541.75 1187.05 1539 1192.65 1536.73 1198.44C1534.42 1204.27 1532.5 1210.24 1530.98 1216.32Z" fill="#263238"/>
<path d="M1558.4 1162.76C1572.17 1167.12 1585.2 1173.55 1597.04 1181.82C1603.04 1185.97 1608.47 1190.88 1613.21 1196.42C1618.14 1201.9 1621.17 1208.83 1621.85 1216.18C1619.92 1209.36 1616.23 1203.17 1611.15 1198.23C1606.21 1193.21 1600.81 1188.66 1595.02 1184.64C1589.31 1180.5 1583.24 1176.77 1577.11 1173.11C1570.98 1169.45 1564.78 1166.14 1558.4 1162.76Z" fill="#263238"/>
</svg>
